<svg xmlns="http://www.w3.org/2000/svg" width="80" height="58" viewBox="0 0 80 58">
  <defs>
    <style>
      .cls-1 {
        fill: #fff;
      }
    </style>
  </defs>
  <path id="联合_11" data-name="联合 11" class="cls-1" d="M-8849.238,30.9a5.9,5.9,0,0,1,0-5.8c.655-1.124,13.787-26.1,39.251-26.1s38.7,24.976,39.395,26.1a7.006,7.006,0,0,1-.073,5.8c-.69,1.124-13.859,26.1-39.321,26.1S-8848.583,32.024-8849.238,30.9Zm6.185-2.9s11.568,22.185,33.066,22.185S-8776.923,28-8776.923,28s-11.567-22.185-33.064-22.185S-8843.054,28-8843.054,28Zm17.886.119a14.965,14.965,0,0,1,14.992-14.938,14.964,14.964,0,0,1,14.989,14.938,14.964,14.964,0,0,1-14.989,14.938A14.965,14.965,0,0,1-8825.168,28.12Z" transform="translate(8850 1)"/>
</svg>
