<svg xmlns="http://www.w3.org/2000/svg" xmlns:xlink="http://www.w3.org/1999/xlink" width="94.105" height="110.503" viewBox="0 0 94.105 110.503">
  <defs>
    <style>
      .cls-1 {
        fill: #d7e2fe;
      }

      .cls-2 {
        fill: url(#linear-gradient);
      }

      .cls-3 {
        fill: url(#linear-gradient-2);
      }
    </style>
    <linearGradient id="linear-gradient" x1="0.5" x2="0.5" y2="1" gradientUnits="objectBoundingBox">
      <stop offset="0" stop-color="#316cfb"/>
      <stop offset="1" stop-color="#1855f7"/>
    </linearGradient>
    <linearGradient id="linear-gradient-2" x1="0.5" x2="0.5" y2="1" gradientUnits="objectBoundingBox">
      <stop offset="0" stop-color="#f4f8ff"/>
      <stop offset="1" stop-color="#e2edff"/>
    </linearGradient>
  </defs>
  <g id="组_572" data-name="组 572" transform="translate(-59.895 -1723)">
    <path id="路径_348" data-name="路径 348" class="cls-1" d="M0,0H22V41L11.874,29.7,0,41Z" transform="translate(80.395 1786.996) rotate(30)"/>
    <path id="路径_349" data-name="路径 349" class="cls-1" d="M0,41H22V0L11.874,11.3,0,0Z" transform="translate(154 1822.504) rotate(150)"/>
    <path id="联合_5" data-name="联合 5" class="cls-2" d="M-5848.039,84.426l-8.249-4.762-8.249,4.762A4,4,0,0,1-5870,82.962l-4.763-8.249h-9.524a4,4,0,0,1-4-4V61.188l-8.249-4.763A4,4,0,0,1-5898,50.961l4.762-8.248L-5898,34.464A4,4,0,0,1-5896.536,29l8.249-4.763V14.713a4,4,0,0,1,4-4h9.524L-5870,2.464A4,4,0,0,1-5864.536,1l8.249,4.762L-5848.039,1a4,4,0,0,1,5.464,1.464l4.763,8.249h9.524a4,4,0,0,1,4,4v9.524l8.249,4.763a4,4,0,0,1,1.464,5.464l-4.763,8.248,4.763,8.248a4,4,0,0,1-1.464,5.464l-8.249,4.763v9.524a4,4,0,0,1-4,4h-9.524l-4.763,8.249a4,4,0,0,1-3.469,2A3.979,3.979,0,0,1-5848.039,84.426Z" transform="translate(5963.537 1722.537)"/>
    <path id="icon_皇冠" class="cls-3" d="M150.066,222.26a1.376,1.376,0,0,0-.934.36c-.015.015-.02.01-.015-.01l-9.015,7.809-7.342-14.125a1.931,1.931,0,0,0-3.166.241l-7.219,13.884-9.3-8.06a1.409,1.409,0,0,0-.662-.163,1.32,1.32,0,0,0-1.344,1.291q0,.089-.031.089l2.878,20.648a1.97,1.97,0,0,0-.015-.241,3.853,3.853,0,0,0,2.545,3.124,2.2,2.2,0,0,0-.359-.1c2.889,1.04,27.373.823,30.3-.276a2.144,2.144,0,0,0-.344.094,3.866,3.866,0,0,0,2.545-3.129,2.416,2.416,0,0,0-.01.468l2.858-20.54a.131.131,0,0,1-.021-.084,1.319,1.319,0,0,0-1.349-1.281Z" transform="translate(-24.036 1533.421)"/>
  </g>
</svg>
