<svg xmlns="http://www.w3.org/2000/svg" xmlns:xlink="http://www.w3.org/1999/xlink" width="2392" height="589" viewBox="0 0 2392 589"><defs><linearGradient id="a" x1="2.081" y1="1.182" x2="2.402" y2="-0.753" gradientUnits="objectBoundingBox"><stop offset="0" stop-color="#b39152"/><stop offset="1" stop-color="#d6b274"/></linearGradient></defs><g transform="translate(-244 -2283)"><g transform="translate(0 -256)"><g transform="translate(244 2539)" fill="#e7f0fc" stroke="#aacdf0" stroke-width="2"><rect width="764" height="260" rx="16" stroke="none"/><rect x="1" y="1" width="762" height="258" rx="15" fill="none"/></g><g transform="translate(6130.001 2526)" fill="#fff"><path d="M -5176.82958984375 256.9995727539062 L -5830.17138671875 256.9995727539062 C -5830.0576171875 255.839111328125 -5830.00048828125 254.666259765625 -5830.00048828125 253.4996490478516 C -5830.00048828125 248.7076568603516 -5830.93896484375 244.0585632324219 -5832.79052734375 239.6813812255859 C -5834.57861328125 235.4532012939453 -5837.13818359375 231.6569213867188 -5840.39794921875 228.3979187011719 C -5843.65771484375 225.1381988525391 -5847.4541015625 222.5787353515625 -5851.68115234375 220.7907409667969 C -5856.05859375 218.9394683837891 -5860.70751953125 218.0007476806641 -5865.49951171875 218.0007476806641 C -5867.00439453125 218.0007476806641 -5868.51318359375 218.0957489013672 -5870.00048828125 218.2836761474609 L -5870.00048828125 68.71690368652344 C -5868.5126953125 68.9049072265625 -5867.00390625 68.99992370605469 -5865.49951171875 68.99992370605469 C -5860.70751953125 68.99992370605469 -5856.05859375 68.06110382080078 -5851.68115234375 66.20964813232422 C -5847.4541015625 64.42165374755859 -5843.65771484375 61.86201477050781 -5840.39794921875 58.60192489624023 C -5837.13818359375 55.34283065795898 -5834.57861328125 51.54637908935547 -5832.79052734375 47.31801223754883 C -5830.93896484375 42.94065093994141 -5830.00048828125 38.29146957397461 -5830.00048828125 33.49946975708008 C -5830.00048828125 31.99441337585449 -5830.09521484375 30.48579788208008 -5830.283203125 29.00019645690918 L -5176.7177734375 29.00019645690918 C -5176.9052734375 30.4871654510498 -5177.00048828125 31.99560928344727 -5177.00048828125 33.49946975708008 C -5177.00048828125 38.29210662841797 -5176.0615234375 42.94137573242188 -5174.2099609375 47.3181037902832 C -5172.42138671875 51.54592132568359 -5169.86181640625 55.34237670898438 -5166.60205078125 58.60192489624023 C -5163.3427734375 61.8615608215332 -5159.54638671875 64.42119598388672 -5155.318359375 66.20964813232422 C -5150.94091796875 68.06110382080078 -5146.2919921875 68.99992370605469 -5141.5 68.99992370605469 C -5140.33349609375 68.99992370605469 -5139.1611328125 68.94259643554688 -5138.00048828125 68.82917785644531 L -5138.00048828125 218.1714172363281 C -5139.16064453125 218.0580444335938 -5140.3330078125 218.0007476806641 -5141.5 218.0007476806641 C -5146.2919921875 218.0007476806641 -5150.94091796875 218.9394683837891 -5155.318359375 220.7907409667969 C -5159.5458984375 222.5787353515625 -5163.3427734375 225.1381988525391 -5166.60205078125 228.3980102539062 C -5169.86181640625 231.6571960449219 -5172.42138671875 235.4534759521484 -5174.2099609375 239.6812896728516 C -5176.0615234375 244.0578308105469 -5177.00048828125 248.7070159912109 -5177.00048828125 253.4996490478516 C -5177.00048828125 254.6665802001953 -5176.943359375 255.8393707275391 -5176.82958984375 256.9995727539062 Z" stroke="none"/><path d="M -5177.91552734375 255.9995574951172 C -5177.97216796875 255.1675720214844 -5178.00048828125 254.3320617675781 -5178.00048828125 253.4996490478516 C -5178.00048828125 248.5723724365234 -5177.03515625 243.7920989990234 -5175.130859375 239.291748046875 C -5173.2919921875 234.9446563720703 -5170.66015625 231.0415649414062 -5167.30908203125 227.69091796875 C -5163.9580078125 224.3396453857422 -5160.0546875 221.7081909179688 -5155.70751953125 219.8697357177734 C -5151.20654296875 217.9660186767578 -5146.42626953125 217.0007476806641 -5141.5 217.0007476806641 C -5140.66748046875 217.0007476806641 -5139.83251953125 217.0291137695312 -5139.00048828125 217.08544921875 L -5139.00048828125 69.91517639160156 C -5139.83251953125 69.97154235839844 -5140.66796875 69.99992370605469 -5141.5 69.99992370605469 C -5146.42626953125 69.99992370605469 -5151.20654296875 69.03456115722656 -5155.7080078125 67.13065338134766 C -5160.05517578125 65.29174041748047 -5163.95849609375 62.66019439697266 -5167.30908203125 59.30910491943359 C -5170.66064453125 55.95801544189453 -5173.2919921875 52.05474090576172 -5175.130859375 47.70774078369141 C -5177.03515625 43.20701217651367 -5178.00048828125 38.42674255371094 -5178.00048828125 33.49946975708008 C -5178.00048828125 32.33194351196289 -5177.94482421875 31.16174507141113 -5177.83447265625 30.00019645690918 L -5829.16650390625 30.00019645690918 C -5829.05615234375 31.16097640991211 -5829.00048828125 32.33123397827148 -5829.00048828125 33.49946975708008 C -5829.00048828125 38.4260139465332 -5829.9658203125 43.2062873840332 -5831.86962890625 47.70755767822266 C -5833.70849609375 52.05519485473633 -5836.33984375 55.95846939086914 -5839.6904296875 59.30901336669922 C -5843.0419921875 62.66065216064453 -5846.9453125 65.29228973388672 -5851.29150390625 67.13065338134766 C -5855.79296875 69.03456115722656 -5860.5732421875 69.99992370605469 -5865.49951171875 69.99992370605469 C -5866.66748046875 69.99992370605469 -5867.83837890625 69.94416809082031 -5869.00048828125 69.83359527587891 L -5869.00048828125 217.1670074462891 C -5867.8388671875 217.0564880371094 -5866.66748046875 217.0007476806641 -5865.49951171875 217.0007476806641 C -5860.5732421875 217.0007476806641 -5855.79296875 217.9660186767578 -5851.29150390625 219.8697357177734 C -5846.9453125 221.7081909179688 -5843.0419921875 224.3395538330078 -5839.69091796875 227.6907348632812 C -5836.33984375 231.0411987304688 -5833.70849609375 234.9443817138672 -5831.86962890625 239.2918395996094 C -5829.9658203125 243.7929229736328 -5829.00048828125 248.5731048583984 -5829.00048828125 253.4996490478516 C -5829.00048828125 254.3319702148438 -5829.02880859375 255.1673889160156 -5829.08544921875 255.9995574951172 L -5177.91552734375 255.9995574951172 M -5175.708984375 257.9995727539062 L -5175.70947265625 257.9995727539062 L -5831.29150390625 257.9995727539062 C -5831.0986328125 256.5185546875 -5831.00048828125 255.0049285888672 -5831.00048828125 253.4996490478516 C -5831.00048828125 248.8421936035156 -5831.91259765625 244.3241119384766 -5833.71142578125 240.0709228515625 C -5835.44921875 235.9624633789062 -5837.9365234375 232.2730102539062 -5841.10498046875 229.1051025390625 C -5844.2734375 225.9367370605469 -5847.962890625 223.4492797851562 -5852.07080078125 221.7117462158203 C -5856.32421875 219.9128265380859 -5860.84228515625 219.0007476806641 -5865.49951171875 219.0007476806641 C -5867.34375 219.0007476806641 -5869.1943359375 219.1474609375 -5871.00048828125 219.4369201660156 L -5871.00048828125 67.56365203857422 C -5869.19580078125 67.85282897949219 -5867.345703125 67.99992370605469 -5865.49951171875 67.99992370605469 C -5860.84228515625 67.99992370605469 -5856.32421875 67.08773803710938 -5852.07080078125 65.28865051269531 C -5847.962890625 63.55110549926758 -5844.2734375 61.06346893310547 -5841.10498046875 57.89483261108398 C -5837.9365234375 54.72674179077148 -5835.44921875 51.03710556030273 -5833.71142578125 46.928466796875 C -5831.91259765625 42.67510604858398 -5831.00048828125 38.15692138671875 -5831.00048828125 33.49946975708008 C -5831.00048828125 31.65574073791504 -5831.14697265625 29.8055591583252 -5831.4365234375 28.00019645690918 L -5175.564453125 28.00019645690918 C -5175.853515625 29.80446815490723 -5176.00048828125 31.65428733825684 -5176.00048828125 33.49946975708008 C -5176.00048828125 38.1571044921875 -5175.08837890625 42.67528533935547 -5173.2890625 46.928466796875 C -5171.55126953125 51.03656005859375 -5169.06396484375 54.72610473632812 -5165.89501953125 57.89483261108398 C -5162.72705078125 61.06319427490234 -5159.037109375 63.55083084106445 -5154.9287109375 65.28865051269531 C -5150.67529296875 67.08773803710938 -5146.1572265625 67.99992370605469 -5141.5 67.99992370605469 C -5139.9970703125 67.99992370605469 -5138.48291015625 67.90201568603516 -5137.00048828125 67.70892333984375 L -5137.00048828125 219.2916564941406 C -5138.47998046875 219.0989227294922 -5139.99365234375 219.0007476806641 -5141.5 219.0007476806641 C -5146.1572265625 219.0007476806641 -5150.67529296875 219.9128265380859 -5154.9287109375 221.7117462158203 C -5159.03759765625 223.449462890625 -5162.72705078125 225.9369201660156 -5165.89501953125 229.1051025390625 C -5169.06396484375 232.2735595703125 -5171.55126953125 235.9629211425781 -5173.2890625 240.0709228515625 C -5175.08837890625 244.3239288330078 -5176.00048828125 248.8420104980469 -5176.00048828125 253.4996490478516 C -5176.00048828125 255.00537109375 -5175.90234375 256.5190124511719 -5175.70947265625 257.9984741210938 L -5175.708984375 257.9995727539062 Z" stroke="none" fill="#d1e8fe"/></g><path d="M180.645,227.911a18.387,18.387,0,0,0,8.237,4.629l1.181.308a4.494,4.494,0,0,1,3.473,4.482,4.88,4.88,0,0,1-4.179,4.836,4.734,4.734,0,0,1-5.239-3.473,17.569,17.569,0,0,0-4.835-9.318c-.3-.3-.1-.959-.2-1.464l1.07-.086A.76.76,0,0,1,180.645,227.911Zm4.28-45.629a27.02,27.02,0,0,1,7.753,18.64,9.536,9.536,0,0,0-3.977-.858h-.2a9.56,9.56,0,0,0-9.116,8.46,10.508,10.508,0,0,0,0,2.519,11.8,11.8,0,0,1-6.6,3.326h-.05a9.207,9.207,0,0,0-3.876,16.162,36.441,36.441,0,0,1-9.318,1.565,42.136,42.136,0,0,1-12.033-1.161,4.388,4.388,0,0,0-1.969.2l-9.111,4.482a2.713,2.713,0,0,1-3.225-.1c-.959-.707-1.06-1.767-.959-3.023.4-2.514.707-5.032.959-7.551a2.729,2.729,0,0,0-.707-1.666c-3.977-3.977-7.4-8.359-9.116-13.9-3.22-10.978-.3-20.4,7.657-28.256,14.552-14.249,39.986-13.593,53.887,1.161ZM203.056,218.6a4.86,4.86,0,0,1,4.381,4.835,4.694,4.694,0,0,1-3.876,4.83,16.258,16.258,0,0,0-7.854,3.725l-.808.757c-.5.5-1.262.959-1.767.2a1.911,1.911,0,0,1,.2-1.661,16.283,16.283,0,0,0,4.482-8.813A4.8,4.8,0,0,1,203.056,218.6Zm-18.837-4.533c-.1.5.1,1.262-.2,1.56a17.033,17.033,0,0,0-4.583,9.015,4.492,4.492,0,0,1-5.234,3.574,5.053,5.053,0,0,1-4.23-4.881,4.618,4.618,0,0,1,3.675-4.482,16.667,16.667,0,0,0,9.015-4.583c.3-.3,1.06-.2,1.565-.2ZM188.7,204.6a4.747,4.747,0,0,1,4.735,3.776,16.7,16.7,0,0,0,4.583,9.015c.3.3.1,1.161.2,1.666l-1.121.061a.769.769,0,0,1-.54-.162,17.148,17.148,0,0,0-9.116-4.735,4.694,4.694,0,0,1-3.579-5.138A5.078,5.078,0,0,1,188.7,204.6Z" transform="translate(190.906 2462.18)" fill="#1582ef"/><text transform="translate(515 2682)" fill="#333f51" font-size="36" font-family="PingFangSC-Semibold, PingFang SC" font-weight="600" letter-spacing="0.05em"><tspan x="0" y="0">企业微信服务商</tspan></text><line y2="83" transform="translate(456.5 2627.5)" fill="none" stroke="#dce3f2" stroke-width="2"/></g><g transform="translate(0 -256)"><g transform="translate(1058 2539)" fill="#e7f0fc" stroke="#aacdf0" stroke-width="2"><rect width="764" height="260" rx="16" stroke="none"/><rect x="1" y="1" width="762" height="258" rx="15" fill="none"/></g><g transform="translate(6944.001 2526)" fill="#fff"><path d="M -5176.82958984375 256.9995727539062 L -5830.17138671875 256.9995727539062 C -5830.0576171875 255.839111328125 -5830.00048828125 254.666259765625 -5830.00048828125 253.4996490478516 C -5830.00048828125 248.7076568603516 -5830.93896484375 244.0585632324219 -5832.79052734375 239.6813812255859 C -5834.57861328125 235.4532012939453 -5837.13818359375 231.6569213867188 -5840.39794921875 228.3979187011719 C -5843.65771484375 225.1381988525391 -5847.4541015625 222.5787353515625 -5851.68115234375 220.7907409667969 C -5856.05859375 218.9394683837891 -5860.70751953125 218.0007476806641 -5865.49951171875 218.0007476806641 C -5867.00439453125 218.0007476806641 -5868.51318359375 218.0957489013672 -5870.00048828125 218.2836761474609 L -5870.00048828125 68.71690368652344 C -5868.5126953125 68.9049072265625 -5867.00390625 68.99992370605469 -5865.49951171875 68.99992370605469 C -5860.70751953125 68.99992370605469 -5856.05859375 68.06110382080078 -5851.68115234375 66.20964813232422 C -5847.4541015625 64.42165374755859 -5843.65771484375 61.86201477050781 -5840.39794921875 58.60192489624023 C -5837.13818359375 55.34283065795898 -5834.57861328125 51.54637908935547 -5832.79052734375 47.31801223754883 C -5830.93896484375 42.94065093994141 -5830.00048828125 38.29146957397461 -5830.00048828125 33.49946975708008 C -5830.00048828125 31.99441337585449 -5830.09521484375 30.48579788208008 -5830.283203125 29.00019645690918 L -5176.7177734375 29.00019645690918 C -5176.9052734375 30.4871654510498 -5177.00048828125 31.99560928344727 -5177.00048828125 33.49946975708008 C -5177.00048828125 38.29210662841797 -5176.0615234375 42.94137573242188 -5174.2099609375 47.3181037902832 C -5172.42138671875 51.54592132568359 -5169.86181640625 55.34237670898438 -5166.60205078125 58.60192489624023 C -5163.3427734375 61.8615608215332 -5159.54638671875 64.42119598388672 -5155.318359375 66.20964813232422 C -5150.94091796875 68.06110382080078 -5146.2919921875 68.99992370605469 -5141.5 68.99992370605469 C -5140.33349609375 68.99992370605469 -5139.1611328125 68.94259643554688 -5138.00048828125 68.82917785644531 L -5138.00048828125 218.1714172363281 C -5139.16064453125 218.0580444335938 -5140.3330078125 218.0007476806641 -5141.5 218.0007476806641 C -5146.2919921875 218.0007476806641 -5150.94091796875 218.9394683837891 -5155.318359375 220.7907409667969 C -5159.5458984375 222.5787353515625 -5163.3427734375 225.1381988525391 -5166.60205078125 228.3980102539062 C -5169.86181640625 231.6571960449219 -5172.42138671875 235.4534759521484 -5174.2099609375 239.6812896728516 C -5176.0615234375 244.0578308105469 -5177.00048828125 248.7070159912109 -5177.00048828125 253.4996490478516 C -5177.00048828125 254.6665802001953 -5176.943359375 255.8393707275391 -5176.82958984375 256.9995727539062 Z" stroke="none"/><path d="M -5177.91552734375 255.9995574951172 C -5177.97216796875 255.1675720214844 -5178.00048828125 254.3320617675781 -5178.00048828125 253.4996490478516 C -5178.00048828125 248.5723724365234 -5177.03515625 243.7920989990234 -5175.130859375 239.291748046875 C -5173.2919921875 234.9446563720703 -5170.66015625 231.0415649414062 -5167.30908203125 227.69091796875 C -5163.9580078125 224.3396453857422 -5160.0546875 221.7081909179688 -5155.70751953125 219.8697357177734 C -5151.20654296875 217.9660186767578 -5146.42626953125 217.0007476806641 -5141.5 217.0007476806641 C -5140.66748046875 217.0007476806641 -5139.83251953125 217.0291137695312 -5139.00048828125 217.08544921875 L -5139.00048828125 69.91517639160156 C -5139.83251953125 69.97154235839844 -5140.66796875 69.99992370605469 -5141.5 69.99992370605469 C -5146.42626953125 69.99992370605469 -5151.20654296875 69.03456115722656 -5155.7080078125 67.13065338134766 C -5160.05517578125 65.29174041748047 -5163.95849609375 62.66019439697266 -5167.30908203125 59.30910491943359 C -5170.66064453125 55.95801544189453 -5173.2919921875 52.05474090576172 -5175.130859375 47.70774078369141 C -5177.03515625 43.20701217651367 -5178.00048828125 38.42674255371094 -5178.00048828125 33.49946975708008 C -5178.00048828125 32.33194351196289 -5177.94482421875 31.16174507141113 -5177.83447265625 30.00019645690918 L -5829.16650390625 30.00019645690918 C -5829.05615234375 31.16097640991211 -5829.00048828125 32.33123397827148 -5829.00048828125 33.49946975708008 C -5829.00048828125 38.4260139465332 -5829.9658203125 43.2062873840332 -5831.86962890625 47.70755767822266 C -5833.70849609375 52.05519485473633 -5836.33984375 55.95846939086914 -5839.6904296875 59.30901336669922 C -5843.0419921875 62.66065216064453 -5846.9453125 65.29228973388672 -5851.29150390625 67.13065338134766 C -5855.79296875 69.03456115722656 -5860.5732421875 69.99992370605469 -5865.49951171875 69.99992370605469 C -5866.66748046875 69.99992370605469 -5867.83837890625 69.94416809082031 -5869.00048828125 69.83359527587891 L -5869.00048828125 217.1670074462891 C -5867.8388671875 217.0564880371094 -5866.66748046875 217.0007476806641 -5865.49951171875 217.0007476806641 C -5860.5732421875 217.0007476806641 -5855.79296875 217.9660186767578 -5851.29150390625 219.8697357177734 C -5846.9453125 221.7081909179688 -5843.0419921875 224.3395538330078 -5839.69091796875 227.6907348632812 C -5836.33984375 231.0411987304688 -5833.70849609375 234.9443817138672 -5831.86962890625 239.2918395996094 C -5829.9658203125 243.7929229736328 -5829.00048828125 248.5731048583984 -5829.00048828125 253.4996490478516 C -5829.00048828125 254.3319702148438 -5829.02880859375 255.1673889160156 -5829.08544921875 255.9995574951172 L -5177.91552734375 255.9995574951172 M -5175.708984375 257.9995727539062 L -5175.70947265625 257.9995727539062 L -5831.29150390625 257.9995727539062 C -5831.0986328125 256.5185546875 -5831.00048828125 255.0049285888672 -5831.00048828125 253.4996490478516 C -5831.00048828125 248.8421936035156 -5831.91259765625 244.3241119384766 -5833.71142578125 240.0709228515625 C -5835.44921875 235.9624633789062 -5837.9365234375 232.2730102539062 -5841.10498046875 229.1051025390625 C -5844.2734375 225.9367370605469 -5847.962890625 223.4492797851562 -5852.07080078125 221.7117462158203 C -5856.32421875 219.9128265380859 -5860.84228515625 219.0007476806641 -5865.49951171875 219.0007476806641 C -5867.34375 219.0007476806641 -5869.1943359375 219.1474609375 -5871.00048828125 219.4369201660156 L -5871.00048828125 67.56365203857422 C -5869.19580078125 67.85282897949219 -5867.345703125 67.99992370605469 -5865.49951171875 67.99992370605469 C -5860.84228515625 67.99992370605469 -5856.32421875 67.08773803710938 -5852.07080078125 65.28865051269531 C -5847.962890625 63.55110549926758 -5844.2734375 61.06346893310547 -5841.10498046875 57.89483261108398 C -5837.9365234375 54.72674179077148 -5835.44921875 51.03710556030273 -5833.71142578125 46.928466796875 C -5831.91259765625 42.67510604858398 -5831.00048828125 38.15692138671875 -5831.00048828125 33.49946975708008 C -5831.00048828125 31.65574073791504 -5831.14697265625 29.8055591583252 -5831.4365234375 28.00019645690918 L -5175.564453125 28.00019645690918 C -5175.853515625 29.80446815490723 -5176.00048828125 31.65428733825684 -5176.00048828125 33.49946975708008 C -5176.00048828125 38.1571044921875 -5175.08837890625 42.67528533935547 -5173.2890625 46.928466796875 C -5171.55126953125 51.03656005859375 -5169.06396484375 54.72610473632812 -5165.89501953125 57.89483261108398 C -5162.72705078125 61.06319427490234 -5159.037109375 63.55083084106445 -5154.9287109375 65.28865051269531 C -5150.67529296875 67.08773803710938 -5146.1572265625 67.99992370605469 -5141.5 67.99992370605469 C -5139.9970703125 67.99992370605469 -5138.48291015625 67.90201568603516 -5137.00048828125 67.70892333984375 L -5137.00048828125 219.2916564941406 C -5138.47998046875 219.0989227294922 -5139.99365234375 219.0007476806641 -5141.5 219.0007476806641 C -5146.1572265625 219.0007476806641 -5150.67529296875 219.9128265380859 -5154.9287109375 221.7117462158203 C -5159.03759765625 223.449462890625 -5162.72705078125 225.9369201660156 -5165.89501953125 229.1051025390625 C -5169.06396484375 232.2735595703125 -5171.55126953125 235.9629211425781 -5173.2890625 240.0709228515625 C -5175.08837890625 244.3239288330078 -5176.00048828125 248.8420104980469 -5176.00048828125 253.4996490478516 C -5176.00048828125 255.00537109375 -5175.90234375 256.5190124511719 -5175.70947265625 257.9984741210938 L -5175.708984375 257.9995727539062 Z" stroke="none" fill="#d1e8fe"/></g><text transform="translate(1329 2682)" fill="#333f51" font-size="36" font-family="PingFangSC-Semibold, PingFang SC" font-weight="600" letter-spacing="0.05em"><tspan x="0" y="0">阿里云生态合作伙伴</tspan></text><line y2="83" transform="translate(1270.5 2627.5)" fill="none" stroke="#dce3f2" stroke-width="2"/><path d="M149.985,249.468A14.217,14.217,0,0,0,135.769,235.3H113.44l2.059,8.123,19.164,4.167a4.06,4.06,0,0,1,3.137,3.785c.01.048.01,20.6,0,20.651a4.06,4.06,0,0,1-3.137,3.785L115.5,279.978l-2.059,8.133h22.329a14.223,14.223,0,0,0,14.216-14.168ZM80.031,275.831a4.06,4.06,0,0,1-3.137-3.785c-.01-.057-.01-20.6,0-20.651a4.06,4.06,0,0,1,3.137-3.785L99.2,243.442l2.059-8.123H78.916A14.217,14.217,0,0,0,64.7,249.487v24.494a14.223,14.223,0,0,0,14.216,14.168h22.329l-2.059-8.133ZM99.186,260.69h16.3v2.031h-16.3Z" transform="translate(1057.3 2407.7)" fill="#f7641f"/></g><g transform="translate(0 -256)"><g transform="translate(244 2868)" fill="#fffdf8" stroke="#d6b274" stroke-width="2"><rect width="764" height="260" rx="16" stroke="none"/><rect x="1" y="1" width="762" height="258" rx="15" fill="none"/></g><g transform="translate(6130.001 2855)" fill="#fff"><path d="M -5176.82958984375 256.9995727539062 L -5830.17138671875 256.9995727539062 C -5830.0576171875 255.839111328125 -5830.00048828125 254.666259765625 -5830.00048828125 253.4996490478516 C -5830.00048828125 248.7076568603516 -5830.93896484375 244.0585632324219 -5832.79052734375 239.6813812255859 C -5834.57861328125 235.4532012939453 -5837.13818359375 231.6569213867188 -5840.39794921875 228.3979187011719 C -5843.65771484375 225.1381988525391 -5847.4541015625 222.5787353515625 -5851.68115234375 220.7907409667969 C -5856.05859375 218.9394683837891 -5860.70751953125 218.0007476806641 -5865.49951171875 218.0007476806641 C -5867.00439453125 218.0007476806641 -5868.51318359375 218.0957489013672 -5870.00048828125 218.2836761474609 L -5870.00048828125 68.71690368652344 C -5868.5126953125 68.9049072265625 -5867.00390625 68.99992370605469 -5865.49951171875 68.99992370605469 C -5860.70751953125 68.99992370605469 -5856.05859375 68.06110382080078 -5851.68115234375 66.20964813232422 C -5847.4541015625 64.42165374755859 -5843.65771484375 61.86201477050781 -5840.39794921875 58.60192489624023 C -5837.13818359375 55.34283065795898 -5834.57861328125 51.54637908935547 -5832.79052734375 47.31801223754883 C -5830.93896484375 42.94065093994141 -5830.00048828125 38.29146957397461 -5830.00048828125 33.49946975708008 C -5830.00048828125 31.99441337585449 -5830.09521484375 30.48579788208008 -5830.283203125 29.00019645690918 L -5176.7177734375 29.00019645690918 C -5176.9052734375 30.4871654510498 -5177.00048828125 31.99560928344727 -5177.00048828125 33.49946975708008 C -5177.00048828125 38.29210662841797 -5176.0615234375 42.94137573242188 -5174.2099609375 47.3181037902832 C -5172.42138671875 51.54592132568359 -5169.86181640625 55.34237670898438 -5166.60205078125 58.60192489624023 C -5163.3427734375 61.8615608215332 -5159.54638671875 64.42119598388672 -5155.318359375 66.20964813232422 C -5150.94091796875 68.06110382080078 -5146.2919921875 68.99992370605469 -5141.5 68.99992370605469 C -5140.33349609375 68.99992370605469 -5139.1611328125 68.94259643554688 -5138.00048828125 68.82917785644531 L -5138.00048828125 218.1714172363281 C -5139.16064453125 218.0580444335938 -5140.3330078125 218.0007476806641 -5141.5 218.0007476806641 C -5146.2919921875 218.0007476806641 -5150.94091796875 218.9394683837891 -5155.318359375 220.7907409667969 C -5159.5458984375 222.5787353515625 -5163.3427734375 225.1381988525391 -5166.60205078125 228.3980102539062 C -5169.86181640625 231.6571960449219 -5172.42138671875 235.4534759521484 -5174.2099609375 239.6812896728516 C -5176.0615234375 244.0578308105469 -5177.00048828125 248.7070159912109 -5177.00048828125 253.4996490478516 C -5177.00048828125 254.6665802001953 -5176.943359375 255.8393707275391 -5176.82958984375 256.9995727539062 Z" stroke="none"/><path d="M -5177.91552734375 255.9995574951172 C -5177.97216796875 255.1675720214844 -5178.00048828125 254.3320617675781 -5178.00048828125 253.4996490478516 C -5178.00048828125 248.5723724365234 -5177.03515625 243.7920989990234 -5175.130859375 239.291748046875 C -5173.2919921875 234.9446563720703 -5170.66015625 231.0415649414062 -5167.30908203125 227.69091796875 C -5163.9580078125 224.3396453857422 -5160.0546875 221.7081909179688 -5155.70751953125 219.8697357177734 C -5151.20654296875 217.9660186767578 -5146.42626953125 217.0007476806641 -5141.5 217.0007476806641 C -5140.66748046875 217.0007476806641 -5139.83251953125 217.0291137695312 -5139.00048828125 217.08544921875 L -5139.00048828125 69.91517639160156 C -5139.83251953125 69.97154235839844 -5140.66796875 69.99992370605469 -5141.5 69.99992370605469 C -5146.42626953125 69.99992370605469 -5151.20654296875 69.03456115722656 -5155.7080078125 67.13065338134766 C -5160.05517578125 65.29174041748047 -5163.95849609375 62.66019439697266 -5167.30908203125 59.30910491943359 C -5170.66064453125 55.95801544189453 -5173.2919921875 52.05474090576172 -5175.130859375 47.70774078369141 C -5177.03515625 43.20701217651367 -5178.00048828125 38.42674255371094 -5178.00048828125 33.49946975708008 C -5178.00048828125 32.33194351196289 -5177.94482421875 31.16174507141113 -5177.83447265625 30.00019645690918 L -5829.16650390625 30.00019645690918 C -5829.05615234375 31.16097640991211 -5829.00048828125 32.33123397827148 -5829.00048828125 33.49946975708008 C -5829.00048828125 38.4260139465332 -5829.9658203125 43.2062873840332 -5831.86962890625 47.70755767822266 C -5833.70849609375 52.05519485473633 -5836.33984375 55.95846939086914 -5839.6904296875 59.30901336669922 C -5843.0419921875 62.66065216064453 -5846.9453125 65.29228973388672 -5851.29150390625 67.13065338134766 C -5855.79296875 69.03456115722656 -5860.5732421875 69.99992370605469 -5865.49951171875 69.99992370605469 C -5866.66748046875 69.99992370605469 -5867.83837890625 69.94416809082031 -5869.00048828125 69.83359527587891 L -5869.00048828125 217.1670074462891 C -5867.8388671875 217.0564880371094 -5866.66748046875 217.0007476806641 -5865.49951171875 217.0007476806641 C -5860.5732421875 217.0007476806641 -5855.79296875 217.9660186767578 -5851.29150390625 219.8697357177734 C -5846.9453125 221.7081909179688 -5843.0419921875 224.3395538330078 -5839.69091796875 227.6907348632812 C -5836.33984375 231.0411987304688 -5833.70849609375 234.9443817138672 -5831.86962890625 239.2918395996094 C -5829.9658203125 243.7929229736328 -5829.00048828125 248.5731048583984 -5829.00048828125 253.4996490478516 C -5829.00048828125 254.3319702148438 -5829.02880859375 255.1673889160156 -5829.08544921875 255.9995574951172 L -5177.91552734375 255.9995574951172 M -5175.708984375 257.9995727539062 L -5175.70947265625 257.9995727539062 L -5831.29150390625 257.9995727539062 C -5831.0986328125 256.5185546875 -5831.00048828125 255.0049285888672 -5831.00048828125 253.4996490478516 C -5831.00048828125 248.8421936035156 -5831.91259765625 244.3241119384766 -5833.71142578125 240.0709228515625 C -5835.44921875 235.9624633789062 -5837.9365234375 232.2730102539062 -5841.10498046875 229.1051025390625 C -5844.2734375 225.9367370605469 -5847.962890625 223.4492797851562 -5852.07080078125 221.7117462158203 C -5856.32421875 219.9128265380859 -5860.84228515625 219.0007476806641 -5865.49951171875 219.0007476806641 C -5867.34375 219.0007476806641 -5869.1943359375 219.1474609375 -5871.00048828125 219.4369201660156 L -5871.00048828125 67.56365203857422 C -5869.19580078125 67.85282897949219 -5867.345703125 67.99992370605469 -5865.49951171875 67.99992370605469 C -5860.84228515625 67.99992370605469 -5856.32421875 67.08773803710938 -5852.07080078125 65.28865051269531 C -5847.962890625 63.55110549926758 -5844.2734375 61.06346893310547 -5841.10498046875 57.89483261108398 C -5837.9365234375 54.72674179077148 -5835.44921875 51.03710556030273 -5833.71142578125 46.928466796875 C -5831.91259765625 42.67510604858398 -5831.00048828125 38.15692138671875 -5831.00048828125 33.49946975708008 C -5831.00048828125 31.65574073791504 -5831.14697265625 29.8055591583252 -5831.4365234375 28.00019645690918 L -5175.564453125 28.00019645690918 C -5175.853515625 29.80446815490723 -5176.00048828125 31.65428733825684 -5176.00048828125 33.49946975708008 C -5176.00048828125 38.1571044921875 -5175.08837890625 42.67528533935547 -5173.2890625 46.928466796875 C -5171.55126953125 51.03656005859375 -5169.06396484375 54.72610473632812 -5165.89501953125 57.89483261108398 C -5162.72705078125 61.06319427490234 -5159.037109375 63.55083084106445 -5154.9287109375 65.28865051269531 C -5150.67529296875 67.08773803710938 -5146.1572265625 67.99992370605469 -5141.5 67.99992370605469 C -5139.9970703125 67.99992370605469 -5138.48291015625 67.90201568603516 -5137.00048828125 67.70892333984375 L -5137.00048828125 219.2916564941406 C -5138.47998046875 219.0989227294922 -5139.99365234375 219.0007476806641 -5141.5 219.0007476806641 C -5146.1572265625 219.0007476806641 -5150.67529296875 219.9128265380859 -5154.9287109375 221.7117462158203 C -5159.03759765625 223.449462890625 -5162.72705078125 225.9369201660156 -5165.89501953125 229.1051025390625 C -5169.06396484375 232.2735595703125 -5171.55126953125 235.9629211425781 -5173.2890625 240.0709228515625 C -5175.08837890625 244.3239288330078 -5176.00048828125 248.8420104980469 -5176.00048828125 253.4996490478516 C -5176.00048828125 255.00537109375 -5175.90234375 256.5190124511719 -5175.70947265625 257.9984741210938 L -5175.708984375 257.9995727539062 Z" stroke="none" fill="#fdf4dc"/></g><line y2="83" transform="translate(456.5 2956.5)" fill="none" stroke="#bc9a5b" stroke-width="2"/><g transform="translate(169.973 2928.934)"><path d="M157.57,496.435l.208-.754.211-.732.194-.686.194-.691.2-.676.179-.657.2-.657.194-.676.194-.657.182-.671.194-.691.211-.691.208-.734.208-.754.228-.776-.9-.3-.717-.284-.1-.048-.766-.359-.705-.4-.645-.422-.584-.446-.509-.468-.465-.5-.388-.511-.347-.521-.284-.54-.225-.555-.165-.54-.121-.572-.058-.567v-.567l.044-.555.1-.572.165-.555.2-.541.269-.54.3-.526.359-.511.4-.492.465-.463.494-.451.555-.422.6-.407.628-.354.691-.347.09-.034.645-.269.778-.252-.015-.974-.017-.96-.012-.928-.031-.948-.029-.931-.044-.9-.046-.919-.046-.882-.046-.885-.041-.868-.061-.87-.046-.856-.046-.853-.044-.839-.044-.839-.046-.839-.81.388-.09.029-.885.436-.87.465-.839.463-.841.48-.81.494-.793.511-.763.509-.751.54-.72.555-.705.567-.674.57-.645.6-.63.62-.6.611-.57.645-.541.662-.524.654-.48.688-.451.691-.419.72-.39.705-.359.749-.33.766-.286.766-.255.79-.208.81-.182.81-.136.839-.1.843-.061.865-.017.87.017,1.156.061,1.093.087,1.064.136,1.018.165.974.194.933.225.9.269.853.3.824.313.78.361.734.373.72.4.676.436.64.463.616.48.587.5.555.524.54.538.492.57.477.572.456.613.436.616.4.628.378.647.368.642.332.676.347.688.3.688.288.691.284.72.269.705.242.24-.768Z" transform="translate(0 -392.628)" fill="url(#a)"/><path d="M309.293,95.588l.538-2.892.526-2.879.526-2.887.54-2.882.524-2.879.526-2.86.524-2.85.538-2.865.528-2.833L316.2,68.4l2.043-1.365,1.917-1.394,1.83-1.394,1.723-1.4.017-.015,1.617-1.394,1.529-1.423,1.425-1.425,1.35-1.44,1.246-1.437,1.142-1.454,1.047-1.454.96-1.454.868-1.471.795-1.469.684-1.469.62-1.483.538-1.483.453-1.483.359-1.486.286-1.483.206-1.5.124-1.5.044-1.5-.015-1.5-.1-1.483-.17-1.5-.242-1.5-.315-1.5-.388-1.5-.453-1.5-.509-1.483-.754,1.68-.764,1.648-.807,1.617-.824,1.622-.829,1.588-.88,1.575-.9,1.544-.936,1.529-.96,1.5-.987,1.471-1,1.437L326.143,41.7l-1.066,1.4-1.108,1.365-.24.284-.9,1.05-1.159,1.3-1.2,1.275-1.226,1.243-1.26,1.2-1.306,1.171-1.336,1.154-1.365,1.1L312.587,55.3l-1.437,1.033-1.471.989-1.5.945-1.556.914-1.573.87-1.619.839-1.663.8-1.694.737-1.74.7.046.974.044.945.046.928.044.914.061.9.044.9.061.885.061.887.061.868.061.88.044.875.046.88.061.9.044.9.044.914.046.928.361-.175.359-.165.359-.153.347-.133.327-.138.332-.119.33-.124.33-.119.33-.133.33-.138.361-.1.344-.153.359-.16.376-.179.388-.2.407-.208-.674,2.5-.676,2.533-.674,2.518-.662,2.5-.657,2.518-.676,2.513-.659,2.523-.659,2.5-.659,2.5-.662,2.518-.659,2.5-.671,2.523-.662,2.513-.419,1.549-.257.974-.674,2.518-.688,2.513.734.048.705.029h.179l.538.034.72.01.72.034.72.015.72.019h.72l.72.01h.72l.72.015h3.58l.541-2.831.526-2.85.524-2.865.526-2.879.54-2.86.524-2.892.524-2.875Z" transform="translate(-136.763)" fill="url(#a)"/><path d="M470.732,269.171l-.1.582-.138.587-.138.579-.165.582-.177.606-.194.555-.211.579-.242.572-.252.565-.267.572-.267.55-.315.555-.318.548-.347.521-.347.511-.376.511-.371.507-.4.482-.41.461-.419.461-.451.439-.453.422-.465.4-.473.388-.5.378-.495.347-.523.33-.526.3-.54.3-.318.148-.24.109-.555.238v-.463l.015-.451.015-.463.032-.461.034-.461.031-.463.046-.482.031-.463.048-.48.032-.456.032-.482.029-.463.034-.463.015-.463.015-.451.019-.468.388-.238.284-.165.688-.422.688-.417.691-.441.691-.431.684-.436.693-.453.671-.461.347-.245.347-.225.332-.252L467,272l.334-.274.347-.252.33-.255.315-.269.332-.262.327-.288.318-.284.315-.281.3-.313.315-.3.3-.3.315-.335-.114.582Zm10.541-10.99-.1-2.174-.179-2.189-.242-2.218-.3-2.264-.359-2.293-.422-2.322-.463-2.339L478.68,240l-.737,1.588-.754,1.515-.749,1.466-.754,1.4-.761,1.333-.751,1.275-.763,1.212-.778,1.185-.773,1.11-.78,1.064-.78,1.006-.761.974-.8.931-.79.882-.8.839-.79.812-.824.778-.795.734-.814.705-.819.674-.81.647-.829.613-.824.6-.1.075-.739.494-.824.572-.824.524-.839.524-.858.511-.841.492-.841.5-.836.477-.858.465-.5,2.753-.494,2.712-.482,2.732-.494,2.712-.494,2.712-.48,2.7-.494,2.7-.494,2.7-.494,2.717-.494,2.69-.494,2.7-.48,2.712-.5,2.717-.49,2.732-.494,2.727-.5,2.761h.989l.974-.015.974-.019h.974l.96-.029.96-.015.974-.015.957-.015.977-.017.96-.015.972-.015.96-.022.96-.015.974-.015h1.958l-.208-.288-.075-.1-.284-.371-.269-.373-.267-.366-.267-.378-.255-.388-.284-.378-.3-.373-.032-.284-.029-.3-.029-.3-.022-.3-.012-.32V306.4l-.017-.313v-.318l.017-.332.012-.327v-.332l.036-.334.044-.657.056-.657.075-.662.075-.645.09-.645.1-.616.1-.6.107-.572.107-.54.119-.507,1.2-.691.841-.482,1.932-1.226,1.813-1.272,1.714-1.321,1.6-1.365,1.481-1.4,1.4-1.454,1.3-1.5,1.183-1.549,1.1-1.585,1-1.619.914-1.68.824-1.709.734-1.738.65-1.8.562-1.828.487-1.857.388-1.908.318-1.932.252-2,.16-2.007.09-2.053.034-2.1-.032-2.1Z" transform="translate(-273.572 -196.395)" fill="url(#a)"/></g><text transform="translate(515 2986)" fill="#d6b274" font-size="36" font-family="PingFangSC-Semibold, PingFang SC" font-weight="600" letter-spacing="0.05em"><tspan x="0" y="0">高新技术企业认证</tspan></text><text transform="translate(651 3039)" fill="#d6b274" font-size="36" font-family="DINPro-Regular, DINPro"><tspan x="-136.26" y="0">GR201944003138</tspan></text></g><g transform="translate(0 -256)"><g transform="translate(814)"><g transform="translate(244 2868)" fill="#fffdf8" stroke="#d6b274" stroke-width="2"><rect width="764" height="260" rx="16" stroke="none"/><rect x="1" y="1" width="762" height="258" rx="15" fill="none"/></g><g transform="translate(6130.001 2855)" fill="#fff"><path d="M -5176.82958984375 256.9995727539062 L -5830.17138671875 256.9995727539062 C -5830.0576171875 255.839111328125 -5830.00048828125 254.666259765625 -5830.00048828125 253.4996490478516 C -5830.00048828125 248.7076568603516 -5830.93896484375 244.0585632324219 -5832.79052734375 239.6813812255859 C -5834.57861328125 235.4532012939453 -5837.13818359375 231.6569213867188 -5840.39794921875 228.3979187011719 C -5843.65771484375 225.1381988525391 -5847.4541015625 222.5787353515625 -5851.68115234375 220.7907409667969 C -5856.05859375 218.9394683837891 -5860.70751953125 218.0007476806641 -5865.49951171875 218.0007476806641 C -5867.00439453125 218.0007476806641 -5868.51318359375 218.0957489013672 -5870.00048828125 218.2836761474609 L -5870.00048828125 68.71690368652344 C -5868.5126953125 68.9049072265625 -5867.00390625 68.99992370605469 -5865.49951171875 68.99992370605469 C -5860.70751953125 68.99992370605469 -5856.05859375 68.06110382080078 -5851.68115234375 66.20964813232422 C -5847.4541015625 64.42165374755859 -5843.65771484375 61.86201477050781 -5840.39794921875 58.60192489624023 C -5837.13818359375 55.34283065795898 -5834.57861328125 51.54637908935547 -5832.79052734375 47.31801223754883 C -5830.93896484375 42.94065093994141 -5830.00048828125 38.29146957397461 -5830.00048828125 33.49946975708008 C -5830.00048828125 31.99441337585449 -5830.09521484375 30.48579788208008 -5830.283203125 29.00019645690918 L -5176.7177734375 29.00019645690918 C -5176.9052734375 30.4871654510498 -5177.00048828125 31.99560928344727 -5177.00048828125 33.49946975708008 C -5177.00048828125 38.29210662841797 -5176.0615234375 42.94137573242188 -5174.2099609375 47.3181037902832 C -5172.42138671875 51.54592132568359 -5169.86181640625 55.34237670898438 -5166.60205078125 58.60192489624023 C -5163.3427734375 61.8615608215332 -5159.54638671875 64.42119598388672 -5155.318359375 66.20964813232422 C -5150.94091796875 68.06110382080078 -5146.2919921875 68.99992370605469 -5141.5 68.99992370605469 C -5140.33349609375 68.99992370605469 -5139.1611328125 68.94259643554688 -5138.00048828125 68.82917785644531 L -5138.00048828125 218.1714172363281 C -5139.16064453125 218.0580444335938 -5140.3330078125 218.0007476806641 -5141.5 218.0007476806641 C -5146.2919921875 218.0007476806641 -5150.94091796875 218.9394683837891 -5155.318359375 220.7907409667969 C -5159.5458984375 222.5787353515625 -5163.3427734375 225.1381988525391 -5166.60205078125 228.3980102539062 C -5169.86181640625 231.6571960449219 -5172.42138671875 235.4534759521484 -5174.2099609375 239.6812896728516 C -5176.0615234375 244.0578308105469 -5177.00048828125 248.7070159912109 -5177.00048828125 253.4996490478516 C -5177.00048828125 254.6665802001953 -5176.943359375 255.8393707275391 -5176.82958984375 256.9995727539062 Z" stroke="none"/><path d="M -5177.91552734375 255.9995574951172 C -5177.97216796875 255.1675720214844 -5178.00048828125 254.3320617675781 -5178.00048828125 253.4996490478516 C -5178.00048828125 248.5723724365234 -5177.03515625 243.7920989990234 -5175.130859375 239.291748046875 C -5173.2919921875 234.9446563720703 -5170.66015625 231.0415649414062 -5167.30908203125 227.69091796875 C -5163.9580078125 224.3396453857422 -5160.0546875 221.7081909179688 -5155.70751953125 219.8697357177734 C -5151.20654296875 217.9660186767578 -5146.42626953125 217.0007476806641 -5141.5 217.0007476806641 C -5140.66748046875 217.0007476806641 -5139.83251953125 217.0291137695312 -5139.00048828125 217.08544921875 L -5139.00048828125 69.91517639160156 C -5139.83251953125 69.97154235839844 -5140.66796875 69.99992370605469 -5141.5 69.99992370605469 C -5146.42626953125 69.99992370605469 -5151.20654296875 69.03456115722656 -5155.7080078125 67.13065338134766 C -5160.05517578125 65.29174041748047 -5163.95849609375 62.66019439697266 -5167.30908203125 59.30910491943359 C -5170.66064453125 55.95801544189453 -5173.2919921875 52.05474090576172 -5175.130859375 47.70774078369141 C -5177.03515625 43.20701217651367 -5178.00048828125 38.42674255371094 -5178.00048828125 33.49946975708008 C -5178.00048828125 32.33194351196289 -5177.94482421875 31.16174507141113 -5177.83447265625 30.00019645690918 L -5829.16650390625 30.00019645690918 C -5829.05615234375 31.16097640991211 -5829.00048828125 32.33123397827148 -5829.00048828125 33.49946975708008 C -5829.00048828125 38.4260139465332 -5829.9658203125 43.2062873840332 -5831.86962890625 47.70755767822266 C -5833.70849609375 52.05519485473633 -5836.33984375 55.95846939086914 -5839.6904296875 59.30901336669922 C -5843.0419921875 62.66065216064453 -5846.9453125 65.29228973388672 -5851.29150390625 67.13065338134766 C -5855.79296875 69.03456115722656 -5860.5732421875 69.99992370605469 -5865.49951171875 69.99992370605469 C -5866.66748046875 69.99992370605469 -5867.83837890625 69.94416809082031 -5869.00048828125 69.83359527587891 L -5869.00048828125 217.1670074462891 C -5867.8388671875 217.0564880371094 -5866.66748046875 217.0007476806641 -5865.49951171875 217.0007476806641 C -5860.5732421875 217.0007476806641 -5855.79296875 217.9660186767578 -5851.29150390625 219.8697357177734 C -5846.9453125 221.7081909179688 -5843.0419921875 224.3395538330078 -5839.69091796875 227.6907348632812 C -5836.33984375 231.0411987304688 -5833.70849609375 234.9443817138672 -5831.86962890625 239.2918395996094 C -5829.9658203125 243.7929229736328 -5829.00048828125 248.5731048583984 -5829.00048828125 253.4996490478516 C -5829.00048828125 254.3319702148438 -5829.02880859375 255.1673889160156 -5829.08544921875 255.9995574951172 L -5177.91552734375 255.9995574951172 M -5175.708984375 257.9995727539062 L -5175.70947265625 257.9995727539062 L -5831.29150390625 257.9995727539062 C -5831.0986328125 256.5185546875 -5831.00048828125 255.0049285888672 -5831.00048828125 253.4996490478516 C -5831.00048828125 248.8421936035156 -5831.91259765625 244.3241119384766 -5833.71142578125 240.0709228515625 C -5835.44921875 235.9624633789062 -5837.9365234375 232.2730102539062 -5841.10498046875 229.1051025390625 C -5844.2734375 225.9367370605469 -5847.962890625 223.4492797851562 -5852.07080078125 221.7117462158203 C -5856.32421875 219.9128265380859 -5860.84228515625 219.0007476806641 -5865.49951171875 219.0007476806641 C -5867.34375 219.0007476806641 -5869.1943359375 219.1474609375 -5871.00048828125 219.4369201660156 L -5871.00048828125 67.56365203857422 C -5869.19580078125 67.85282897949219 -5867.345703125 67.99992370605469 -5865.49951171875 67.99992370605469 C -5860.84228515625 67.99992370605469 -5856.32421875 67.08773803710938 -5852.07080078125 65.28865051269531 C -5847.962890625 63.55110549926758 -5844.2734375 61.06346893310547 -5841.10498046875 57.89483261108398 C -5837.9365234375 54.72674179077148 -5835.44921875 51.03710556030273 -5833.71142578125 46.928466796875 C -5831.91259765625 42.67510604858398 -5831.00048828125 38.15692138671875 -5831.00048828125 33.49946975708008 C -5831.00048828125 31.65574073791504 -5831.14697265625 29.8055591583252 -5831.4365234375 28.00019645690918 L -5175.564453125 28.00019645690918 C -5175.853515625 29.80446815490723 -5176.00048828125 31.65428733825684 -5176.00048828125 33.49946975708008 C -5176.00048828125 38.1571044921875 -5175.08837890625 42.67528533935547 -5173.2890625 46.928466796875 C -5171.55126953125 51.03656005859375 -5169.06396484375 54.72610473632812 -5165.89501953125 57.89483261108398 C -5162.72705078125 61.06319427490234 -5159.037109375 63.55083084106445 -5154.9287109375 65.28865051269531 C -5150.67529296875 67.08773803710938 -5146.1572265625 67.99992370605469 -5141.5 67.99992370605469 C -5139.9970703125 67.99992370605469 -5138.48291015625 67.90201568603516 -5137.00048828125 67.70892333984375 L -5137.00048828125 219.2916564941406 C -5138.47998046875 219.0989227294922 -5139.99365234375 219.0007476806641 -5141.5 219.0007476806641 C -5146.1572265625 219.0007476806641 -5150.67529296875 219.9128265380859 -5154.9287109375 221.7117462158203 C -5159.03759765625 223.449462890625 -5162.72705078125 225.9369201660156 -5165.89501953125 229.1051025390625 C -5169.06396484375 232.2735595703125 -5171.55126953125 235.9629211425781 -5173.2890625 240.0709228515625 C -5175.08837890625 244.3239288330078 -5176.00048828125 248.8420104980469 -5176.00048828125 253.4996490478516 C -5176.00048828125 255.00537109375 -5175.90234375 256.5190124511719 -5175.70947265625 257.9984741210938 L -5175.708984375 257.9995727539062 Z" stroke="none" fill="#fdf4dc"/></g></g><line y2="83" transform="translate(1270.5 2956.5)" fill="none" stroke="#bc9a5b" stroke-width="2"/><text transform="translate(1329 2986)" fill="#d6b274" font-size="36" font-family="PingFangSC-Semibold, PingFang SC" font-weight="600" letter-spacing="0.05em"><tspan x="0" y="0">具备完全自主知识产权</tspan><tspan x="0" y="50">拥有30余项软著和专利</tspan></text><path d="M58.99,16.954c-.378-.507-.577,0-.577,0L47.4,107.369l11.885.249ZM39.418,88.732l-.836-5.454-2.916,4.469-5.906-.176,3.756,3.948-2.359,5.2,5.279-2.684L40.383,97.8l-.272-5.653,5.136-2.323L39.415,88.74ZM49.683,55.1l-5.972,1.878-2.77-5.275-1.8,7.528-6.39,3.311,5.07,1.168L36.638,71.34l4.927-6.373,5.833,1.8-2.083-5.929ZM22.262,67.747l-3.325,4.486-4.307.713,2.631,2.873L14.84,80.753l4.3-3.4,3.043,2.963.213-4.751,3.752-3.049L22.2,72.326l.066-4.579ZM30.185,52.24l1.941-2.425-2.5.63-1.321-2.336L27.118,51.7l-3.251,1.613,2.219.544-.554,3.225,2.634-2.956L30.8,55.1S30.185,52.24,30.185,52.24Zm11.38-12.734,1.254.723.558-1.8L45.31,36.9l-1.523-.266V35.2l-1.6,1.891-2.153.361.763,1.423-1.321,1.884s2.087-1.25,2.087-1.25Zm54.1-13.351S86.4,20.236,68.867,24.39c0,0,22.4-2.137,28.056,14.986,0,0,3.9,17.372-9.446,30.723,0,0-9.652,10.71-16.088,13.348l-8.57-68.364s-.68-1.128-.68.634v90.908s10.425-3.65,11.4-5.422L72.172,89.877s28.649-14.359,34.492-38.152c0,0,5.454-17.5-11.005-25.56v-.007Z" transform="translate(1104.47 2937.272)" fill="url(#a)"/></g><g transform="translate(0 -256)"><g transform="translate(1628)"><g transform="translate(244 2868)" fill="#fffdf8" stroke="#d6b274" stroke-width="2"><rect width="764" height="260" rx="16" stroke="none"/><rect x="1" y="1" width="762" height="258" rx="15" fill="none"/></g><g transform="translate(6130.001 2855)" fill="#fff"><path d="M -5176.82958984375 256.9995727539062 L -5830.17138671875 256.9995727539062 C -5830.0576171875 255.839111328125 -5830.00048828125 254.666259765625 -5830.00048828125 253.4996490478516 C -5830.00048828125 248.7076568603516 -5830.93896484375 244.0585632324219 -5832.79052734375 239.6813812255859 C -5834.57861328125 235.4532012939453 -5837.13818359375 231.6569213867188 -5840.39794921875 228.3979187011719 C -5843.65771484375 225.1381988525391 -5847.4541015625 222.5787353515625 -5851.68115234375 220.7907409667969 C -5856.05859375 218.9394683837891 -5860.70751953125 218.0007476806641 -5865.49951171875 218.0007476806641 C -5867.00439453125 218.0007476806641 -5868.51318359375 218.0957489013672 -5870.00048828125 218.2836761474609 L -5870.00048828125 68.71690368652344 C -5868.5126953125 68.9049072265625 -5867.00390625 68.99992370605469 -5865.49951171875 68.99992370605469 C -5860.70751953125 68.99992370605469 -5856.05859375 68.06110382080078 -5851.68115234375 66.20964813232422 C -5847.4541015625 64.42165374755859 -5843.65771484375 61.86201477050781 -5840.39794921875 58.60192489624023 C -5837.13818359375 55.34283065795898 -5834.57861328125 51.54637908935547 -5832.79052734375 47.31801223754883 C -5830.93896484375 42.94065093994141 -5830.00048828125 38.29146957397461 -5830.00048828125 33.49946975708008 C -5830.00048828125 31.99441337585449 -5830.09521484375 30.48579788208008 -5830.283203125 29.00019645690918 L -5176.7177734375 29.00019645690918 C -5176.9052734375 30.4871654510498 -5177.00048828125 31.99560928344727 -5177.00048828125 33.49946975708008 C -5177.00048828125 38.29210662841797 -5176.0615234375 42.94137573242188 -5174.2099609375 47.3181037902832 C -5172.42138671875 51.54592132568359 -5169.86181640625 55.34237670898438 -5166.60205078125 58.60192489624023 C -5163.3427734375 61.8615608215332 -5159.54638671875 64.42119598388672 -5155.318359375 66.20964813232422 C -5150.94091796875 68.06110382080078 -5146.2919921875 68.99992370605469 -5141.5 68.99992370605469 C -5140.33349609375 68.99992370605469 -5139.1611328125 68.94259643554688 -5138.00048828125 68.82917785644531 L -5138.00048828125 218.1714172363281 C -5139.16064453125 218.0580444335938 -5140.3330078125 218.0007476806641 -5141.5 218.0007476806641 C -5146.2919921875 218.0007476806641 -5150.94091796875 218.9394683837891 -5155.318359375 220.7907409667969 C -5159.5458984375 222.5787353515625 -5163.3427734375 225.1381988525391 -5166.60205078125 228.3980102539062 C -5169.86181640625 231.6571960449219 -5172.42138671875 235.4534759521484 -5174.2099609375 239.6812896728516 C -5176.0615234375 244.0578308105469 -5177.00048828125 248.7070159912109 -5177.00048828125 253.4996490478516 C -5177.00048828125 254.6665802001953 -5176.943359375 255.8393707275391 -5176.82958984375 256.9995727539062 Z" stroke="none"/><path d="M -5177.91552734375 255.9995574951172 C -5177.97216796875 255.1675720214844 -5178.00048828125 254.3320617675781 -5178.00048828125 253.4996490478516 C -5178.00048828125 248.5723724365234 -5177.03515625 243.7920989990234 -5175.130859375 239.291748046875 C -5173.2919921875 234.9446563720703 -5170.66015625 231.0415649414062 -5167.30908203125 227.69091796875 C -5163.9580078125 224.3396453857422 -5160.0546875 221.7081909179688 -5155.70751953125 219.8697357177734 C -5151.20654296875 217.9660186767578 -5146.42626953125 217.0007476806641 -5141.5 217.0007476806641 C -5140.66748046875 217.0007476806641 -5139.83251953125 217.0291137695312 -5139.00048828125 217.08544921875 L -5139.00048828125 69.91517639160156 C -5139.83251953125 69.97154235839844 -5140.66796875 69.99992370605469 -5141.5 69.99992370605469 C -5146.42626953125 69.99992370605469 -5151.20654296875 69.03456115722656 -5155.7080078125 67.13065338134766 C -5160.05517578125 65.29174041748047 -5163.95849609375 62.66019439697266 -5167.30908203125 59.30910491943359 C -5170.66064453125 55.95801544189453 -5173.2919921875 52.05474090576172 -5175.130859375 47.70774078369141 C -5177.03515625 43.20701217651367 -5178.00048828125 38.42674255371094 -5178.00048828125 33.49946975708008 C -5178.00048828125 32.33194351196289 -5177.94482421875 31.16174507141113 -5177.83447265625 30.00019645690918 L -5829.16650390625 30.00019645690918 C -5829.05615234375 31.16097640991211 -5829.00048828125 32.33123397827148 -5829.00048828125 33.49946975708008 C -5829.00048828125 38.4260139465332 -5829.9658203125 43.2062873840332 -5831.86962890625 47.70755767822266 C -5833.70849609375 52.05519485473633 -5836.33984375 55.95846939086914 -5839.6904296875 59.30901336669922 C -5843.0419921875 62.66065216064453 -5846.9453125 65.29228973388672 -5851.29150390625 67.13065338134766 C -5855.79296875 69.03456115722656 -5860.5732421875 69.99992370605469 -5865.49951171875 69.99992370605469 C -5866.66748046875 69.99992370605469 -5867.83837890625 69.94416809082031 -5869.00048828125 69.83359527587891 L -5869.00048828125 217.1670074462891 C -5867.8388671875 217.0564880371094 -5866.66748046875 217.0007476806641 -5865.49951171875 217.0007476806641 C -5860.5732421875 217.0007476806641 -5855.79296875 217.9660186767578 -5851.29150390625 219.8697357177734 C -5846.9453125 221.7081909179688 -5843.0419921875 224.3395538330078 -5839.69091796875 227.6907348632812 C -5836.33984375 231.0411987304688 -5833.70849609375 234.9443817138672 -5831.86962890625 239.2918395996094 C -5829.9658203125 243.7929229736328 -5829.00048828125 248.5731048583984 -5829.00048828125 253.4996490478516 C -5829.00048828125 254.3319702148438 -5829.02880859375 255.1673889160156 -5829.08544921875 255.9995574951172 L -5177.91552734375 255.9995574951172 M -5175.708984375 257.9995727539062 L -5175.70947265625 257.9995727539062 L -5831.29150390625 257.9995727539062 C -5831.0986328125 256.5185546875 -5831.00048828125 255.0049285888672 -5831.00048828125 253.4996490478516 C -5831.00048828125 248.8421936035156 -5831.91259765625 244.3241119384766 -5833.71142578125 240.0709228515625 C -5835.44921875 235.9624633789062 -5837.9365234375 232.2730102539062 -5841.10498046875 229.1051025390625 C -5844.2734375 225.9367370605469 -5847.962890625 223.4492797851562 -5852.07080078125 221.7117462158203 C -5856.32421875 219.9128265380859 -5860.84228515625 219.0007476806641 -5865.49951171875 219.0007476806641 C -5867.34375 219.0007476806641 -5869.1943359375 219.1474609375 -5871.00048828125 219.4369201660156 L -5871.00048828125 67.56365203857422 C -5869.19580078125 67.85282897949219 -5867.345703125 67.99992370605469 -5865.49951171875 67.99992370605469 C -5860.84228515625 67.99992370605469 -5856.32421875 67.08773803710938 -5852.07080078125 65.28865051269531 C -5847.962890625 63.55110549926758 -5844.2734375 61.06346893310547 -5841.10498046875 57.89483261108398 C -5837.9365234375 54.72674179077148 -5835.44921875 51.03710556030273 -5833.71142578125 46.928466796875 C -5831.91259765625 42.67510604858398 -5831.00048828125 38.15692138671875 -5831.00048828125 33.49946975708008 C -5831.00048828125 31.65574073791504 -5831.14697265625 29.8055591583252 -5831.4365234375 28.00019645690918 L -5175.564453125 28.00019645690918 C -5175.853515625 29.80446815490723 -5176.00048828125 31.65428733825684 -5176.00048828125 33.49946975708008 C -5176.00048828125 38.1571044921875 -5175.08837890625 42.67528533935547 -5173.2890625 46.928466796875 C -5171.55126953125 51.03656005859375 -5169.06396484375 54.72610473632812 -5165.89501953125 57.89483261108398 C -5162.72705078125 61.06319427490234 -5159.037109375 63.55083084106445 -5154.9287109375 65.28865051269531 C -5150.67529296875 67.08773803710938 -5146.1572265625 67.99992370605469 -5141.5 67.99992370605469 C -5139.9970703125 67.99992370605469 -5138.48291015625 67.90201568603516 -5137.00048828125 67.70892333984375 L -5137.00048828125 219.2916564941406 C -5138.47998046875 219.0989227294922 -5139.99365234375 219.0007476806641 -5141.5 219.0007476806641 C -5146.1572265625 219.0007476806641 -5150.67529296875 219.9128265380859 -5154.9287109375 221.7117462158203 C -5159.03759765625 223.449462890625 -5162.72705078125 225.9369201660156 -5165.89501953125 229.1051025390625 C -5169.06396484375 232.2735595703125 -5171.55126953125 235.9629211425781 -5173.2890625 240.0709228515625 C -5175.08837890625 244.3239288330078 -5176.00048828125 248.8420104980469 -5176.00048828125 253.4996490478516 C -5176.00048828125 255.00537109375 -5175.90234375 256.5190124511719 -5175.70947265625 257.9984741210938 L -5175.708984375 257.9995727539062 Z" stroke="none" fill="#fdf4dc"/></g></g><g transform="translate(1938.022 2951)"><path d="M84.336,149.144Zm-.457-.844a.316.316,0,0,0,.088.123.317.317,0,0,1-.088-.123Zm3.237,7.018a21.107,21.107,0,0,1-2.375-2.5.193.193,0,0,0,0,.088l-5.629,33.3c-2.3,13.667-22.339,23.606-28.531,26.156a4.573,4.573,0,0,1-3.342,0c-6.192-2.551-26.227-12.489-28.531-26.156l-5.576-33.3a.352.352,0,0,0,0-.123,15.833,15.833,0,0,1-1.759,1.759c-8.3,6.631-8.795,38.17-8.795,38.17s3.782,1.759,7.581,8.408a6.491,6.491,0,0,0,3.395,2.99l-1.759,6.209a44.432,44.432,0,0,1,6.438,4.169l-.756,1.671L49.138,228.07l31.117-11.908-1.161-2.551a41.336,41.336,0,0,1,6.016-3.8l-1.425-5.171a6.561,6.561,0,0,0,2.744-2.726,48.354,48.354,0,0,1,7.616-10.2S95.189,161.826,87.115,155.318ZM38.813,209.97Z" transform="translate(0 -134.79)" fill="url(#a)"/><path d="M217.432,14.951c-8.689-4.4-26.983-12.718-32-14.951-5,2.234-23.307,10.554-31.873,14.9-.457.193-.967,1.161-.7,2.656l5.594,33.333c1.759,10.888,18.206,20.3,26.6,23.746a1.337,1.337,0,0,0,.475,0,1.759,1.759,0,0,0,.457,0c8.408-3.518,24.784-12.876,26.631-23.764l5.523-33.28C218.382,16.112,217.872,15.145,217.432,14.951ZM170.907,33.263l-2.85-1.513-2.867,1.513.545-3.184-2.3-2.252,3.184-.475,1.442-2.885,1.425,2.885,3.184.475-2.3,2.252Zm9.674,11.891L177.8,43.641l-2.867,1.513.545-3.184-2.3-2.252,3.2-.475,1.425-2.885,1.425,2.885,3.2.475-2.322,2.252Zm4.837-15.831L179.1,32.647l1.214-7.036-5.1-4.96,7.036-1.038,3.149-6.385,3.149,6.385,7.036,1.038-5.1,4.96,1.2,7.036Zm9.727,15.831-2.867-1.513-2.85,1.513.545-3.184-2.322-2.252,3.2-.475,1.425-2.885,1.354,2.885,3.2.475-2.3,2.252ZM205.7,33.263l-2.85-1.513-2.867,1.513.545-3.184-2.322-2.252,3.184-.475,1.442-2.885,1.354,2.885,3.184.475-2.234,2.252Z" transform="translate(-136.527)" fill="url(#a)"/></g><line y2="83" transform="translate(2084.5 2956.5)" fill="none" stroke="#bc9a5b" stroke-width="2"/><text transform="translate(2143 3011)" fill="#d6b274" font-size="36" font-family="PingFangSC-Semibold, PingFang SC" font-weight="600" letter-spacing="0.05em"><tspan x="0" y="0">2020年守合同重信用企业</tspan></text></g><g transform="translate(0 -256)"><g transform="translate(1872 2539)" fill="#e7f0fc" stroke="#aacdf0" stroke-width="2"><rect width="764" height="260" rx="16" stroke="none"/><rect x="1" y="1" width="762" height="258" rx="15" fill="none"/></g><g transform="translate(7758.001 2526)" fill="#fff"><path d="M -5176.82958984375 256.9995727539062 L -5830.17138671875 256.9995727539062 C -5830.0576171875 255.839111328125 -5830.00048828125 254.666259765625 -5830.00048828125 253.4996490478516 C -5830.00048828125 248.7076568603516 -5830.93896484375 244.0585632324219 -5832.79052734375 239.6813812255859 C -5834.57861328125 235.4532012939453 -5837.13818359375 231.6569213867188 -5840.39794921875 228.3979187011719 C -5843.65771484375 225.1381988525391 -5847.4541015625 222.5787353515625 -5851.68115234375 220.7907409667969 C -5856.05859375 218.9394683837891 -5860.70751953125 218.0007476806641 -5865.49951171875 218.0007476806641 C -5867.00439453125 218.0007476806641 -5868.51318359375 218.0957489013672 -5870.00048828125 218.2836761474609 L -5870.00048828125 68.71690368652344 C -5868.5126953125 68.9049072265625 -5867.00390625 68.99992370605469 -5865.49951171875 68.99992370605469 C -5860.70751953125 68.99992370605469 -5856.05859375 68.06110382080078 -5851.68115234375 66.20964813232422 C -5847.4541015625 64.42165374755859 -5843.65771484375 61.86201477050781 -5840.39794921875 58.60192489624023 C -5837.13818359375 55.34283065795898 -5834.57861328125 51.54637908935547 -5832.79052734375 47.31801223754883 C -5830.93896484375 42.94065093994141 -5830.00048828125 38.29146957397461 -5830.00048828125 33.49946975708008 C -5830.00048828125 31.99441337585449 -5830.09521484375 30.48579788208008 -5830.283203125 29.00019645690918 L -5176.7177734375 29.00019645690918 C -5176.9052734375 30.4871654510498 -5177.00048828125 31.99560928344727 -5177.00048828125 33.49946975708008 C -5177.00048828125 38.29210662841797 -5176.0615234375 42.94137573242188 -5174.2099609375 47.3181037902832 C -5172.42138671875 51.54592132568359 -5169.86181640625 55.34237670898438 -5166.60205078125 58.60192489624023 C -5163.3427734375 61.8615608215332 -5159.54638671875 64.42119598388672 -5155.318359375 66.20964813232422 C -5150.94091796875 68.06110382080078 -5146.2919921875 68.99992370605469 -5141.5 68.99992370605469 C -5140.33349609375 68.99992370605469 -5139.1611328125 68.94259643554688 -5138.00048828125 68.82917785644531 L -5138.00048828125 218.1714172363281 C -5139.16064453125 218.0580444335938 -5140.3330078125 218.0007476806641 -5141.5 218.0007476806641 C -5146.2919921875 218.0007476806641 -5150.94091796875 218.9394683837891 -5155.318359375 220.7907409667969 C -5159.5458984375 222.5787353515625 -5163.3427734375 225.1381988525391 -5166.60205078125 228.3980102539062 C -5169.86181640625 231.6571960449219 -5172.42138671875 235.4534759521484 -5174.2099609375 239.6812896728516 C -5176.0615234375 244.0578308105469 -5177.00048828125 248.7070159912109 -5177.00048828125 253.4996490478516 C -5177.00048828125 254.6665802001953 -5176.943359375 255.8393707275391 -5176.82958984375 256.9995727539062 Z" stroke="none"/><path d="M -5177.91552734375 255.9995574951172 C -5177.97216796875 255.1675720214844 -5178.00048828125 254.3320617675781 -5178.00048828125 253.4996490478516 C -5178.00048828125 248.5723724365234 -5177.03515625 243.7920989990234 -5175.130859375 239.291748046875 C -5173.2919921875 234.9446563720703 -5170.66015625 231.0415649414062 -5167.30908203125 227.69091796875 C -5163.9580078125 224.3396453857422 -5160.0546875 221.7081909179688 -5155.70751953125 219.8697357177734 C -5151.20654296875 217.9660186767578 -5146.42626953125 217.0007476806641 -5141.5 217.0007476806641 C -5140.66748046875 217.0007476806641 -5139.83251953125 217.0291137695312 -5139.00048828125 217.08544921875 L -5139.00048828125 69.91517639160156 C -5139.83251953125 69.97154235839844 -5140.66796875 69.99992370605469 -5141.5 69.99992370605469 C -5146.42626953125 69.99992370605469 -5151.20654296875 69.03456115722656 -5155.7080078125 67.13065338134766 C -5160.05517578125 65.29174041748047 -5163.95849609375 62.66019439697266 -5167.30908203125 59.30910491943359 C -5170.66064453125 55.95801544189453 -5173.2919921875 52.05474090576172 -5175.130859375 47.70774078369141 C -5177.03515625 43.20701217651367 -5178.00048828125 38.42674255371094 -5178.00048828125 33.49946975708008 C -5178.00048828125 32.33194351196289 -5177.94482421875 31.16174507141113 -5177.83447265625 30.00019645690918 L -5829.16650390625 30.00019645690918 C -5829.05615234375 31.16097640991211 -5829.00048828125 32.33123397827148 -5829.00048828125 33.49946975708008 C -5829.00048828125 38.4260139465332 -5829.9658203125 43.2062873840332 -5831.86962890625 47.70755767822266 C -5833.70849609375 52.05519485473633 -5836.33984375 55.95846939086914 -5839.6904296875 59.30901336669922 C -5843.0419921875 62.66065216064453 -5846.9453125 65.29228973388672 -5851.29150390625 67.13065338134766 C -5855.79296875 69.03456115722656 -5860.5732421875 69.99992370605469 -5865.49951171875 69.99992370605469 C -5866.66748046875 69.99992370605469 -5867.83837890625 69.94416809082031 -5869.00048828125 69.83359527587891 L -5869.00048828125 217.1670074462891 C -5867.8388671875 217.0564880371094 -5866.66748046875 217.0007476806641 -5865.49951171875 217.0007476806641 C -5860.5732421875 217.0007476806641 -5855.79296875 217.9660186767578 -5851.29150390625 219.8697357177734 C -5846.9453125 221.7081909179688 -5843.0419921875 224.3395538330078 -5839.69091796875 227.6907348632812 C -5836.33984375 231.0411987304688 -5833.70849609375 234.9443817138672 -5831.86962890625 239.2918395996094 C -5829.9658203125 243.7929229736328 -5829.00048828125 248.5731048583984 -5829.00048828125 253.4996490478516 C -5829.00048828125 254.3319702148438 -5829.02880859375 255.1673889160156 -5829.08544921875 255.9995574951172 L -5177.91552734375 255.9995574951172 M -5175.708984375 257.9995727539062 L -5175.70947265625 257.9995727539062 L -5831.29150390625 257.9995727539062 C -5831.0986328125 256.5185546875 -5831.00048828125 255.0049285888672 -5831.00048828125 253.4996490478516 C -5831.00048828125 248.8421936035156 -5831.91259765625 244.3241119384766 -5833.71142578125 240.0709228515625 C -5835.44921875 235.9624633789062 -5837.9365234375 232.2730102539062 -5841.10498046875 229.1051025390625 C -5844.2734375 225.9367370605469 -5847.962890625 223.4492797851562 -5852.07080078125 221.7117462158203 C -5856.32421875 219.9128265380859 -5860.84228515625 219.0007476806641 -5865.49951171875 219.0007476806641 C -5867.34375 219.0007476806641 -5869.1943359375 219.1474609375 -5871.00048828125 219.4369201660156 L -5871.00048828125 67.56365203857422 C -5869.19580078125 67.85282897949219 -5867.345703125 67.99992370605469 -5865.49951171875 67.99992370605469 C -5860.84228515625 67.99992370605469 -5856.32421875 67.08773803710938 -5852.07080078125 65.28865051269531 C -5847.962890625 63.55110549926758 -5844.2734375 61.06346893310547 -5841.10498046875 57.89483261108398 C -5837.9365234375 54.72674179077148 -5835.44921875 51.03710556030273 -5833.71142578125 46.928466796875 C -5831.91259765625 42.67510604858398 -5831.00048828125 38.15692138671875 -5831.00048828125 33.49946975708008 C -5831.00048828125 31.65574073791504 -5831.14697265625 29.8055591583252 -5831.4365234375 28.00019645690918 L -5175.564453125 28.00019645690918 C -5175.853515625 29.80446815490723 -5176.00048828125 31.65428733825684 -5176.00048828125 33.49946975708008 C -5176.00048828125 38.1571044921875 -5175.08837890625 42.67528533935547 -5173.2890625 46.928466796875 C -5171.55126953125 51.03656005859375 -5169.06396484375 54.72610473632812 -5165.89501953125 57.89483261108398 C -5162.72705078125 61.06319427490234 -5159.037109375 63.55083084106445 -5154.9287109375 65.28865051269531 C -5150.67529296875 67.08773803710938 -5146.1572265625 67.99992370605469 -5141.5 67.99992370605469 C -5139.9970703125 67.99992370605469 -5138.48291015625 67.90201568603516 -5137.00048828125 67.70892333984375 L -5137.00048828125 219.2916564941406 C -5138.47998046875 219.0989227294922 -5139.99365234375 219.0007476806641 -5141.5 219.0007476806641 C -5146.1572265625 219.0007476806641 -5150.67529296875 219.9128265380859 -5154.9287109375 221.7117462158203 C -5159.03759765625 223.449462890625 -5162.72705078125 225.9369201660156 -5165.89501953125 229.1051025390625 C -5169.06396484375 232.2735595703125 -5171.55126953125 235.9629211425781 -5173.2890625 240.0709228515625 C -5175.08837890625 244.3239288330078 -5176.00048828125 248.8420104980469 -5176.00048828125 253.4996490478516 C -5176.00048828125 255.00537109375 -5175.90234375 256.5190124511719 -5175.70947265625 257.9984741210938 L -5175.708984375 257.9995727539062 Z" stroke="none" fill="#d1e8fe"/></g><text transform="translate(2143 2682)" fill="#333f51" font-size="36" font-family="PingFangSC-Semibold, PingFang SC" font-weight="600" letter-spacing="0.05em"><tspan x="0" y="0">字节跳动小程序内测伙伴</tspan></text><line y2="83" transform="translate(2084.5 2627.5)" fill="none" stroke="#dce3f2" stroke-width="2"/><g transform="translate(1940.576 2632)"><path d="M0,121.391,14.444,117.7V58.4L0,54.711Z" transform="translate(0 -50.717)" fill="#2d59c6"/><path d="M968.216,0V74.361l14.75-3.687V3.994Z" transform="translate(-897.542)" fill="#76e0d6"/><path d="M648.29,332.05l14.75-3.687v39.024L648.29,363.7Z" transform="translate(-600.968 -304.394)" fill="#26cdd5"/><path d="M315.733,458.85l14.75,3.687v31.65l-14.75,3.994Z" transform="translate(-292.687 -425.356)" fill="#318ede"/></g></g></g></svg>