<svg xmlns="http://www.w3.org/2000/svg" width="34" height="34" viewBox="0 0 34 34">
  <defs>
    <style>
      .cls-1 {
        fill: #f7f9fe;
      }

      .cls-2 {
        fill: #797fa9;
      }
    </style>
  </defs>
  <g id="组_3570" data-name="组 3570" transform="translate(-290 -5692)">
    <circle id="椭圆_143" data-name="椭圆 143" class="cls-1" cx="17" cy="17" r="17" transform="translate(290 5692)"/>
    <path id="电话" class="cls-2" d="M105.871,102.326l-1.913,1.948a10.543,10.543,0,0,0,5.559,5.5l1.655-1.648a36.615,36.615,0,0,1,4.8,1.111,1.968,1.968,0,0,1,.9,2.2,4.452,4.452,0,0,1-4.124,3.516c-2.57.026-6.355-1.911-9.066-4.766s-5.129-6.481-4.74-9.555a4.1,4.1,0,0,1,3.733-3.677,1.772,1.772,0,0,1,1.624.654C104.823,98.271,105.871,102.326,105.871,102.326Z" transform="translate(199.102 5603.045)"/>
  </g>
</svg>
