<svg xmlns="http://www.w3.org/2000/svg" xmlns:xlink="http://www.w3.org/1999/xlink" width="107" height="107" viewBox="0 0 107 107">
  <defs>
    <style>
      .cls-1 {
        fill: url(#linear-gradient);
      }

      .cls-2 {
        fill: #d7e2fe;
      }
    </style>
    <linearGradient id="linear-gradient" x1="0.5" x2="0.5" y2="1" gradientUnits="objectBoundingBox">
      <stop offset="0" stop-color="#316cfb"/>
      <stop offset="1" stop-color="#1855f7"/>
    </linearGradient>
  </defs>
  <g id="组_594" data-name="组 594" transform="translate(-304 -1947)">
    <path id="路径_383" data-name="路径 383" class="cls-1" d="M0,61.241a7.086,7.086,0,0,1,2.119-5.27A6.9,6.9,0,0,1,7.278,53.8H14.5V87.7H7.278a6.9,6.9,0,0,1-5.161-2.173A7.17,7.17,0,0,1,0,80.255V61.241Z" transform="translate(304.005 1921.587)"/>
    <path id="路径_384" data-name="路径 384" class="cls-1" d="M98.01,5.457A16.074,16.074,0,0,1,106.915.121a8.546,8.546,0,0,1,7.039,2.188,20.988,20.988,0,0,1,5.172,7.844,71.912,71.912,0,0,1,3.519,11.525,125.858,125.858,0,0,1,2.026,13.339c.427,4.642.64,9.071.64,13.339a90.286,90.286,0,0,1-.853,12.592,81.4,81.4,0,0,1-2.506,11.792,58.371,58.371,0,0,1-3.839,9.711,17.736,17.736,0,0,1-4.906,6.136,6.982,6.982,0,0,1-5.812,1.441,11.775,11.775,0,0,1-6.506-4.429,25.584,25.584,0,0,0-8.905-6.67A76.425,76.425,0,0,0,79.72,74.5a126.351,126.351,0,0,0-13.331-2.935L53.964,69.54c-3.786-.587-6.932-1.174-9.438-1.707S40.58,66.605,40.1,65.8V28.081c.32-1.121,1.493-1.974,3.573-2.721a59.594,59.594,0,0,1,7.945-1.974c3.306-.64,7.145-1.121,10.985-2.081A110.328,110.328,0,0,0,74.974,18.21a73.088,73.088,0,0,0,12.265-4.8A45.739,45.739,0,0,0,98.01,5.457Z" transform="translate(285.688 1946.969)"/>
    <path id="路径_385" data-name="路径 385" class="cls-2" d="M57.7,142.609c.38.924.869,2.01,1.413,3.1a32.713,32.713,0,0,0,1.847,3.64c.761,1.413,1.684,2.879,2.771,4.509s2.608,3.966,3.966,6.085a32.865,32.865,0,0,1,3.042,5.813,7.273,7.273,0,0,1,.652,4.292c-.272,1.141-1.358,1.684-3.26,1.684H61.5a10.252,10.252,0,0,1-4.238-.924,11.812,11.812,0,0,1-3.749-2.771,38.735,38.735,0,0,1-3.694-4.781c-1.25-1.9-2.608-4.183-4.075-6.9a40.851,40.851,0,0,1-3.694-7.986,42.2,42.2,0,0,1-1.358-5.759,10.518,10.518,0,0,1,0-4.509,13.989,13.989,0,0,1,2.173.435l2.553.652,3.477.706c1.3.326,2.5.6,3.531.924a28.529,28.529,0,0,1,2.825.924Z" transform="translate(285.074 1882.271)"/>
  </g>
</svg>
