<svg xmlns="http://www.w3.org/2000/svg" xmlns:xlink="http://www.w3.org/1999/xlink" width="107" height="100.999" viewBox="0 0 107 100.999">
  <defs>
    <style>
      .cls-1 {
        fill: url(#linear-gradient);
      }
    </style>
    <linearGradient id="linear-gradient" x1="0.5" x2="0.5" y2="1" gradientUnits="objectBoundingBox">
      <stop offset="0" stop-color="#316cfb"/>
      <stop offset="1" stop-color="#1855f7"/>
    </linearGradient>
  </defs>
  <g id="组_581" data-name="组 581" transform="translate(-94.633 -1775.005)">
    <path id="排除_6" data-name="排除 6" class="cls-1" d="M-7261.352,283.241a23.063,23.063,0,0,1-9.768-2.529,50.6,50.6,0,0,1-10.746-7.158,50.564,50.564,0,0,1-10.747,7.158,23.049,23.049,0,0,1-9.768,2.529,12.313,12.313,0,0,1-6.235-1.578,12.111,12.111,0,0,1-4.155-4.059,19.029,19.029,0,0,1-2.419-6.127c-1.029-4.639-.95-10.523.229-17.016-6.222-2.23-11.361-5.1-14.86-8.308a19.093,19.093,0,0,1-4.1-5.156,12.1,12.1,0,0,1-1.441-5.624,12.114,12.114,0,0,1,1.441-5.626,19.116,19.116,0,0,1,4.1-5.156c3.5-3.207,8.64-6.08,14.86-8.308-1.176-6.494-1.254-12.378-.227-17.014a19.122,19.122,0,0,1,2.419-6.127,12.117,12.117,0,0,1,4.153-4.057,12.326,12.326,0,0,1,6.237-1.58,23.049,23.049,0,0,1,9.768,2.529,50.419,50.419,0,0,1,10.746,7.161,49.678,49.678,0,0,1,11.215-7.38,14,14,0,0,0,.033,6.626,42.656,42.656,0,0,0-6.848,4.8,96.3,96.3,0,0,1,9.183,10.626,96.38,96.38,0,0,1,13.8,2.627,43.226,43.226,0,0,0,.744-7.968,13.928,13.928,0,0,0,5.8-3.058,50.631,50.631,0,0,1-.841,12.811c6.223,2.228,11.364,5.1,14.866,8.308a19.045,19.045,0,0,1,4.1,5.156,12.1,12.1,0,0,1,1.439,5.626,12.1,12.1,0,0,1-1.439,5.624,19.066,19.066,0,0,1-4.1,5.156c-3.505,3.209-8.646,6.082-14.864,8.308,1.18,6.5,1.259,12.38.228,17.016a19.038,19.038,0,0,1-2.419,6.127,12.075,12.075,0,0,1-4.155,4.057A12.3,12.3,0,0,1-7261.352,283.241Zm6.817-26.567h0a93.351,93.351,0,0,1-13.771,2.73,98.539,98.539,0,0,1-9.164,11.023,40,40,0,0,0,7.949,5.582,15.648,15.648,0,0,0,6.964,1.97,7.67,7.67,0,0,0,4-1.047c2.215-1.327,3.68-3.823,4.356-7.419a36.986,36.986,0,0,0-.332-12.839Zm-56.4,0h0a36.965,36.965,0,0,0-.329,12.839c.677,3.594,2.143,6.09,4.355,7.419a7.686,7.686,0,0,0,4,1.047,15.646,15.646,0,0,0,6.962-1.97,39.968,39.968,0,0,0,7.948-5.584,99.156,99.156,0,0,1-9.163-11.024,93.32,93.32,0,0,1-13.776-2.728Zm22.938,2.664h0c1.624,1.8,3.4,3.6,5.263,5.326,1.838-1.7,3.61-3.492,5.263-5.326-1.767.07-3.537.1-5.262.1-1.755,0-3.526-.035-5.265-.1Zm4.781-42.345c-3.334,0-6.654.148-9.869.44a124.035,124.035,0,0,0-9.868,17.982,123.781,123.781,0,0,0,9.868,17.98c3.233.292,6.534.44,9.808.44h.061c3.319,0,6.639-.149,9.867-.442a123.369,123.369,0,0,0,9.87-17.979,123.166,123.166,0,0,0-9.87-17.982c-3.249-.292-6.548-.44-9.807-.44Zm-23.329,26.367h0a69.49,69.49,0,0,0-2.5,6.565c2.578.571,5.234,1.051,7.894,1.425-1.907-2.55-3.72-5.238-5.391-7.99Zm49.359-.055h0c-1.658,2.7-3.471,5.357-5.388,7.9,2.662-.371,5.318-.844,7.894-1.408a67.659,67.659,0,0,0-2.505-6.487Zm-56.22-21.246h0a31.911,31.911,0,0,0-10.276,5.928c-2.514,2.33-3.789,4.815-3.789,7.386s1.275,5.054,3.789,7.384a32,32,0,0,0,10.276,5.93,101.179,101.179,0,0,1,4.357-13.314,101.134,101.134,0,0,1-4.357-13.314Zm63.083.193h0a99.211,99.211,0,0,1-4.357,13.159,99.219,99.219,0,0,1,4.357,13.157,32.016,32.016,0,0,0,10.274-5.859c2.514-2.3,3.789-4.758,3.789-7.3s-1.275-4.995-3.789-7.3a32.056,32.056,0,0,0-10.274-5.862Zm-12.251-2.631h0c1.914,2.536,3.727,5.192,5.388,7.894a67.954,67.954,0,0,0,2.505-6.486c-2.586-.567-5.243-1.041-7.894-1.408Zm-38.581-.226h0c-2.683.379-5.339.858-7.894,1.425a68.958,68.958,0,0,0,2.507,6.565c1.671-2.748,3.484-5.436,5.387-7.99Zm-1.753-26.629a7.673,7.673,0,0,0-4,1.047c-2.214,1.329-3.68,3.825-4.357,7.419a36.962,36.962,0,0,0,.331,12.837,93.24,93.24,0,0,1,13.774-2.726A99.176,99.176,0,0,1-7288,200.319a39.992,39.992,0,0,0-7.948-5.584A15.646,15.646,0,0,0-7302.907,192.766Zm20.175,18.535c1.724,0,3.494.036,5.262.107-1.657-1.837-3.428-3.629-5.263-5.326-1.852,1.714-3.623,3.506-5.263,5.326C-7286.245,211.336-7284.473,211.3-7282.732,211.3Z" transform="translate(7429.999 1592.764)"/>
    <path id="路径_377" data-name="路径 377" class="cls-1" d="M684.211,21.053a10.526,10.526,0,1,1,10.526-10.526A10.526,10.526,0,0,1,684.211,21.053Z" transform="translate(-511.903 1775.005)"/>
  </g>
</svg>
