<svg xmlns="http://www.w3.org/2000/svg" xmlns:xlink="http://www.w3.org/1999/xlink" width="2393" height="882" viewBox="0 0 2393 882"><defs><linearGradient id="a" x1="0.54" y1="0.112" x2="0.322" y2="0.84" gradientUnits="objectBoundingBox"><stop offset="0" stop-color="#eb6100"/><stop offset="0.19" stop-color="#f29344"/><stop offset="0.665" stop-color="#ee7815"/><stop offset="1" stop-color="#eb6100"/></linearGradient><linearGradient id="b" y1="0.5" x2="1" y2="0.5" gradientUnits="objectBoundingBox"><stop offset="0" stop-color="#676763"/><stop offset="0.19" stop-color="#cacac7"/><stop offset="1" stop-color="#44433f"/></linearGradient><linearGradient id="c" x1="0.651" y1="0.741" x2="0.397" y2="0.068" gradientUnits="objectBoundingBox"><stop offset="0" stop-color="#22ac38"/><stop offset="0.19" stop-color="#9dc93a"/><stop offset="0.7" stop-color="#56b547"/><stop offset="1" stop-color="#094"/></linearGradient><linearGradient id="d" x1="-0.31" y1="0.954" x2="3.971" y2="-1.677" gradientUnits="objectBoundingBox"><stop offset="0" stop-color="#1785c8"/><stop offset="1" stop-color="#023886"/></linearGradient><linearGradient id="e" x1="-2.795" y1="1.642" x2="2.347" y2="-0.201" xlink:href="#d"/><radialGradient id="f" cx="1.647" cy="1.719" r="8.396" gradientTransform="translate(0.724 -0.003) scale(0.552 1.002)" gradientUnits="objectBoundingBox"><stop offset="0" stop-color="#efb91b"/><stop offset="1" stop-color="#d71718"/></radialGradient><radialGradient id="g" cx="3.799" cy="-0.784" r="5.946" gradientTransform="translate(0.222 0.001) scale(0.941 1.002)" xlink:href="#f"/><linearGradient id="h" x1="-3.297" y1="2.277" x2="0.931" y2="0.299" xlink:href="#d"/><linearGradient id="i" x1="-1.051" y1="1.247" x2="3.192" y2="-0.809" xlink:href="#d"/><linearGradient id="j" x1="-2.857" y1="1.95" x2="1.58" y2="0.033" xlink:href="#d"/><linearGradient id="k" x1="-1.902" y1="1.514" x2="2.458" y2="-0.335" xlink:href="#d"/><linearGradient id="l" x1="0.17" y1="0.606" x2="5.64" y2="-1.139" xlink:href="#d"/><linearGradient id="m" x1="-1.163" y1="1.107" x2="3.361" y2="-0.534" xlink:href="#d"/><radialGradient id="n" cx="4.241" cy="-1.547" r="6.286" gradientTransform="translate(1.145 0.002) scale(0.728 1.002)" xlink:href="#f"/><radialGradient id="o" cx="2.546" cy="1.776" r="6.562" gradientTransform="translate(0.755 -0.003) scale(0.7 1.002)" xlink:href="#f"/><radialGradient id="p" cx="4.001" cy="-0.366" r="6.117" gradientTransform="translate(0.881 0.001) scale(0.778 1.002)" xlink:href="#f"/><radialGradient id="q" cx="3.238" cy="0.671" r="5.899" gradientTransform="translate(0.642 -0.001) scale(0.8 1.002)" xlink:href="#f"/><radialGradient id="r" cx="0.88" cy="0.449" r="5.567" gradientTransform="translate(-0.056 -0.001) scale(1.067 1.002)" xlink:href="#f"/><radialGradient id="s" cx="2.23" cy="0.028" r="4.958" gradientTransform="translate(0.151 0) scale(0.931 1.002)" xlink:href="#f"/></defs><g transform="translate(-244 -4145)"><g transform="translate(864 4145)"><g transform="translate(23 20)" fill="#fff" stroke="#316cfb" stroke-width="2" opacity="0.2"><rect width="510" height="386" rx="25" stroke="none"/><rect x="1" y="1" width="508" height="384" rx="24" fill="none"/></g><g fill="#fff" stroke="#316cfb" stroke-width="2" opacity="0.999"><rect width="510" height="386" rx="25" stroke="none"/><rect x="1" y="1" width="508" height="384" rx="24" fill="none"/></g><g transform="translate(-971 -4173)"><text transform="translate(1021 4456)" fill="#495a7c" font-size="28" font-family="PingFangSC-Medium, PingFang SC" font-weight="500" letter-spacing="0.02em"><tspan x="0" y="0">生态合作伙伴</tspan></text><rect width="47" height="6" transform="translate(1021 4394)" fill="#0e4efb"/><text transform="translate(1021 4503)" fill="#333f51" font-size="20" font-family="DINPro-Regular, DINPro" letter-spacing="0.01em"><tspan x="0" y="0">ECOLOGICAL PARTNERS</tspan></text></g><g transform="translate(18 28)"><path d="M-16402.168-4570.763c-.2,0-.414-.2-.617-.2v-2.262a1.589,1.589,0,0,0,.828.2h.41a1.6,1.6,0,0,0,1.039-.2c.2-.208.41-.41.613-.618a8.466,8.466,0,0,0,.422-1.03,4.947,4.947,0,0,1,.617-1.44l-5.176-14.6h2.7l3.727,11.521,3.723-11.312h2.691c-.414.821-1.031,2.88-2.277,6.17-.828,2.463-1.449,4.522-2.066,5.963-1.449,3.7-2.281,5.76-2.9,6.581a3.245,3.245,0,0,1-2.9,1.23Zm-103.7-.2,3.1-12.543,29.6-6.379a6.177,6.177,0,0,0,4.762-5.76v-31.675a5.96,5.96,0,0,0-4.762-5.76l-29.6-6.372-3.1-12.549h34.563a21.971,21.971,0,0,1,21.938,21.6v37.635a21.881,21.881,0,0,1-21.937,21.8Zm-53.2-.209a22.013,22.013,0,0,1-21.941-21.795V-4630.4a21.712,21.712,0,0,1,21.941-21.6h34.359l-3.105,12.549-29.594,6.372a6.185,6.185,0,0,0-4.77,5.76v31.675a5.959,5.959,0,0,0,4.77,5.76l29.594,6.17,3.105,12.543Zm221.88-6.991a8.69,8.69,0,0,1-1.654-5.343,8.4,8.4,0,0,1,1.863-5.76,5.488,5.488,0,0,1,4.762-2.06,5.35,5.35,0,0,1,4.557,2.06,7.313,7.313,0,0,1,1.863,5.343,9.322,9.322,0,0,1-1.658,5.558,6.161,6.161,0,0,1-5.176,2.262A6.291,6.291,0,0,1-16337.179-4578.164Zm1.658-9.252a7.262,7.262,0,0,0-1.035,3.909,7.064,7.064,0,0,0,1.035,3.7,3.281,3.281,0,0,0,3.1,1.44,3.326,3.326,0,0,0,3.318-1.857,6.022,6.022,0,0,0,.826-3.7,7.107,7.107,0,0,0-.623-3.291,3.842,3.842,0,0,0-3.521-1.85A3.405,3.405,0,0,0-16335.521-4587.416Zm-15.107,9.05a8.5,8.5,0,0,1-1.658-5.141,8.407,8.407,0,0,1,1.861-5.76,5.354,5.354,0,0,1,4.559-2.06,5.973,5.973,0,0,1,3.926,1.231c1.035.619,1.658,2.06,1.869,3.909h-2.283a5.681,5.681,0,0,0-1.025-2.261,3.313,3.313,0,0,0-2.486-.82,2.933,2.933,0,0,0-3.107,2.462,8.186,8.186,0,0,0-.617,3.5,6.259,6.259,0,0,0,.826,3.5,3.148,3.148,0,0,0,2.9,1.44,3.122,3.122,0,0,0,2.275-.827,4.6,4.6,0,0,0,1.236-2.463h2.283a7.086,7.086,0,0,1-2.07,4.111,6.6,6.6,0,0,1-4.137,1.23A4.966,4.966,0,0,1-16350.628-4578.366Zm-37.884-.208a5.456,5.456,0,0,1-.621-2.881v-9.663h2.484v9.462a4.134,4.134,0,0,0,.414,1.85,2.385,2.385,0,0,0,2.274,1.232,3.35,3.35,0,0,0,3.313-2.262,12.658,12.658,0,0,0,.42-3.29v-6.992h2.479v14.192h-2.275v-2.06a3.634,3.634,0,0,1-1.037,1.44,6.233,6.233,0,0,1-3.31,1.029C-16386.437-4576.516-16387.887-4577.135-16388.512-4578.574Zm-40.562.821a3.426,3.426,0,0,1-1.246-2.881,3.585,3.585,0,0,1,1.246-3.082,7.922,7.922,0,0,1,3.313-1.237l3.727-.411a1.146,1.146,0,0,0,1.035-.612c.211-.209.211-.41.211-.828a2,2,0,0,0-.836-1.85,4.448,4.448,0,0,0-2.484-.612,3.6,3.6,0,0,0-2.687,1.022,2.037,2.037,0,0,0-.625,1.648h-2.273c0-1.851.621-3.082,1.652-3.7a7.18,7.18,0,0,1,3.73-1.029,8.17,8.17,0,0,1,4.137,1.029,3.1,3.1,0,0,1,1.449,2.881v8.223c0,.208.211.41.211.619s.2.208.617.208c.211,0,.211,0,.832-.417h.414v1.857a1.6,1.6,0,0,1-.828.2h-.832a2.022,2.022,0,0,1-1.863-.821,1.764,1.764,0,0,1-.41-1.238,5.586,5.586,0,0,1-2.074,1.648,8.358,8.358,0,0,1-3.1.619A4.372,4.372,0,0,1-16429.074-4577.753Zm6.625-5.963c-.625,0-1.035.2-1.449.2l-1.449.209a9.486,9.486,0,0,0-1.863.619,2.506,2.506,0,0,0-1.035,2.052,2.528,2.528,0,0,0,.824,1.648,3.369,3.369,0,0,0,1.863.619,5.535,5.535,0,0,0,2.484-.619,3.088,3.088,0,0,0,2.074-3.089h-.414v-2.052C-16421.625-4583.924-16422.035-4583.924-16422.449-4583.716Zm116.53,6.992v-9.872a2.515,2.515,0,0,0-.623-1.851,2.372,2.372,0,0,0-1.66-.618,3.435,3.435,0,0,0-2.484,1.029,4.263,4.263,0,0,0-1.031,3.082v8.229h-2.484v-9.253a5.184,5.184,0,0,0-.414-2.059,2.284,2.284,0,0,0-2.072-1.029,4.33,4.33,0,0,0-2.484,1.029,5.3,5.3,0,0,0-1.027,3.7v7.409h-2.486v-14.192h2.277v2.054a9.57,9.57,0,0,1,1.449-1.44,4.17,4.17,0,0,1,2.686-.821,3.865,3.865,0,0,1,2.7.821,8.945,8.945,0,0,1,1.029,1.44,13.853,13.853,0,0,1,1.863-1.643,5.567,5.567,0,0,1,2.484-.619c1.869,0,3.318.619,3.936,2.06a11,11,0,0,1,.826,3.081v9.462Zm-68.1,0v-14.192h2.275v2.06a5.832,5.832,0,0,1,2.072-1.851,5.524,5.524,0,0,1,2.479-.619,4.942,4.942,0,0,1,4.346,2.06,7.184,7.184,0,0,1,.623,3.29v9.051h-2.486v-8.849a5.875,5.875,0,0,0-.412-2.053,2.365,2.365,0,0,0-2.273-1.237,3.049,3.049,0,0,0-1.449.208,3.244,3.244,0,0,0-1.66,1.231,5.285,5.285,0,0,0-.826,1.439,5.8,5.8,0,0,0-.2,2.06v7.4Zm15.729-.2v-2.881h2.689v2.881Zm-50.5,0v-13.99h2.484v13.99Zm-5.793,0v-19.339h2.484v19.339Zm5.793-16.661v-2.678h2.484v2.678Zm70.374-9.051.2-.41c1.449-6.581,3.936-16.863,4.762-20.57h-7.037l1.035-4.112h34.775l1.037,4.112h-25.457c-1.035,3.909-2.9,12.139-3.941,16.869h22.773c-.418-2.47-2.281-9.871-2.484-10.9l-.211-.411h4.35v.2c.412,1.029,2.072,8.229,2.484,10.282a3.566,3.566,0,0,1-.2,3.5,4.45,4.45,0,0,1-3.73,1.44Zm-45.948,0,.827-4.111h15.109v-5.35h-14.072l1.029-4.111h13.254v-4.939h-16.147v-22.831h36.638v16.049q0,6.782-6.832,6.782h-9.523v5.141h13.248l1.035,4.119h-14.07v5.141h15.316l1.031,4.111Zm20.5-22.623h9.514c1.658,0,2.492-.821,2.492-2.88v-11.521h-12.006v5.148h8.688l1.035,4.111h-9.723Zm-16.152,0h12.008v-5.141h-9.727l1.031-4.111h8.7v-5.148h-12.008Zm-24.628,18.714c4.137,0,7.043-2.47,7.043-6.373v-26.741h-14.906l-1.035-4.111h22.152l-1.039,4.111h-1.035v27.152c0,4.521-2.687,9.663-10.145,9.871Zm-25.465,3.909v-41.343h14.5l-3.727,16.049a16.175,16.175,0,0,1,3.109,9.663c0,7.4-5.594,10.49-7.871,10.692v-4.313c.828-.411,3.523-2.06,3.523-6.581a10.564,10.564,0,0,0-3.523-8.23l3.109-12.96h-4.973v37.023Zm-97.687-7.4v-3.089h25.25v3.089Zm114.465-.411v-25.5h12v19.333c0,2.261-.41,3.7-1.449,4.73a4.89,4.89,0,0,1-3.926,1.439Zm4.133-4.32h1.652c1.453,0,2.074-.619,2.074-2.268v-14.8h-3.727Zm71.62-24.891,1.031-4.319h28.977l1.037,4.319Z" transform="translate(16613 4684)" fill="#ff6a00"/></g></g><g transform="translate(1484 4145)"><g transform="translate(23 20)" fill="#fff" stroke="#316cfb" stroke-width="2" opacity="0.2"><rect width="510" height="386" rx="25" stroke="none"/><rect x="1" y="1" width="508" height="384" rx="24" fill="none"/></g><g fill="#fff" stroke="#316cfb" stroke-width="2" opacity="0.999"><rect width="510" height="386" rx="25" stroke="none"/><rect x="1" y="1" width="508" height="384" rx="24" fill="none"/></g><g transform="translate(-971 -4173)"><text transform="translate(1021 4456)" fill="#495a7c" font-size="28" font-family="PingFangSC-Medium, PingFang SC" font-weight="500" letter-spacing="0.02em"><tspan x="0" y="0">服务商</tspan></text><rect width="47" height="6" transform="translate(1021 4394)" fill="#0e4efb"/><text transform="translate(1021 4503)" fill="#333f51" font-size="20" font-family="DINPro-Regular, DINPro" letter-spacing="0.01em"><tspan x="0" y="0">SERVICE PROVIDERS</tspan></text><g transform="translate(715.074 4080.037)"><path d="M873.8,720.669a1.476,1.476,0,0,0,.31.286,18.98,18.98,0,0,1,5.64,10.142,6.174,6.174,0,1,0,6.809-6.519A18.98,18.98,0,0,1,875.99,718.7h0a1.477,1.477,0,0,0-2.192,1.973" transform="translate(-498.326 -496.733)" fill="#fb6500"/><path d="M1015.206,647.619a1.477,1.477,0,0,0,.286-.31,18.979,18.979,0,0,1,10.142-5.64,6.174,6.174,0,1,0-6.519-6.81,18.98,18.98,0,0,1-5.882,10.567h0a1.477,1.477,0,0,0,1.972,2.192" transform="translate(-620.668 -418.938)" fill="#0082ef"/><path d="M942.138,506.133a1.476,1.476,0,0,0-.31-.286,18.98,18.98,0,0,1-5.64-10.142,6.175,6.175,0,1,0-6.809,6.519,18.98,18.98,0,0,1,10.567,5.882h0a1.477,1.477,0,0,0,2.192-1.972" transform="translate(-542.564 -296.076)" fill="#2dbc00"/><path d="M800.653,579.3a1.477,1.477,0,0,0-.286.31,18.98,18.98,0,0,1-10.142,5.64,6.175,6.175,0,1,0,6.519,6.809,18.98,18.98,0,0,1,5.882-10.567h0a1.477,1.477,0,0,0-1.973-2.192" transform="translate(-420.145 -374.333)" fill="#fc0"/><path d="M391.26,175.831a36.864,36.864,0,0,0-6.859-9.472c-7.161-7.2-17.185-11.844-28.227-13.066a51.735,51.735,0,0,0-11.431-.026c-11.091,1.173-21.172,5.789-28.385,13a36.9,36.9,0,0,0-6.9,9.449,32.262,32.262,0,0,0-3.536,14.661,33.007,33.007,0,0,0,5.917,18.654,50.623,50.623,0,0,0,9.137,9.877l-1.775,7.141-.511,2.011a3.208,3.208,0,0,0-.209.621,3.173,3.173,0,0,0-.053.406c-.01.1-.032.2-.032.312a3.372,3.372,0,0,0,3.417,3.324,3.451,3.451,0,0,0,1.687-.449l.048-.025c.073-.041.147-.079.217-.126l12.676-6.189a50.38,50.38,0,0,0,8.29,1.554,52.743,52.743,0,0,0,5.6.3,53.348,53.348,0,0,0,5.84-.33,50.853,50.853,0,0,0,11.191-2.544,6.242,6.242,0,0,1-1.127-.489,5.961,5.961,0,0,1-3.076-5.789,42.765,42.765,0,0,1-7.934,1.65,44.648,44.648,0,0,1-4.893.277,44.2,44.2,0,0,1-4.684-.251c-.325-.035-.647-.083-.97-.124A43.227,43.227,0,0,1,338.4,218.9a4.4,4.4,0,0,0-1.305-.194,4.552,4.552,0,0,0-2.075.53c-.09.045-.179.083-.269.134l-8.133,4.663-.009.005a.746.746,0,0,1-.351.131.521.521,0,0,1-.518-.524l.3-1.182.346-1.284,1.2-4.456a3.485,3.485,0,0,0,.158-.97,3.162,3.162,0,0,0-1.336-2.572,34.289,34.289,0,0,1-3.259-2.662,31.229,31.229,0,0,1-4.617-5.312,26.047,26.047,0,0,1-4.687-14.715,25.389,25.389,0,0,1,2.788-11.536,29.6,29.6,0,0,1,5.533-7.574,38.9,38.9,0,0,1,23.478-10.7,43.167,43.167,0,0,1,9.579.022,38.833,38.833,0,0,1,23.343,10.754,29.541,29.541,0,0,1,5.5,7.591,25.389,25.389,0,0,1,2.743,11.443c0,.411-.027.82-.047,1.23a6.3,6.3,0,0,1,7.579.865c.1.1.192.212.286.318.068-.842.106-1.687.106-2.534a32.245,32.245,0,0,0-3.48-14.543" fill="#0079de"/><path d="M-16755.709-4473.24l.572-.493a35.272,35.272,0,0,0,9.295-12.842,108.534,108.534,0,0,1-3.848-13.471q-1.23,2.963-2.729,5.812l-.615,1.181-3.811-4.762.242-.493c.156-.323.314-.65.463-.985h-20.676v-5.948h22.26v2.154c2.686-7.115,4.6-16.011,5.7-26.5l.1-.93,5.879,1.032-.105.824c-.361,2.8-.781,5.578-1.348,8.947h12.137v6.147h-2.65c-.326,10.739-1.975,20.013-4.9,27.579a36.521,36.521,0,0,0,8.318,12.005l.561.505-3.7,5.506-.748-.731a38.437,38.437,0,0,1-7.469-10.718,42.338,42.338,0,0,1-8.705,10.943l-.764.684Zm9.99-39.521c-.25,1.083-.479,2.043-.73,2.974a117.6,117.6,0,0,0,3.387,14.949,88.213,88.213,0,0,0,2.395-18.726h-4.859Zm-40.875,44.835V-4493.6a63.022,63.022,0,0,1-4.465,4.469l-1.016.926-1.937-6.359.379-.374a43.322,43.322,0,0,0,10.9-16.768l.328-.913,5.531,2.676-.277.744a45.45,45.45,0,0,1-3.3,7.1v27.28c2.289-3.245,3.475-7.58,3.527-12.926v-8.1h17.328v13.641q2.159-1.975,4.23-4.048l1.1-1.092,1.467,5.973-.328.349a60.21,60.21,0,0,1-8.5,7.506l-.361.259-3.555-3.395-.006-13.173h-5.229v2.086c-.137,8.381-2.32,14.779-6.5,19.023l-.568.582-2.605-2.259v2.463Zm64.916-.4v-34.682a77.261,77.261,0,0,1-5,6.185l-1.037,1.156-2.09-6.993.293-.357a76.207,76.207,0,0,0,13.914-27.048l.279-.973,6.016,2.782-.221.727a89.527,89.527,0,0,1-5.748,14.223v44.979Zm14.992-1.793v-23.462h35.275v23.462Zm6.342-6.232h22.592v-11.083h-22.592Zm-156.76,5.531v-6.342h19.592v-52.282h6.547v52.282h7.6v-52.282h6.541v41.1a145.079,145.079,0,0,0,9.41-28.462l.209-.888,5.883,1.652-.187.812A153.819,153.819,0,0,1-16811.5-4485l-.336.718-4.992-1.766v8.886h19.729v6.342Zm-65.77-1.147v-6.347h9.932v-26.041h6.41v26.041h10.883v-35.51h6.543v14.8h17.953v6.279h-17.953v14.435h22.689v6.347Zm73.7-12.88a246.584,246.584,0,0,0-8.844-30.276l-.311-.846,5.654-1.852.3.773a235.4,235.4,0,0,1,9.24,30.688l.2.833-6.037,1.555Zm142.492-12.026v-6.083h35.275v6.083Zm-220.391-10.769.813-.4a95.4,95.4,0,0,0,28.738-21.568l.264-.289h4.193l.258.285a93.536,93.536,0,0,0,28.535,21.5l.842.408-3.437,6.07-.742-.382a92.153,92.153,0,0,1-27.541-21.461c-7.07,8.271-16.424,15.51-27.812,21.525l-.762.4Zm220.391,1.508v-6.015h35.275v6.015Zm-87.609-7.111.395-.378a41.84,41.84,0,0,0,10.766-15.718l.334-.875,5.672,2.651-.307.765a50.179,50.179,0,0,1-13.848,19.074l-1,.875Zm17.629,3.892v-17.2h5.688v11.376h2.859V-4530.1h5.756v14.928h2.859v-11.376h5.625v17.2Zm65.18-5.854v-6.211h19.855a65.631,65.631,0,0,0-2.918-6.355l-.506-.956,6.283-1.729.314.659a65.394,65.394,0,0,1,3.262,8.059l.123.323h18.137v6.211Z" transform="translate(17348.543 4692.793)" fill="#0079de" stroke="#fff" stroke-width="2"/></g></g></g><g transform="translate(2104 4145)"><g transform="translate(23 20)" fill="#fff" stroke="#316cfb" stroke-width="2" opacity="0.2"><rect width="510" height="386" rx="25" stroke="none"/><rect x="1" y="1" width="508" height="384" rx="24" fill="none"/></g><g fill="#fff" stroke="#316cfb" stroke-width="2" opacity="0.999"><rect width="510" height="386" rx="25" stroke="none"/><rect x="1" y="1" width="508" height="384" rx="24" fill="none"/></g><g transform="translate(-971 -4173)"><text transform="translate(1021 4456)" fill="#495a7c" font-size="28" font-family="PingFangSC-Medium, PingFang SC" font-weight="500" letter-spacing="0.02em"><tspan x="0" y="0">战略合作伙伴</tspan></text><rect width="47" height="6" transform="translate(1021 4394)" fill="#0e4efb"/><text transform="translate(1021 4503)" fill="#333f51" font-size="20" font-family="DINPro-Regular, DINPro" letter-spacing="0.01em"><tspan x="0" y="0">STRATEGIC PARTNER</tspan></text></g><g transform="translate(49.242 59.945)"><g transform="translate(0.786 0.236)"><path d="M77.943,23.631H48.934a1.744,1.744,0,0,1,0-3.487H77.943a1.744,1.744,0,0,1,0,3.487Z" transform="translate(63.99 27.75)" fill="#fff"/><path d="M90.039,24.324H67.809a1.744,1.744,0,0,1,0-3.487h22.23a1.744,1.744,0,0,1,0,3.487Z" transform="translate(90.281 28.714)" fill="#fff"/><path d="M90.072,26.54H67.843a1.725,1.725,0,0,1-1.545-.854,1.756,1.756,0,0,1,0-1.777,1.725,1.725,0,0,1,1.545-.854h22.23a1.744,1.744,0,0,1,0,3.485Z" transform="translate(90.248 31.803)" fill="#fff"/><path d="M118.5,25.132H101.745a1.744,1.744,0,0,1,0-3.485H118.5a1.725,1.725,0,0,1,1.545.854,1.756,1.756,0,0,1,0,1.777A1.725,1.725,0,0,1,118.5,25.132Z" transform="translate(137.72 29.841)" fill="#fff"/><path d="M104.248,25.132H96.443a1.725,1.725,0,0,1-1.545-.854,1.756,1.756,0,0,1,0-1.777,1.725,1.725,0,0,1,1.545-.854h7.805a1.725,1.725,0,0,1,1.545.854,1.756,1.756,0,0,1,0,1.777,1.725,1.725,0,0,1-1.545.854Z" transform="translate(130.262 29.841)" fill="#fff"/><path d="M80.813,24.965a1.744,1.744,0,0,1,0-3.487,44.026,44.026,0,0,0,10.575-1.29l.162-.04a1.743,1.743,0,0,1,.822,3.387l-.162.04a47.5,47.5,0,0,1-11.4,1.39Z" transform="translate(108.351 27.69)" fill="#fff"/><path d="M91.961,27.019H80.813a1.744,1.744,0,0,1,0-3.487H91.961a1.744,1.744,0,0,1,0,3.487Z" transform="translate(108.351 32.469)" fill="#fff"/><path d="M90.039,28.758H67.809a1.744,1.744,0,0,1,0-3.487h22.23a1.744,1.744,0,0,1,0,3.487Z" transform="translate(90.281 34.892)" fill="#fff"/><path d="M94.433,36.915a1.685,1.685,0,0,1-.535-.086l-4.853-1.6a2.893,2.893,0,0,1-1.852-1.865,2.926,2.926,0,0,1,.409-2.607l3.678-5.115L87.2,24.288A1.747,1.747,0,0,1,86.1,22.083a1.725,1.725,0,0,1,2.186-1.1L93.114,22.6a2.9,2.9,0,0,1,1.835,1.869,2.928,2.928,0,0,1-.411,2.6l-3.674,5.109,4.1,1.344a1.745,1.745,0,0,1-.533,3.4Z" transform="translate(117.98 28.85)" fill="#fff"/><path d="M79.332,35.375H48.564a1.744,1.744,0,0,1,0-3.487H79.332a1.744,1.744,0,0,1,0,3.487Z" transform="translate(63.48 44.153)" fill="#fff"/><path d="M57.128,51.544A1.736,1.736,0,0,1,55.4,49.8V21.888a1.729,1.729,0,1,1,3.457,0V49.8a1.738,1.738,0,0,1-1.729,1.743Z" transform="translate(75.311 27.984)" fill="#fff"/><path d="M83.158,50.808a1.738,1.738,0,0,1-1.729-1.743V22.422a1.729,1.729,0,1,1,3.457,0V49.065A1.738,1.738,0,0,1,83.158,50.808Z" transform="translate(111.562 28.719)" fill="#fff"/><path d="M98.025,51.577H96.413a1.744,1.744,0,0,1,0-3.487h1.612a1.371,1.371,0,0,0,1.363-1.375V21.921a1.747,1.747,0,0,1,.847-1.558,1.716,1.716,0,0,1,1.762,0,1.747,1.747,0,0,1,.847,1.558V46.715A4.845,4.845,0,0,1,98.025,51.577Z" transform="translate(130.3 27.951)" fill="#fff"/><path d="M105.3,33.934a1.738,1.738,0,0,1-1.729-1.743v-10.3a1.729,1.729,0,1,1,3.457,0v10.3a1.751,1.751,0,0,1-.506,1.233A1.721,1.721,0,0,1,105.3,33.934Z" transform="translate(142.537 27.797)" fill="#fff"/><path d="M92.663,51.642A1.736,1.736,0,0,1,90.935,49.9V21.874a1.747,1.747,0,0,1,.847-1.558,1.716,1.716,0,0,1,1.762,0,1.747,1.747,0,0,1,.847,1.558V49.908A1.736,1.736,0,0,1,92.663,51.642Z" transform="translate(124.798 27.886)" fill="#fff"/><path d="M80.813,39.059a1.738,1.738,0,0,1-1.729-1.743V27.6a1.729,1.729,0,1,1,3.457,0v9.712a1.751,1.751,0,0,1-.506,1.233A1.721,1.721,0,0,1,80.813,39.059Z" transform="translate(108.296 35.853)" fill="#fff"/><path d="M52.944,51.544A1.738,1.738,0,0,1,51.216,49.8V21.888a1.746,1.746,0,0,1,.864-1.51,1.716,1.716,0,0,1,1.729,0,1.746,1.746,0,0,1,.864,1.51V49.8A1.738,1.738,0,0,1,52.944,51.544Z" transform="translate(69.484 27.984)" fill="#fff"/><path d="M49.416,37.741a1.719,1.719,0,0,1-1.222-.511A1.749,1.749,0,0,1,47.69,36V25.522a1.728,1.728,0,0,1,3.455,0V36a1.749,1.749,0,0,1-.506,1.233A1.719,1.719,0,0,1,49.416,37.741Z" transform="translate(64.574 32.95)" fill="#fff"/><path d="M60.815,37.244H57.162a1.725,1.725,0,0,1-1.545-.854,1.756,1.756,0,0,1,0-1.777,1.725,1.725,0,0,1,1.545-.854h3.653a3.017,3.017,0,0,0,3-3.026V25.522a1.728,1.728,0,0,1,3.455,0v5.211A6.5,6.5,0,0,1,60.815,37.244Z" transform="translate(75.306 32.947)" fill="#fff"/><path d="M79.05,37.823a1.744,1.744,0,0,1,0-3.487,2.474,2.474,0,0,0,2.462-2.483,1.729,1.729,0,1,1,3.457,0,5.952,5.952,0,0,1-5.919,5.97Z" transform="translate(105.86 41.705)" fill="#fff"/><path d="M68.21,51.54A1.736,1.736,0,0,1,66.482,49.8V24.4a.765.765,0,0,0-.761-.768H63.588a1.744,1.744,0,0,1,0-3.487H65.72a4.246,4.246,0,0,1,4.224,4.261V49.8a1.751,1.751,0,0,1-.508,1.235A1.721,1.721,0,0,1,68.21,51.54Z" transform="translate(84.325 27.987)" fill="#fff"/><path d="M94.526,41.43H72.454A6.409,6.409,0,0,1,66.081,35V33.442a5.927,5.927,0,0,1,5.9-5.952h13.9a5.927,5.927,0,0,1,5.9,5.952V35.08a1.747,1.747,0,0,1-.847,1.558,1.716,1.716,0,0,1-1.762,0,1.747,1.747,0,0,1-.847-1.558V33.442a2.476,2.476,0,0,0-.72-1.753,2.434,2.434,0,0,0-1.742-.718h-13.9a2.455,2.455,0,0,0-2.431,2.471v1.567a2.933,2.933,0,0,0,2.918,2.944H94.526a1.744,1.744,0,0,1,0,3.487Z" transform="translate(90.303 38.098)" fill="#fff"/><path d="M72.485,24.9a1.736,1.736,0,0,1-1.729-1.743V21.841a1.729,1.729,0,1,1,3.457,0v1.317a1.751,1.751,0,0,1-.506,1.233,1.721,1.721,0,0,1-1.222.511Z" transform="translate(96.699 27.69)" fill="#fff"/><path d="M100.823,45.575a1.744,1.744,0,0,1-.208-3.473c6.574-.812,14.575-7.506,16.97-14.136H103.077a1.744,1.744,0,0,1,0-3.487h14.794a3.272,3.272,0,0,1,3.086,4.32c-2.675,7.947-11.994,15.781-19.923,16.762A1.562,1.562,0,0,1,100.823,45.575Z" transform="translate(136.381 33.952)" fill="#fff"/><path d="M119.9,43.008a1.61,1.61,0,0,1-.213-.013c-6.821-.843-15.04-6.987-18.723-13.986a1.756,1.756,0,0,1-.018-1.812,1.722,1.722,0,0,1,3.064.18c3.151,6,10.37,11.451,16.09,12.158a1.744,1.744,0,0,1-.207,3.473Z" transform="translate(138.579 36.52)" fill="#fff"/><path d="M96.41,31.43a1.745,1.745,0,0,1-.522-3.4l8.011-2.569a1.726,1.726,0,0,1,2.171,1.134,1.747,1.747,0,0,1-1.124,2.19l-8.015,2.567a1.713,1.713,0,0,1-.522.083Z" transform="translate(130.301 35.05)" fill="#fff"/><path d="M89.555,37.628A4.649,4.649,0,0,1,85,33.873l-1.19-5.923a1.729,1.729,0,1,1,3.389-.691l1.188,5.923a1.2,1.2,0,0,0,.561.8,1.181,1.181,0,0,0,.962.111l16.208-5.2a1.726,1.726,0,0,1,2.171,1.134,1.747,1.747,0,0,1-1.124,2.19l-16.2,5.2a4.658,4.658,0,0,1-1.407.213Z" transform="translate(114.942 35.853)" fill="#fff"/><path d="M57.586,1.714,42.746,36.8h4.7l4.533-11.042H68.089L72.728,36.8H77.5L62.593,1.714ZM53.5,22.067h0L59.941,6.419l6.442,15.649Z" transform="translate(57.778 2.048)" fill="#fff"/><path d="M69.724,16.107H65.572c-2.522,0-3.79-1.152-3.79-3.42Q61.782,9,68.171,9a26.707,26.707,0,0,1,8.877,1.475V6.539a32.349,32.349,0,0,0-8.883-1.223q-10.649,0-10.661,7.371c0,5.061,2.679,7.6,8.066,7.6h4.152c2.677,0,4.023,1.152,4.023,3.424q0,3.689-6.128,3.685a27.477,27.477,0,0,1-8.889-1.461v3.915a31.666,31.666,0,0,0,8.889,1.233q10.638,0,10.636-7.371c0-5.065-2.833-7.605-8.531-7.605" transform="translate(78.305 7.007)" fill="#fff"/><path d="M67.756,5.316h4.518v25.77H67.756Z" transform="translate(92.524 7.007)" fill="#fff"/><path d="M67.756,1.4h4.518V5.067H67.756Z" transform="translate(92.524 1.609)" fill="#fff"/><path d="M81.358,5.316a28.709,28.709,0,0,0-8.118,1.229v3.681A28.837,28.837,0,0,1,81.358,9c4.607,0,6.916,1.386,6.916,4.193v2.433a39.456,39.456,0,0,0-6.694-.5q-10.408,0-10.4,7.943c0,5.34,3.2,8.016,9.633,8.016a16.651,16.651,0,0,0,7.463-1.63v1.63h4.518V13.555q0-8.241-11.434-8.239Zm6.916,20.061h0a12.408,12.408,0,0,1-7.463,2.016c-3.41,0-5.127-1.461-5.127-4.416q0-4.17,5.9-4.167a39.484,39.484,0,0,1,6.694.48Z" transform="translate(97.369 7.007)" fill="#fff"/><path d="M82.3,1.4H86.81V36.484H82.3Z" transform="translate(112.782 1.609)" fill="#fff"/><path d="M99.465,5.316A16.2,16.2,0,0,0,90.093,8.6l.015-3.283H86.234V31.084h4.523V12.357a10.721,10.721,0,0,1,7.364-3.274c3.807,0,5.7,1.935,5.7,5.76V31.088h4.508V14.905c0-6.388-2.941-9.589-8.864-9.589" transform="translate(118.356 7.007)" fill="#fff"/><path d="M102.083,8.791c0-2.844,1.675-4.249,5.026-4.249a15.309,15.309,0,0,1,5.749.979V1.853a15.826,15.826,0,0,0-5.711-1q-9.589,0-9.58,9.343V37.279h4.521V15.14h7.693V11.458h-7.693Z" transform="translate(134.27 0.866)" fill="#fff"/><path d="M115.623,5.316q-12.222,0-12.214,12.865.044,12.853,12.214,12.865,12.2,0,12.2-12.865t-12.2-12.865m0,22.081h0q-7.706,0-7.708-9.287Q107.915,9,115.623,9t7.7,9.111q0,9.289-7.7,9.287" transform="translate(142.312 7.007)" fill="#fff"/><path d="M70.764,25.548C69.481,29.177,66.075,32.8,58.989,34c-6.7,1.133-13.669,1.891-33.454.372,0,0-1.024-.156-2.543-.453-4.658-.768-14.963-3.207-20.835-10.369-.312-.384-.59-.768-.864-1.171A42.433,42.433,0,0,0,22.246,49.539a41.8,41.8,0,0,0,34.025,2.6c7.491-3.794,12.216-8.98,14.042-15.422a25.72,25.72,0,0,0,.444-11.169" transform="translate(-0.05 31.056)" fill="#fff"/><path d="M56.64,18.513A42.741,42.741,0,0,0,47.833,7.631V7.65C40.287,2.812,33.079,1.281,26.414,3.11a24.367,24.367,0,0,0-9.052,4.848c3.76-.708,8.582.466,13.162,6.115,4.323,5.322,8.458,11.072,17.054,29.261,0,0,3.5,9.113,3.5,14.081,0,.213.042.6.042.6a26.4,26.4,0,0,1-.937,7.317,23.721,23.721,0,0,1-4.695,8.8,43.356,43.356,0,0,0,11.16-55.627" transform="translate(22.074 2.94)" fill="#fff"/><path d="M42.05,7.113c.013-.012.03-.021.044-.031.084-.046.169-.108.249-.156.148-.084.293-.156.44-.238A24.58,24.58,0,0,1,48.7,4.179a24.051,24.051,0,0,1,11.845-.131A42.051,42.051,0,0,0,.831,39.91H.855c-.038.367-.03.716-.048,1.071-.021.484-.029.96-.034,1.444h0v.01h0v.284a16.332,16.332,0,0,0,3.691,10.1c3.236,3.957,8.1,6.367,12.424,7.824-2.366-2.949-3.653-7.669-1.2-14.3,2.37-6.415,5.2-12.88,16.408-29.416,0,0,5.736-7.22,9.96-9.85Z" transform="translate(-0.77 -0.131)" fill="#fff"/></g><g transform="translate(0.758 0.055)"><g transform="translate(101.555 2.947)"><g transform="translate(9.915 44.759)"><path d="M31.133,3.533H2.178a1.739,1.739,0,0,1,0-3.478H31.152a1.732,1.732,0,0,1,1.734,1.739A1.76,1.76,0,0,1,31.133,3.533Z" transform="translate(0.442 0.051)" fill="#0058a7"/><path d="M43.228,4.225H21.023a1.739,1.739,0,0,1,0-3.478H43.228a1.732,1.732,0,0,1,1.734,1.739A1.756,1.756,0,0,1,43.228,4.225Z" transform="translate(26.386 1.003)" fill="#0058a7"/><path d="M43.228,6.42H21.023a1.739,1.739,0,0,1,0-3.478H43.228a1.732,1.732,0,0,1,1.734,1.739A1.756,1.756,0,0,1,43.228,6.42Z" transform="translate(26.386 4.025)" fill="#0058a7"/><path d="M71.675,5.028H54.936a1.739,1.739,0,0,1,0-3.478H71.675a1.739,1.739,0,0,1,0,3.478Z" transform="translate(73.078 2.109)" fill="#0058a7"/><path d="M57.375,5.028H49.59a1.739,1.739,0,0,1,0-3.478h7.785A1.732,1.732,0,0,1,59.11,3.289,1.756,1.756,0,0,1,57.375,5.028Z" transform="translate(65.718 2.109)" fill="#0058a7"/><path d="M34.006,4.861a1.739,1.739,0,0,1,0-3.478A44.1,44.1,0,0,0,44.562.1l.17-.038a1.732,1.732,0,0,1,.829,3.364l-.17.038A47.074,47.074,0,0,1,34.006,4.861Z" transform="translate(44.261 -0.011)" fill="#0058a7"/><path d="M45.146,6.9H34.006a1.739,1.739,0,0,1,0-3.478H45.146a1.739,1.739,0,0,1,0,3.478Z" transform="translate(44.261 4.682)" fill="#0058a7"/><path d="M43.228,8.622H21.023a1.739,1.739,0,0,1,0-3.478H43.228a1.732,1.732,0,0,1,1.734,1.739A1.756,1.756,0,0,1,43.228,8.622Z" transform="translate(26.386 7.058)" fill="#0058a7"/><path d="M47.588,16.714a1.7,1.7,0,0,1-.528-.076L42.216,15.07a2.883,2.883,0,0,1-1.433-4.441l3.676-5.084L40.388,4.183A1.733,1.733,0,0,1,41.481.895L46.307,2.5a2.884,2.884,0,0,1,1.828,1.852,2.848,2.848,0,0,1-.415,2.57l-3.676,5.065,4.091,1.342a1.735,1.735,0,0,1-.547,3.383Z" transform="translate(53.808 1.083)" fill="#ee780c"/><path d="M32.532,15.191H1.806a1.739,1.739,0,0,1,0-3.478H32.532a1.739,1.739,0,0,1,0,3.478Z" transform="translate(-0.071 16.101)" fill="#0058a7"/><path d="M10.355,31.23a1.732,1.732,0,0,1-1.734-1.739V1.8a1.734,1.734,0,1,1,3.468,0V29.51A1.728,1.728,0,0,1,10.355,31.23Z" transform="translate(11.7 0.062)" fill="#0058a7"/><path d="M36.353,30.507a1.732,1.732,0,0,1-1.734-1.739V2.327a1.734,1.734,0,1,1,3.468,0V28.768A1.756,1.756,0,0,1,36.353,30.507Z" transform="translate(47.494 0.785)" fill="#0058a7"/><path d="M51.192,31.23h-1.6a1.739,1.739,0,0,1,0-3.478h1.6a1.353,1.353,0,0,0,1.357-1.361V1.8a1.734,1.734,0,1,1,3.468,0V26.41A4.837,4.837,0,0,1,51.192,31.23Z" transform="translate(65.718 0.062)" fill="#0058a7"/><path d="M58.465,13.747a1.732,1.732,0,0,1-1.734-1.739V1.8a1.734,1.734,0,1,1,3.468,0V12.027A1.753,1.753,0,0,1,58.465,13.747Z" transform="translate(77.937 0.062)" fill="#0058a7"/><path d="M45.839,31.3A1.732,1.732,0,0,1,44.1,29.556V1.755a1.734,1.734,0,1,1,3.468,0V29.575A1.728,1.728,0,0,1,45.839,31.3Z" transform="translate(60.553 -0.004)" fill="#0058a7"/><path d="M34.006,18.85a1.732,1.732,0,0,1-1.734-1.739V7.472a1.734,1.734,0,1,1,3.468,0v9.639A1.732,1.732,0,0,1,34.006,18.85Z" transform="translate(44.261 7.868)" fill="#0058a7"/><path d="M6.184,31.23a1.732,1.732,0,0,1-1.734-1.739V1.8a1.734,1.734,0,1,1,3.468,0V29.51A1.753,1.753,0,0,1,6.184,31.23Z" transform="translate(5.956 0.062)" fill="#0058a7"/><path d="M2.662,17.57A1.732,1.732,0,0,1,.928,15.831V5.436a1.734,1.734,0,1,1,3.468,0V15.831A1.756,1.756,0,0,1,2.662,17.57Z" transform="translate(1.108 5.065)" fill="#0058a7"/><path d="M14.012,17.09H10.355a1.739,1.739,0,0,1,0-3.478h3.657a3,3,0,0,0,3-3.005V5.428a1.734,1.734,0,1,1,3.468,0v5.179A6.485,6.485,0,0,1,14.012,17.09Z" transform="translate(11.7 5.054)" fill="#0058a7"/><path d="M32.245,17.621a1.739,1.739,0,0,1,0-3.478A2.449,2.449,0,0,0,34.7,11.687a1.734,1.734,0,1,1,3.468,0A5.937,5.937,0,0,1,32.245,17.621Z" transform="translate(41.837 13.67)" fill="#0058a7"/><path d="M21.44,31.241A1.732,1.732,0,0,1,19.706,29.5V4.308a.777.777,0,0,0-.773-.775H16.8a1.739,1.739,0,0,1,0-3.478h2.13a4.233,4.233,0,0,1,4.223,4.234V29.5A1.728,1.728,0,0,1,21.44,31.241Z" transform="translate(20.577 0.051)" fill="#0058a7"/><path d="M47.7,21.19H25.66A6.384,6.384,0,0,1,19.288,14.8v-1.55a5.9,5.9,0,0,1,5.881-5.9H39.044a5.9,5.9,0,0,1,5.881,5.9v1.625a1.734,1.734,0,1,1-3.468,0V13.252a2.441,2.441,0,0,0-2.432-2.438H25.151a2.441,2.441,0,0,0-2.432,2.438V14.8a2.928,2.928,0,0,0,2.922,2.929H47.677a1.732,1.732,0,0,1,1.734,1.739A1.7,1.7,0,0,1,47.7,21.19Z" transform="translate(26.386 10.101)" fill="#0058a7"/><path d="M25.694,4.8A1.732,1.732,0,0,1,23.96,3.059v-1.3a1.734,1.734,0,1,1,3.468,0v1.3A1.744,1.744,0,0,1,25.694,4.8Z" transform="translate(32.818 -0.004)" fill="#0058a7"/><path d="M53.988,25.307a1.726,1.726,0,0,1-.207-3.44c6.56-.813,14.553-7.447,16.947-14.024H56.25a1.739,1.739,0,0,1,0-3.478H71.029A3.249,3.249,0,0,1,74.1,8.656c-2.677,7.881-11.97,15.668-19.887,16.632A.915.915,0,0,1,53.988,25.307Z" transform="translate(71.782 5.985)" fill="#0058a7"/><path d="M73,22.711a.771.771,0,0,1-.207-.019C65.984,21.86,57.765,15.756,54.09,8.8a1.73,1.73,0,1,1,3.054-1.625C60.291,13.128,67.492,18.534,73.2,19.252A1.736,1.736,0,0,1,73,22.711Z" transform="translate(74.018 8.581)" fill="#0058a7"/><path d="M49.574,11.269a1.732,1.732,0,0,1-.509-3.383l7.993-2.551a1.733,1.733,0,0,1,1.037,3.307L50.1,11.193A1.622,1.622,0,0,1,49.574,11.269Z" transform="translate(65.716 7.208)" fill="#0058a7"/><path d="M42.733,17.42A4.629,4.629,0,0,1,38.19,13.7L37,7.818a1.73,1.73,0,1,1,3.393-.68l1.188,5.878a1.2,1.2,0,0,0,1.527.907L59.3,8.763a1.733,1.733,0,0,1,1.037,3.307l-16.174,5.16A6.349,6.349,0,0,1,42.733,17.42Z" transform="translate(50.728 7.881)" fill="#0058a7"/></g><g transform="translate(0)"><path d="M14.84,1.044.024,35.857H4.718L9.242,24.9H25.321l4.637,10.962h4.769L19.836,1.025h-5Zm-4.091,20.2L17.178,5.712l6.428,15.536Z" transform="translate(-0.024 0.223)" fill="#0058a7"/><path d="M22.915,15.648q-3.789,0-3.789-3.4c0-2.438,2.13-3.667,6.371-3.667a26.805,26.805,0,0,1,8.86,1.455V6.123a32.139,32.139,0,0,0-8.86-1.21c-7.088,0-10.651,2.438-10.651,7.314q0,7.541,8.049,7.541h4.147q4.015,0,4.015,3.4c0,2.438-2.036,3.667-6.126,3.667a27.5,27.5,0,0,1-8.879-1.455v3.893A32.185,32.185,0,0,0,24.932,30.5c7.088,0,10.613-2.438,10.613-7.314q.057-7.541-8.483-7.541Z" transform="translate(20.385 5.576)" fill="#0058a7"/><path d="M25.094,4.921H29.6V30.493H25.094Z" transform="translate(34.492 5.587)" fill="#0058a7"/><rect width="4.505" height="3.648" transform="translate(59.586 1.266)" fill="#0058a7"/><path d="M30.578,6.15V9.8a28.677,28.677,0,0,1,8.106-1.21c4.6,0,6.9,1.38,6.9,4.158v2.419a40.563,40.563,0,0,0-6.692-.491c-6.937,0-10.387,2.627-10.387,7.881,0,5.292,3.2,7.957,9.614,7.957a16.5,16.5,0,0,0,7.446-1.625v1.625h4.505V13.1c.019-5.462-3.789-8.184-11.386-8.184A28.717,28.717,0,0,0,30.578,6.15Zm15,18.692a12.386,12.386,0,0,1-7.446,2c-3.412,0-5.127-1.455-5.127-4.385q0-4.139,5.881-4.139a41.226,41.226,0,0,1,6.692.472Z" transform="translate(39.188 5.587)" fill="#0058a7"/><rect width="4.505" height="34.833" transform="translate(94.101 1.266)" fill="#0058a7"/><path d="M47.406,8.191l.019-3.27H43.541V30.493h4.505V11.9A10.725,10.725,0,0,1,55.4,8.645c3.789,0,5.693,1.928,5.693,5.708V30.493H65.6V14.428c0-6.331-2.922-9.507-8.841-9.507A16.191,16.191,0,0,0,47.406,8.191Z" transform="translate(59.891 5.587)" fill="#0058a7"/><path d="M64.389,4.148a15.03,15.03,0,0,1,5.731.983V1.483A15.758,15.758,0,0,0,64.408.5c-6.39,0-9.557,3.1-9.557,9.28V36.656h4.505V14.675h7.691V11.027H59.356V8.362C59.375,5.546,61.053,4.148,64.389,4.148Z" transform="translate(75.462 -0.5)" fill="#0058a7"/><path d="M60.688,17.7c.019,8.5,4.109,12.757,12.2,12.757q12.187,0,12.177-12.757Q85.09,4.912,72.885,4.921T60.688,17.7Zm4.505-.076q0-9.044,7.691-9.034t7.691,9.034q0,9.214-7.691,9.223T65.194,17.622Z" transform="translate(83.499 5.587)" fill="#0058a7"/></g></g><path d="M6.423,64.053a42.286,42.286,0,0,0,21.3,18.44c.019-.1-.7-17.26-5.071-18.078-4.43-.818-11.1-6.641-6.918-17.983,2.375-6.432,5.2-12.921,16.438-29.5,0,0,6.013-7.593,10.273-10.067,8.294-4.834,16.57-4.11,21.81-1.047A42.047,42.047,0,0,0,42.993.055,41.556,41.556,0,0,0,21.9,5.765,42.905,42.905,0,0,0,6.423,64.053Z" transform="translate(-0.758 -0.055)" fill="url(#a)"/><path d="M59.847,43.476c-6.711,1.134-13.685,1.89-33.516.378,0,0-9.519-1.455-13.761-3.912C4.3,35.141.77,27.638.77,21.552a42.261,42.261,0,1,0,84.017-6.388c-.075.019-14.458,9.185-12.969,13.381C73.307,32.8,71.667,41.492,59.847,43.476Z" transform="translate(-0.741 21.308)" fill="url(#b)"/><path d="M15.206,11.933a1.551,1.551,0,0,0-.19.216C15.087,12.077,15.135,12,15.206,11.933Zm-.045,0c3.073-3.351,11.216-6.017,18.7,3.161C38.2,20.384,42.344,26.115,50.94,44.222c0,0,3.506,9.063,3.506,14.013,0,9.672-4.75,16.546-10.01,19.611A42.972,42.972,0,0,0,60.026,19.508,42.42,42.42,0,0,0,44.455,3.8a19.048,19.048,0,0,0-9.369-2.361A24.5,24.5,0,0,0,22.815,4.924C20.346,6.371,17.292,9.531,15.162,11.93Z" transform="translate(18.873 1.85)" fill="url(#c)"/></g></g></g><g transform="translate(244 4621)"><g transform="translate(23 20)" fill="#fff" stroke="#316cfb" stroke-width="2" opacity="0.2"><rect width="510" height="386" rx="25" stroke="none"/><rect x="1" y="1" width="508" height="384" rx="24" fill="none"/></g><g fill="#fff" stroke="#316cfb" stroke-width="2" opacity="0.999"><rect width="510" height="386" rx="25" stroke="none"/><rect x="1" y="1" width="508" height="384" rx="24" fill="none"/></g><g transform="translate(-971 -4173)"><g transform="translate(1021 4233)"><path d="M33.957,52.219a2.957,2.957,0,0,1-1.4.325,3.032,3.032,0,0,1-2.686-1.623l-.215-.433-8.488-18.61a1.381,1.381,0,0,1-.107-.649,1.474,1.474,0,0,1,1.5-1.515,1.725,1.725,0,0,1,.967.325l9.992,7.141a5.147,5.147,0,0,0,2.579.757,4.285,4.285,0,0,0,1.612-.325l46.846-20.99C76.183,6.668,62.323.177,46.636.177,21.064.177.219,17.6.219,39.127c0,11.685,6.232,22.288,16.009,29.429A2.83,2.83,0,0,1,17.3,72.019c-.752,2.921-2.041,7.682-2.041,7.9a3.914,3.914,0,0,0-.215,1.19,1.474,1.474,0,0,0,1.5,1.515,1.215,1.215,0,0,0,.86-.325l10.1-5.951a5.084,5.084,0,0,1,2.471-.757,6.248,6.248,0,0,1,1.4.216,53.426,53.426,0,0,0,15.15,2.164c25.572,0,46.416-17.42,46.416-38.951A34.384,34.384,0,0,0,87.68,20.95L34.279,52Z" transform="translate(-0.219 -0.177)" fill="#22ac38" fill-rule="evenodd"/><rect width="34.812" height="3.138" transform="translate(204.361 27.59)" fill="#494949"/><rect width="34.812" height="3.354" transform="translate(204.361 37.328)" fill="#494949"/><path d="M116.957,38.559V19.517H83.971V38.451h32.986ZM87.3,22.655h26.324V35.314H87.3Z" transform="translate(121.249 27.873)" fill="#494949"/><path d="M86.332,62.985v-43.6A113.192,113.192,0,0,0,91.489,5.858L88.374,4.018a100.091,100.091,0,0,1-13.216,29.1l1.827,3.246c1.934-2.921,3.975-6.384,6.017-9.954V63.094h3.331Z" transform="translate(108.467 5.395)" fill="#494949" fill-rule="evenodd"/><path d="M137.9,62.985v-43.6a113.2,113.2,0,0,0,5.157-13.525L139.94,4.018a100.092,100.092,0,0,1-13.216,29.1l1.827,3.246c1.934-2.921,3.975-6.384,6.017-9.954V63.094H137.9Z" transform="translate(183.256 5.395)" fill="#494949" fill-rule="evenodd"/><path d="M124.058,12.325H103.643l2.149-1.3h.107v-.108c-.215-.541-.86-1.948-1.612-3.462-.645-1.407-1.289-2.7-1.612-3.462V3.886L99.56,5.725v.108q1.612,3.084,2.9,5.843a1.835,1.835,0,0,1,.215.541H82.261v3.354h41.8Z" transform="translate(118.769 5.203)" fill="#494949" fill-rule="evenodd"/><path d="M75.316,9.024H72.2V20.06h-5.91V4.371H63.175V20.06H57.051V9.024H53.935V23.2H75.316Z" transform="translate(77.686 5.907)" fill="#494949" fill-rule="evenodd"/><rect width="18.91" height="3.138" transform="translate(132.588 35.272)" fill="#494949"/><path d="M60.892,24.428V21.615h9.563v6.925c-.107,2.489-.215,3.246-1.074,4.328l1.934,3.354.107-.108c1.719-1.407,4.513-3.787,8.488-7.357h.107l-1.5-2.6-.107-.108-4.835,4.111V18.369H57.562v4.761c.43,6.492-1.182,11.144-4.835,13.849h-.107l1.719,3.03.107.108.107-.108C59.066,36.438,61.215,31.136,60.892,24.428Z" transform="translate(75.778 26.208)" fill="#494949" fill-rule="evenodd"/><path d="M47.664,19.643,49.6,22.889a62.027,62.027,0,0,0,12.034-17.1l-2.9-1.731A55.829,55.829,0,0,1,47.664,19.643Z" transform="translate(68.592 5.459)" fill="#494949" fill-rule="evenodd"/><path d="M47.313,29.9l1.719,3.03.107.108.107-.108c1.827-2.164,3.653-4.436,5.372-6.816V53.379h3.116V20.92a77.141,77.141,0,0,0,4.083-8.439v-.108L58.81,10.642v.108A69.122,69.122,0,0,1,47.313,29.9Z" transform="translate(68.083 15.001)" fill="#494949" fill-rule="evenodd"/><path d="M86.31,18.713V15.575H72.449A67.048,67.048,0,0,0,75.458,4.106H72.234c-2.041,9.521-5.157,17.852-9.133,24.344l1.934,3.462,1.4-2.921c.537-.974.967-1.731,1.289-2.38.967,8.439,2.686,15.256,5.05,20.233a50.406,50.406,0,0,1-10.53,12.334h-.107l1.827,3.138.107.108.107-.108c4.942-4.652,8.381-8.764,10.207-12.118a67.65,67.65,0,0,0,9.563,12.334l.107.108,1.827-3.246v-.108h-.107A53.192,53.192,0,0,1,76.1,47.061c3.546-6.492,5.695-16.013,6.554-28.348Zm-11.5,24.344c-2.041-5.3-3.546-12.551-4.513-21.531a22.039,22.039,0,0,1,1.182-2.813h8.381C79.111,28.884,77.5,37.106,74.813,43.057Z" transform="translate(89.579 5.523)" fill="#494949"/><path d="M158.427,15.743V12.389H131.887V3.842h-3.438v8.548H102.125v3.354h26.324V26.887H111.365v3.03a58.031,58.031,0,0,0,7.951,12.443,60.471,60.471,0,0,0,7.844,8.007,70.048,70.048,0,0,1-23.853,9.3l1.934,3.462a80.6,80.6,0,0,0,24.605-10.6c1.612,1.082,9.24,7.141,23.423,10.6h.107l1.4-2.6s-3.653-.974-9.24-3.138a68.608,68.608,0,0,1-13.323-6.925,49.417,49.417,0,0,0,16.654-21.856L146.07,27H131.78V15.743ZM145,29.809s-3.438,9.846-15.15,18.285A52.146,52.146,0,0,1,114.8,29.809Z" transform="translate(147.578 5.139)" fill="#494949"/><path d="M155.337,58.529H153.4v3.354h2.9c3.331,0,5.05-.757,6.554-2.164,1.4-1.407,2.042-3.462,1.934-6.275V21.959h9.025V18.6h-9.025V4.106h-3.331V18.6H133.74v3.354h27.721V53.444C161.354,56.906,159.2,58.529,155.337,58.529Z" transform="translate(193.431 5.523)" fill="#494949" fill-rule="evenodd"/><path d="M143.491,31.459l3.331-1.948c-1.827-3.679-4.19-8.548-7.091-14.5l-3.008,1.839Q139.623,22.857,143.491,31.459Z" transform="translate(197.756 21.341)" fill="#494949" fill-rule="evenodd"/></g><text transform="translate(1021 4456)" fill="#495a7c" font-size="28" font-family="PingFangSC-Medium, PingFang SC" font-weight="500" letter-spacing="0.02em"><tspan x="0" y="0">支付通道合作商</tspan></text><rect width="47" height="6" transform="translate(1021 4394)" fill="#0e4efb"/><text transform="translate(1021 4503)" fill="#333f51" font-size="20" font-family="DINPro-Regular, DINPro" letter-spacing="0.01em"><tspan x="0" y="0">PAYMENT CHANNEL PARTNERS</tspan></text></g></g><g transform="translate(864 4621)"><g transform="translate(23 20)" fill="#fff" stroke="#316cfb" stroke-width="2" opacity="0.2"><rect width="510" height="386" rx="25" stroke="none"/><rect x="1" y="1" width="508" height="384" rx="24" fill="none"/></g><g fill="#fff" stroke="#316cfb" stroke-width="2" opacity="0.999"><rect width="510" height="386" rx="25" stroke="none"/><rect x="1" y="1" width="508" height="384" rx="24" fill="none"/></g><g transform="translate(-971 -4173)"><g transform="translate(1019.498 4233)"><path d="M1851.4,73.739h25.089v4.967h8.958V72.821c0-.014,0-.02,0-.034a2.387,2.387,0,0,0-2.32-2.415h-14.5V65.741h-9.377v4.628h-16.8V78.7h8.958Zm-54.275-7.57-9.188,21.725h7.049v25.852h7.705V79.454h-2.79l5.8-13.286Zm89.386,46.507-2.848-9.624a1.464,1.464,0,0,0-1.388-1.047h-7.462l2.162,7.3h-8.769V95.163h17.223V91.8h-17.223V85.137h17.223V81.768h-42.986v3.369h17.223V91.8h-17.223v3.367h17.223v14.146h-17.223v3.367Zm-71.266-29.711h-6.67l5.2,16.365h7.894l-4.835-15.35a1.784,1.784,0,0,0-1.586-1.015" transform="translate(-1636.354 -60.218)" fill="#3d3939"/><path d="M1319.867,68.033h-8.009V76.4H1292.12v3.367h19.738v30.084a1.386,1.386,0,0,1-1.291,1.262H1306.5V114.6h10.381a3.158,3.158,0,0,0,2.991-3.123V79.768h3.255V76.4h-3.255V68.033Zm-47,44.029a94.962,94.962,0,0,1-17.653-8.414c6.59-4.884,12.362-11.508,14.679-20.372h-15.385V77.763h17.839V74.331h-17.839V67.345h-7.952l0,0a1.6,1.6,0,0,0-1.574,1.632v5.354h-17.713v3.433h17.713v5.512h-14.949V86.71h29.777s-1.652,6.441-9.819,13.366c-7.315-5.54-9.764-9.953-9.764-9.953h-7.989A44.492,44.492,0,0,0,1245,103.764a69.243,69.243,0,0,1-18.043,8.081v4.112a80.574,80.574,0,0,0,23.11-8.91,82.77,82.77,0,0,0,22.8,8.91Zm-28.223,26.115,1.331,4.015h3.728l-7.344-19.939h-2.85l-7.318,19.939h3.731l1.388-4.015Zm-3.6-10.782,2.759,8.27h-5.618Zm20.429-5.142v19.939h12.076V139.48h-8.488V122.254Zm25.229,0h3.587v19.939H1286.7Zm25.875,0h-7.751v19.939h3.587v-7.665h4.164c3.868,0,6.567-2.523,6.567-6.137s-2.7-6.137-6.567-6.137m-.2,9.535h-3.96v-6.822h3.96a3.283,3.283,0,0,1,3.18,3.424,3.231,3.231,0,0,1-3.18,3.4m27.833,6.389,1.331,4.015h3.728l-7.344-19.939h-2.85l-7.318,19.939h3.731l1.388-4.015ZM1336.6,127.4l2.759,8.27h-5.617Zm28.642-5.142-3.911,8.5-3.972-8.5h-3.874L1359.521,134v8.19h3.559V134l.023-.046,6.016-11.7Z" transform="translate(-1122.502 -61.687)" fill="#3d3939"/><path d="M125.026,554.89c-2.156.215-6.2,1.164-8.416,3.114-6.633,5.767-2.664,16.308,10.756,16.308,7.8,0,15.6-4.975,21.722-12.936-8.709-4.238-16.09-7.269-24.062-6.487" transform="translate(-102.554 -508.16)" fill="#1677ff"/><path d="M73.961,0H15.324A13.8,13.8,0,0,0,1.5,13.782V72.247A13.8,13.8,0,0,0,15.321,86.026h58.64A13.8,13.8,0,0,0,87.777,72.247v-.562S65.338,62.356,54,56.925c-7.6,9.323-17.4,14.983-27.581,14.983C9.21,71.908,3.366,56.888,11.516,47c1.778-2.156,4.8-4.213,9.492-5.368,7.338-1.8,19.021,1.121,29.967,4.723a59.978,59.978,0,0,0,4.861-11.84H22.094V31.1H39.489V25H18.421v-3.41H39.489V12.873A1.445,1.445,0,0,1,40.98,11.4h8.5V21.587H70.316V25H49.483V31.1h17a69.243,69.243,0,0,1-7.2,18.135c5.159,1.861,9.793,3.625,13.245,4.777,12.422,4.149,15.241,4.373,15.241,4.373V13.782A13.79,13.79,0,0,0,73.961,0" fill="#1677ff"/></g><text transform="translate(1021 4456)" fill="#495a7c" font-size="28" font-family="PingFangSC-Medium, PingFang SC" font-weight="500" letter-spacing="0.02em"><tspan x="0" y="0">支付通道合作商</tspan></text><rect width="47" height="6" transform="translate(1021 4394)" fill="#0e4efb"/><text transform="translate(1021 4503)" fill="#333f51" font-size="20" font-family="DINPro-Regular, DINPro" letter-spacing="0.01em"><tspan x="0" y="0">PAYMENT CHANNEL PARTNERS</tspan></text></g></g><g transform="translate(1484 4621)"><g transform="translate(23 20)" fill="#fff" stroke="#316cfb" stroke-width="2" opacity="0.2"><rect width="510" height="386" rx="25" stroke="none"/><rect x="1" y="1" width="508" height="384" rx="24" fill="none"/></g><g fill="#fff" stroke="#316cfb" stroke-width="2" opacity="0.999"><rect width="510" height="386" rx="25" stroke="none"/><rect x="1" y="1" width="508" height="384" rx="24" fill="none"/></g><g transform="translate(-971 -4173)"><text transform="translate(1021 4456)" fill="#495a7c" font-size="28" font-family="PingFangSC-Medium, PingFang SC" font-weight="500" letter-spacing="0.02em"><tspan x="0" y="0">支付通道合作商</tspan></text><rect width="47" height="6" transform="translate(1021 4394)" fill="#0e4efb"/><text transform="translate(1021 4503)" fill="#333f51" font-size="20" font-family="DINPro-Regular, DINPro" letter-spacing="0.01em"><tspan x="0" y="0">PAYMENT CHANNEL PARTNERS</tspan></text><g transform="translate(1005.674 3985.353)"><path d="M589.914,320.689a14.8,14.8,0,0,1-14.8,14.8h-63.64a14.8,14.8,0,0,1-14.8-14.8V257.05a14.8,14.8,0,0,1,14.8-14.8h63.64a14.8,14.8,0,0,1,14.8,14.8v63.64Z" transform="translate(-396.446)" fill="#234591"/><path d="M105.565,320.689a14.8,14.8,0,0,1-14.8,14.8H27.126a14.8,14.8,0,0,1-14.8-14.8V257.05a14.8,14.8,0,0,1,14.8-14.8h63.64a14.8,14.8,0,0,1,14.8,14.8Z" fill="#f1c01f"/><path d="M496.675,285.588v63.64a14.727,14.727,0,0,0,2.668,8.472,14.727,14.727,0,0,0,2.668-8.472v-63.64a14.727,14.727,0,0,0-2.668-8.472A14.727,14.727,0,0,0,496.675,285.588Z" transform="translate(-396.446 -28.538)" fill="#43a159"/><path d="M127.28,554.414q4.866-5.438,10.361-12.7l-4.722-2.916q-4.548,6.146-9.574,11.744C124.816,551.666,125.873,553.247,127.28,554.414Z" transform="translate(-90.87 -242.729)" fill="#f9f9f9"/><path d="M174.472,365.288H148.886V350.547H143.5v14.741H124.534l2.468-18.7q20.455-.39,43.574-2.533l-1.753-5.065q-22.014,2.468-46.626,2.987l-3.766,28.249H143.5V390.16c0,.163-.006.318-.014.472a5.638,5.638,0,0,1-.305,1.611h5.654c.036-.513.055-1.054.055-1.628V370.224h25.586v-4.935Z" transform="translate(-86.847 -79.181)" fill="#f9f9f9"/><path d="M362.353,398.221a44.57,44.57,0,0,0,4.432-3.579q-4.337-5.142-9.238-10.321c-1.14,1.378-2.442,2.594-3.559,4Q358.391,393.3,362.353,398.221Zm83.787-45.044a18.952,18.952,0,0,1-4.546-.018v33.922a38.737,38.737,0,0,1,4.546-1.236Zm-39.872-2.172h-4.676m0-4.5v4.5h4.676v-.086h24.741V359.1H406.268v-2.308h-4.676v16.724q0,15.481-4.429,24.7a18.571,18.571,0,0,1,5.4-.569q3.7-9.718,3.7-24.2v-9.935h24.741l4.676.029V346.5Z" transform="translate(-279.654 -85.332)" fill="#f9f9f9"/><path d="M674.849,374.861v-6.3h-4.481v6.3h-10.78v27.4H664V379.017h6.364v23.256c1.493-.114,2.987.192,4.481.183V379.017h6.883v15.975a4.76,4.76,0,0,0,.139.877v0h0v5.914a5.8,5.8,0,0,0,1.01-.167q3.265-.868,3.267-5.651v-21.1Zm27.274-24.813v49.1c0,.67,3.039,1.786,4.732,1.786,0-.1.009-.192.009-.292V350.048Z" transform="translate(-529.792 -88.234)" fill="#f9f9f9"/></g></g></g><g transform="translate(2104 4621)"><g transform="translate(23 20)" fill="#fff" stroke="#316cfb" stroke-width="2" opacity="0.2"><rect width="510" height="386" rx="25" stroke="none"/><rect x="1" y="1" width="508" height="384" rx="24" fill="none"/></g><g fill="#fff" stroke="#316cfb" stroke-width="2" opacity="0.999"><rect width="510" height="386" rx="25" stroke="none"/><rect x="1" y="1" width="508" height="384" rx="24" fill="none"/></g><g transform="translate(-971 -4173)"><text transform="translate(1021 4456)" fill="#495a7c" font-size="28" font-family="PingFangSC-Medium, PingFang SC" font-weight="500" letter-spacing="0.02em"><tspan x="0" y="0">支付通道合作商</tspan></text><rect width="47" height="6" transform="translate(1021 4394)" fill="#0e4efb"/><text transform="translate(1021 4503)" fill="#333f51" font-size="20" font-family="DINPro-Regular, DINPro" letter-spacing="0.01em"><tspan x="0" y="0">PAYMENT CHANNEL PARTNERS</tspan></text></g><g transform="translate(50 60.047)"><path d="M157.926,40.128a4.809,4.809,0,0,0-.326,2.117c.163,3.908,4.56,6.839,9.77,6.676s9.282-3.582,9.119-7.491a5.716,5.716,0,0,0-.977-2.931,24.382,24.382,0,0,1-10.91,2.443A28.831,28.831,0,0,1,157.926,40.128Z" transform="translate(102.323 25.176)" fill="url(#d)"/><path d="M192.144,20.427c-1.791-3.094-7-3.582-11.724-.977A13.582,13.582,0,0,0,177,22.055a26.055,26.055,0,0,1,.814,6.351,29.076,29.076,0,0,1-.326,3.745c2.443.977,5.862.489,9.119-1.14C191.493,28.08,193.935,23.521,192.144,20.427Z" transform="translate(115.157 11.625)" fill="url(#e)"/><path d="M172.866,12.3a4.81,4.81,0,0,0,.326-2.117c-.163-3.908-4.56-6.839-9.77-6.676s-9.282,3.582-9.119,7.491a5.716,5.716,0,0,0,.977,2.931,24.382,24.382,0,0,1,10.91-2.443A27.756,27.756,0,0,1,172.866,12.3Z" transform="translate(100.179 2.227)" fill="url(#f)"/><path d="M152.05,22.093c-2.443-.977-5.862-.489-9.119,1.14-4.722,2.605-7.165,7.165-5.537,10.422,1.791,3.094,7,3.582,11.724.977a13.582,13.582,0,0,0,3.42-2.605,26.055,26.055,0,0,1-.814-6.351A29.248,29.248,0,0,1,152.05,22.093Z" transform="translate(88.847 14.121)" fill="url(#g)"/><path d="M207.042,14.581c1.466,2.931-1.628,7.328-6.676,9.77s-10.259,1.954-11.724-.977,1.628-7.328,6.676-9.77S205.576,11.649,207.042,14.581Z" transform="translate(122.243 7.884)" fill="url(#h)"/><path d="M187.191,44.238c.977,3.42-2.443,7.165-7.653,8.793-5.211,1.466-10.1,0-11.073-3.42s2.443-7.165,7.653-8.793C181.329,39.353,186.214,40.818,187.191,44.238Z" transform="translate(109.688 26.277)" fill="url(#i)"/><path d="M201.849,23.863c1.628,2.768-.977,7.328-5.7,10.1-4.885,2.931-10.1,2.931-11.562.326-1.628-2.768.977-7.328,5.7-10.1C195.009,21.258,200.22,21.1,201.849,23.863Z" transform="translate(119.62 14.309)" fill="url(#j)"/><path d="M193.774,33.836c1.628,3.257-.977,7.816-5.862,10.422-4.885,2.443-10.1,1.791-11.724-1.466s.977-7.816,5.862-10.422C186.772,29.928,191.982,30.579,193.774,33.836Z" transform="translate(114.342 20.191)" fill="url(#k)"/><path d="M162.509,43.437c-2.28,1.954-6.839.489-10.259-3.42s-4.234-8.631-1.954-10.585,6.839-.489,10.259,3.42S164.789,41.483,162.509,43.437Z" transform="translate(96.705 18.686)" fill="url(#l)"/><path d="M180.887,28.415c-2.443-3.582-7.816-4.234-12.213-1.3s-5.862,8.142-3.42,11.724,7.816,4.234,12.213,1.3C181.7,37.371,183.166,32,180.887,28.415Z" transform="translate(107.036 16.538)" fill="url(#m)"/><path d="M123.941,39.074c-1.466-2.931,1.628-7.328,6.676-9.77s10.259-1.954,11.724.977-1.628,7.328-6.676,9.77C130.454,42.494,125.244,42.168,123.941,39.074Z" transform="translate(80.235 18.124)" fill="url(#n)"/><path d="M143.764,9.312c-.977-3.42,2.443-7.165,7.653-8.793,5.211-1.466,10.1,0,11.073,3.42.977,3.257-2.443,7.165-7.653,8.793C149.627,14.2,144.578,12.731,143.764,9.312Z" transform="translate(93.234 0)" fill="url(#o)"/><path d="M128.687,30.061c-1.628-2.768.977-7.328,5.862-10.1,4.885-2.931,10.1-2.931,11.562-.326,1.628,2.768-.977,7.328-5.7,10.1C135.526,32.666,130.315,32.829,128.687,30.061Z" transform="translate(83.232 11.594)" fill="url(#p)"/><path d="M136.987,20.292c-1.628-3.257.977-7.816,5.862-10.422,4.885-2.443,10.1-1.791,11.724,1.466s-.977,7.816-5.862,10.422C143.989,24.2,138.615,23.549,136.987,20.292Z" transform="translate(88.622 5.508)" fill="url(#q)"/><path d="M166.679,11.033c2.28-1.954,6.839-.489,10.259,3.42s4.234,8.631,1.954,10.585-6.839.489-10.259-3.42C165.377,17.709,164.4,12.987,166.679,11.033Z" transform="translate(107.891 6.672)" fill="url(#r)"/><path d="M149.641,26.437c2.443,3.582,7.816,4.234,12.213,1.3s5.862-8.142,3.42-11.724-7.816-4.234-12.213-1.3C148.827,17.481,147.2,22.691,149.641,26.437Z" transform="translate(96.404 8.437)" fill="url(#s)"/><g transform="translate(0 23.091)"><path d="M114.394,27.336l-2.443,2.931V20.5h16.935V16.1H87.2v4.4h16.447V54.856h8.3V31.9a30.632,30.632,0,0,1,12.864,9.282l4.722-6.839s-6.676-6.351-15.144-7" transform="translate(54.796 -12.355)" fill="#023886"/><path d="M85.729,33.624h17.912V29.39H85.566c0-3.582.163-7.328.163-8.793H99.9V16.2H63.745v4.4H78.727a71.416,71.416,0,0,1-.489,8.793H60v4.234H77.261C73.353,44.7,60,48.117,60,48.117s2.605,1.14,5.048,6.188c0,0,11.4-3.908,16.61-14.33.163-.163.163-.489.326-.651,5.537,11.562,18.075,14.33,18.564,14.493a19.782,19.782,0,0,1,5.374-6.025S91.265,45.348,85.729,33.624" transform="translate(37.704 -12.292)" fill="#023886"/><path d="M43.118,55.421V25.459C46.7,19.76,46.864,15.2,46.864,15.2h-7C38.07,24.156,28.3,33.112,28.3,33.112a29.982,29.982,0,0,1,1.628,5.048A28.045,28.045,0,0,0,35.3,33.927V55.259h7.816Z" transform="translate(17.784 -12.92)" fill="#023886"/><path d="M39.9,24.745v4.4H54.718V49.659c0,1.954-1.628,1.791-1.628,1.791H46.576a30.159,30.159,0,0,0,1.466,3.908H56.51c5.862,0,5.862-4.885,5.862-4.885V29.141h6.676v-4.4H62.372V15.3H54.718v9.445H39.9Z" transform="translate(25.073 -12.857)" fill="#023886"/><path d="M43.494,25.9,40.4,28.505c5.374,3.745,5.7,10.259,5.7,10.259l5.537-3.582A16.407,16.407,0,0,0,43.494,25.9" transform="translate(25.387 -6.196)" fill="#023886"/><path d="M12.411,26.99l2.117-3.745c-1.3-7.491-9.445-9.445-9.445-9.445L1.5,19.825c-.163.163,7.816,1.466,10.91,7.165" transform="translate(0.942 -13.8)" fill="#023886"/><path d="M12.05,33.15l1.791-3.257A12.168,12.168,0,0,0,3.582,21.1L0,27.125s6.676-.651,12.05,6.025" transform="translate(0 -9.213)" fill="#023886"/><path d="M16.421,31.968,13.164,29.2S10.233,37.342.3,42.227l6.514,4.4a21.531,21.531,0,0,0,9.608-14.656" transform="translate(0.189 -4.123)" fill="#023886"/><path d="M11.5,15.5V48.556c0,6.351,6.676,6.188,6.676,6.188h19.7V50.511H21.27c-1.954,0-1.791-1.628-1.791-1.628V20.06h18.4V15.5Z" transform="translate(7.227 -12.732)" fill="#023886"/></g></g></g></g></svg>