<svg xmlns="http://www.w3.org/2000/svg" xmlns:xlink="http://www.w3.org/1999/xlink" width="137" height="138" viewBox="0 0 137 138">
  <defs>
    <style>
      .cls-1 {
        fill: url(#linear-gradient);
      }

      .cls-2 {
        fill: url(#linear-gradient-2);
      }

      .cls-3 {
        fill: #e5eeff;
      }

      .cls-4 {
        filter: url(#矩形_166);
      }
    </style>
    <linearGradient id="linear-gradient" x1="0.5" x2="0.5" y2="1" gradientUnits="objectBoundingBox">
      <stop offset="0" stop-color="#659cfc"/>
      <stop offset="1" stop-color="#3079fc"/>
    </linearGradient>
    <filter id="矩形_166" x="0" y="0" width="137" height="138" filterUnits="userSpaceOnUse">
      <feOffset dy="5" input="SourceAlpha"/>
      <feGaussianBlur stdDeviation="10" result="blur"/>
      <feFlood flood-color="#5a94fc" flood-opacity="0.192"/>
      <feComposite operator="in" in2="blur"/>
      <feComposite in="SourceGraphic"/>
    </filter>
    <linearGradient id="linear-gradient-2" x1="0.5" x2="0.5" y2="1" gradientUnits="objectBoundingBox">
      <stop offset="0" stop-color="#f6faff"/>
      <stop offset="1" stop-color="#e2ecff"/>
    </linearGradient>
  </defs>
  <g id="组_574" data-name="组 574" transform="translate(-1039 -1195)">
    <g class="cls-4" transform="matrix(1, 0, 0, 1, 1039, 1195)">
      <rect id="矩形_166-2" data-name="矩形 166" class="cls-1" width="77" height="78" rx="4" transform="translate(30 25)"/>
    </g>
    <rect id="矩形_167" data-name="矩形 167" class="cls-2" width="64" height="16" rx="2" transform="translate(1076 1230)"/>
    <circle id="椭圆_29" data-name="椭圆 29" class="cls-1" cx="2.5" cy="2.5" r="2.5" transform="translate(1081 1236)"/>
    <rect id="矩形_168" data-name="矩形 168" class="cls-2" width="64" height="16" rx="2" transform="translate(1076 1253)"/>
    <circle id="椭圆_30" data-name="椭圆 30" class="cls-1" cx="2.5" cy="2.5" r="2.5" transform="translate(1081 1259)"/>
    <path id="服务提供者管理" class="cls-3" d="M25.407,74.767A3.865,3.865,0,0,0,22.923,76C21.681,77.232,1.773,94.482.531,95.712a1.939,1.939,0,0,0,.621,3.08l16.79,17.871s1.242,2.459,4.353,0c1.863-1.236,7.464-6.166,7.464-6.166a7.488,7.488,0,0,1,4.98-1.844H71.431a3.266,3.266,0,0,0,3.1-.621C75.79,106.808,93.823,90.794,98.8,86.478c1.242-1.229,0-3.695,0-3.695q-.03-.05-.062-.1l-.174-.261c-.944-1.3-4.831-5.452-12.823.36-6.222,4.924-14.928,11.09-14.928,11.09H49.667l-6.216-4.316s-1.863-1.229,0-1.229c4.974-.621,10.569-1.85,13.679-2.465a6.018,6.018,0,0,0,4.98-6.16c0-4.316-4.98-4.93-4.98-4.93Z" transform="translate(1054.611 1201.739)"/>
  </g>
</svg>
