<svg xmlns="http://www.w3.org/2000/svg" xmlns:xlink="http://www.w3.org/1999/xlink" width="154" height="154" viewBox="0 0 154 154">
  <defs>
    <style>
      .cls-1 {
        fill: url(#linear-gradient);
      }

      .cls-2 {
        fill: url(#linear-gradient-3);
      }

      .cls-3 {
        filter: url(#矩形_163);
      }
    </style>
    <linearGradient id="linear-gradient" x1="0.5" x2="0.5" y2="1" gradientUnits="objectBoundingBox">
      <stop offset="0" stop-color="#f4f8ff"/>
      <stop offset="1" stop-color="#e2edff"/>
    </linearGradient>
    <linearGradient id="linear-gradient-3" x1="0.5" x2="0.5" y2="1" gradientUnits="objectBoundingBox">
      <stop offset="0" stop-color="#659cfc"/>
      <stop offset="1" stop-color="#3079fc"/>
    </linearGradient>
    <filter id="矩形_163" x="0" y="0" width="154" height="154" filterUnits="userSpaceOnUse">
      <feOffset dy="10" input="SourceAlpha"/>
      <feGaussianBlur stdDeviation="15" result="blur"/>
      <feFlood flood-color="#5a94fc" flood-opacity="0.192"/>
      <feComposite operator="in" in2="blur"/>
      <feComposite in="SourceGraphic"/>
    </filter>
  </defs>
  <g id="组_3559" data-name="组 3559" transform="translate(-1239.355 -3601.25)">
    <path id="路径_348" data-name="路径 348" class="cls-1" d="M0,0H22V41L11.874,29.7,0,41Z" transform="translate(1289.5 3689.997) rotate(30)"/>
    <path id="路径_349" data-name="路径 349" class="cls-1" d="M0,41H22V0L11.874,11.3,0,0Z" transform="translate(1363.105 3725.504) rotate(150)"/>
    <g class="cls-3" transform="matrix(1, 0, 0, 1, 1239.36, 3601.25)">
      <rect id="矩形_163-2" data-name="矩形 163" class="cls-2" width="64" height="64" rx="4" transform="translate(45 35)"/>
    </g>
    <rect id="矩形_164" data-name="矩形 164" class="cls-2" width="64" height="64" rx="4" transform="translate(1304.643 3624.537) rotate(30)"/>
    <rect id="矩形_165" data-name="矩形 165" class="cls-2" width="64" height="64" rx="4" transform="translate(1328.068 3624.537) rotate(60)"/>
    <path id="icon_皇冠" class="cls-1" d="M150.066,222.26a1.376,1.376,0,0,0-.934.36c-.015.015-.02.01-.015-.01l-9.015,7.809-7.342-14.125a1.931,1.931,0,0,0-3.166.241l-7.219,13.884-9.3-8.06a1.409,1.409,0,0,0-.662-.163,1.32,1.32,0,0,0-1.344,1.291q0,.089-.031.089l2.878,20.648a1.97,1.97,0,0,0-.015-.241,3.853,3.853,0,0,0,2.545,3.124,2.2,2.2,0,0,0-.359-.1c2.889,1.04,27.373.823,30.3-.276a2.144,2.144,0,0,0-.344.094,3.866,3.866,0,0,0,2.545-3.129,2.416,2.416,0,0,0-.01.468l2.858-20.54a.131.131,0,0,1-.021-.084,1.319,1.319,0,0,0-1.349-1.281Z" transform="translate(1185.07 3436.421)"/>
  </g>
</svg>
