<svg xmlns="http://www.w3.org/2000/svg" xmlns:xlink="http://www.w3.org/1999/xlink" width="168.155" height="149.231" viewBox="0 0 168.155 149.231">
  <defs>
    <style>
      .cls-1 {
        fill: url(#linear-gradient);
      }

      .cls-2 {
        fill: #d7e2fe;
      }

      .cls-3 {
        fill: #e5eeff;
      }

      .cls-4 {
        filter: url(#路径_2784);
      }
    </style>
    <linearGradient id="linear-gradient" x1="0.5" x2="0.5" y2="1" gradientUnits="objectBoundingBox">
      <stop offset="0" stop-color="#659cfc"/>
      <stop offset="1" stop-color="#3079fc"/>
    </linearGradient>
    <filter id="路径_2784" x="0" y="0" width="168.155" height="149.231" filterUnits="userSpaceOnUse">
      <feOffset dy="5" input="SourceAlpha"/>
      <feGaussianBlur stdDeviation="10" result="blur"/>
      <feFlood flood-color="#5a94fc" flood-opacity="0.192"/>
      <feComposite operator="in" in2="blur"/>
      <feComposite in="SourceGraphic"/>
    </filter>
  </defs>
  <g id="组_3562" data-name="组 3562" transform="translate(-2057 -1156)">
    <g class="cls-4" transform="matrix(1, 0, 0, 1, 2057, 1156)">
      <path id="路径_2784-2" data-name="路径 2784" class="cls-1" d="M384.531,389.781l-15.886,59.832a13.928,13.928,0,0,1-1.851.024l-15.886-59.856Zm-42.5,0,15.736,59.271a13.64,13.64,0,0,1-2.14-.838l-42.354-57.059a13.777,13.777,0,0,1-.175-1.375h28.939Zm79.113,0q-.043.6-.139,1.2L378.454,448.3a13.638,13.638,0,0,1-1.6.651l15.706-59.169Zm-41.226-29.355,4.7,21.433H350.823l4.691-21.433Zm-33.359,0-4.7,21.433H313.105c.054-.38.121-.76.211-1.133L326.248,365.3a13.626,13.626,0,0,1,10.436-4.878Zm50.782,0a13.625,13.625,0,0,1,10.442,4.878l13.469,16.073-.223.482H392.61l-4.7-21.433Z" transform="translate(-283.1 -335.43)"/>
    </g>
    <g id="组_3561" data-name="组 3561" transform="translate(4 0.384)">
      <path id="路径_2785" data-name="路径 2785" class="cls-1" d="M19.5,0A19.5,19.5,0,1,1,0,19.5,19.5,19.5,0,0,1,19.5,0Z" transform="translate(2152 1231.616)"/>
      <path id="交叉_4" data-name="交叉 4" class="cls-2" d="M-2931.179,37.988a19.418,19.418,0,0,1-11.843-4.539c.76-2.036,2.1-4.086,4.443-4.551l4.681-.657.045.026.479-.067V25.826a6.273,6.273,0,0,1-1.879-1.969,9.382,9.382,0,0,1-1.35-4.828V16.69l-.795-4.315a3.2,3.2,0,0,1,2.261-3.575,2.894,2.894,0,0,1,.458-.037,2.836,2.836,0,0,1,2.7-1.952h7.651l3.309-.81-.092.81c-.138,1.768-.926,1.874-.617,4.36a17.613,17.613,0,0,1-.662,5.519v2.34a9.39,9.39,0,0,1-1.351,4.828,6.262,6.262,0,0,1-1.879,1.969V28.2l.521.073,4.686.651a5.711,5.711,0,0,1,3.331,3.726,19.431,19.431,0,0,1-12.739,5.338Zm1.681-7.181h0l-.219-.126Z" transform="translate(5101.983 1232.615)"/>
      <path id="路径_366" data-name="路径 366" class="cls-3" d="M467.621,843.83l-2.289-1.526-2.292,1.526.763,2.289-.444,4.631,3.949.016-.453-4.646Z" transform="translate(1707.163 419.85)"/>
    </g>
  </g>
</svg>
