<svg xmlns="http://www.w3.org/2000/svg" width="279.516" height="56.354" viewBox="0 0 279.516 56.354">
  <defs>
    <style>
      .cls-1 {
        fill: #2c67ff;
      }

      .cls-2 {
        fill: #333;
      }
    </style>
  </defs>
  <g id="组_55" data-name="组 55" transform="translate(-240 -43)">
    <path id="路径_211" data-name="路径 211" class="cls-1" d="M199.545,103.23l-.455.38h0l-.9.826h0l-6.609,5.975-11.6,10.575h0l-.688.625h0a5.639,5.639,0,0,0-.134,7.136,5,5,0,0,0,6.712,1.115l.931-.847h0l2.544-2.308,8.915-8.1,6.661-6.045h0c.238-.234.481-.451.729-.663l.036-.033a17.956,17.956,0,0,1,10.441-3.889A16.556,16.556,0,0,1,231.4,118.629c.1.25.2.505.284.76a18.068,18.068,0,0,1,1.034,5.817,16.014,16.014,0,0,0-4.194-3.645,14.34,14.34,0,0,0-6.79-2.118,15.192,15.192,0,0,0-11.961,4.606l-8.921,8.1-6.521,5.915h0l-.967.88-.031.027-.46.369a15.942,15.942,0,0,1-18.446.907,17.3,17.3,0,0,1-6.723-8.148,18.2,18.2,0,0,1,.959-15.509,16.563,16.563,0,0,1,12.368-8.532,15.861,15.861,0,0,1,4.458.081h.078a5.162,5.162,0,0,0,5.875-4.459,5.358,5.358,0,0,0-4.246-6.17h-.15a26.543,26.543,0,0,0-9.789.293,27.106,27.106,0,0,0-20.442,21.222,29,29,0,0,0,9.593,28.495,25.825,25.825,0,0,0,33.143,0l.31-.266h.031a12.225,12.225,0,0,0,1.257-1.146l4.908-4.459,1.495-1.352,9.774-8.881h0a5.13,5.13,0,0,1,.517-.462h0a5.382,5.382,0,0,1,5.677-.733,5.873,5.873,0,0,1,3.329,4.884,5.989,5.989,0,0,1-2.49,5.408h0a5.078,5.078,0,0,1-1.034.543h0a15.845,15.845,0,0,1-7.2,1.727,16.305,16.305,0,0,1-2.483-.19h-.108a5.352,5.352,0,0,0-.724-.054,5.13,5.13,0,0,0-4.742,3.341,5.564,5.564,0,0,0-.383,2.042,5.326,5.326,0,0,0,4.091,5.274h.088l.321.054h.1a25.371,25.371,0,0,0,3.873.293,25.964,25.964,0,0,0,20.887-10.51h0a29.226,29.226,0,0,0-1.824-37.457,25.881,25.881,0,0,0-35.638-2.352" transform="translate(83.867 -54.19)"/>
    <g id="组_17" data-name="组 17" transform="translate(349.338 44.56)">
      <path id="路径_213" data-name="路径 213" class="cls-2" d="M-128.874-40.747l.021-4.192,5.209.045v-2.959l3.854.7v2.263h5.021v4.147Zm.063,30.8v-4.214L-115-16.944v4.214Zm1.25-8.7v-19.41h3.6v19.41Zm7.376,0v-19.41h3.6v19.41Zm7.063-28.645h3.854v7.8h1.021l4.438.022v-8.518h3.834v8.518l4-.022h1.521v-2.085l-.021-5.716h3.854l-.021,7.8a4.621,4.621,0,0,1-.833,2.869,3.309,3.309,0,0,1-2.813,1.3h-14.668a3.976,3.976,0,0,1-3.667-1.7,4.97,4.97,0,0,1-.5-2.511Zm.083,18.134v-4.124h22.731v4.124h-9.48v2.331h5.834a3.4,3.4,0,0,1,2.5,1.076,3.454,3.454,0,0,1,1.083,2.488v13.247h-3.854V-22.68h-2.542V-9.925h-3.542V-22.68h-2.75V-9.925h-3.6V-22.68h-1.583c-.2-.005-.875,0-.875,0v12.665h-3.854l-.042-13.046a3.747,3.747,0,0,1,.979-2.533,3.211,3.211,0,0,1,2.5-1.233h5.9v-2.331Zm28,19.1v-4.169a.825.825,0,0,0,.688-.224,2.522,2.522,0,0,0,.271-1.435l.021-3.048H-80.2v3.205a5.553,5.553,0,0,1-1.938,4.618A5.282,5.282,0,0,1-85.038-10.06Zm10.334-28V-48.211h3.854v2.331h23.481v4.147H-70.849v3.676h18.293a5.441,5.441,0,0,1,4.125,1.636,4.914,4.914,0,0,1,1.458,3.5v5.761a5.8,5.8,0,0,1-1.5,4.147,5.273,5.273,0,0,1-4.063,1.547H-78.579q-6.146,0-6.146-5.716v-5.357a5.372,5.372,0,0,1,2.167-4.506,6.727,6.727,0,0,1,4.125-1.031Zm-3.375,12.508h24.689a2.663,2.663,0,0,0,1.917-.695,3.621,3.621,0,0,0,.708-2.645V-31.2q0-2.712-3-2.712H-78.454a4.147,4.147,0,0,0-1.771.717,5.178,5.178,0,0,0-.688,1.995v2.354a3.573,3.573,0,0,0,.813,2.757A3.024,3.024,0,0,0-78.079-25.549Zm5.188,15.332v-8.72h3.854v8.72Zm11.126,0v-8.72h3.854v8.72Zm11.313,0-.646-8.72h3.854l.647,8.72Zm9.292.09v-3.855h.1q.771,0,.813-2.174l.229-17.865h3.5l-.1,16.229a21.042,21.042,0,0,1-.333,4.393Q-37.681-10.508-41.16-10.127Zm.4-26.361v-4.08h5.75V-43.75H-40.7v-3.788h14.709v3.788h-5.167v3.183h5.209v4.08h-5.209V-9.97h-3.854V-36.488ZM-29.451-9.97V-34.112h3.271V-9.97Zm5.875-7.33v-4.281h14.4V-48.1h3.854v26.517h2.667V-17.3H-5.324v7.4H-9.178v-7.4Zm1.356-13.9v-4.349l10.208,3.478v4.349Zm0-8.963v-4.349l10.208,3.478v4.349Zm25.146,16.9v-4.371A11.715,11.715,0,0,0,6.051-28.4q.667-.291,2.167-1.1V-39.872H3.051v-4.371H8.218v-3.788h3.854v3.788h4.584v4.371H12.073V-32a16.775,16.775,0,0,1,4.25-1.748V-29.7a25.142,25.142,0,0,0-4.25,2.376v11.208a6.129,6.129,0,0,1-2.167,5.133,6.442,6.442,0,0,1-4,1.076q-.625,0-1.813-.067v-4.124q.667-.045,1-.045a3.462,3.462,0,0,0,2.5-.717A3.25,3.25,0,0,0,8.218-17.1V-24.72a23.657,23.657,0,0,1-3.25,1.143A19.957,19.957,0,0,1,2.926-23.263ZM18.615-9.97v-4.3a40.957,40.957,0,0,0,7.813-4.012,48.378,48.378,0,0,1-5.563-6.254q-.729-1.031-1.833-2.959H23.47a37.124,37.124,0,0,0,3.292,3.945q.958.964,2.938,2.757a43.033,43.033,0,0,0,5.938-5.873q1.583-1.95,1.583-2.623a.666.666,0,0,0-.375-.628,5.426,5.426,0,0,0-1.688-.134H18.615v-4.214h9.417v-6.187H18.615V-44.6h9.417v-3.519l3.854,1.391V-44.6H41.3v4.147H31.887v6.187q4.125,0,5.1.134a4.367,4.367,0,0,1,3.271,1.995,4.721,4.721,0,0,1,.813,2.69,8.3,8.3,0,0,1-2.188,4.976,57.77,57.77,0,0,1-6,6.187,38.463,38.463,0,0,0,4.042,2.511A23.8,23.8,0,0,0,41.3-14.139L41.2-9.97A34.975,34.975,0,0,1,34.783-12.5a51.076,51.076,0,0,1-5.084-3.25,48.2,48.2,0,0,1-5.459,3.519A34.653,34.653,0,0,1,18.615-9.97Z" transform="translate(128.874 48.211)"/>
      <path id="路径_214" data-name="路径 214" class="cls-2" d="M5.315-9.525a3.351,3.351,0,0,0,1.011-.128,2.225,2.225,0,0,0,1.158-.914A3.746,3.746,0,0,0,8-11.956a5.3,5.3,0,0,0,.091-.938,4.37,4.37,0,0,0-.661-2.584A2.442,2.442,0,0,0,5.3-16.4H3.152v6.873ZM1.934-17.44H5.559a3.417,3.417,0,0,1,2.864,1.31A4.83,4.83,0,0,1,9.331-13.1a6.034,6.034,0,0,1-.536,2.577A3.308,3.308,0,0,1,5.547-8.489H1.934ZM21.1-12.157l-1.359-3.954L18.3-12.157ZM19.108-17.44h1.371l3.248,8.951H22.4L21.49-11.17H17.95l-.969,2.681H15.738Zm16.931,0v1.066H33.022v7.885H31.792v-7.885H28.775V-17.44Zm10.4,5.283-1.359-3.954-1.444,3.954ZM44.445-17.44h1.371l3.248,8.951H47.735l-.908-2.681h-3.54l-.969,2.681H41.075Zm11.453,0h4.028a2.73,2.73,0,0,1,1.925.673,2.443,2.443,0,0,1,.731,1.892,2.751,2.751,0,0,1-.652,1.825,2.47,2.47,0,0,1-2,.777H57.11v3.784H55.9Zm5.46,2.571a1.347,1.347,0,0,0-.731-1.341,2.64,2.64,0,0,0-1.1-.189H57.11v3.1h2.413a2.306,2.306,0,0,0,1.325-.347A1.376,1.376,0,0,0,61.357-14.869Zm12.227-2.815a4.1,4.1,0,0,1,3.51,1.523,4.937,4.937,0,0,1,.89,3.041,5.321,5.321,0,0,1-1.018,3.333,4.036,4.036,0,0,1-3.406,1.56,4.071,4.071,0,0,1-3.248-1.365,5.154,5.154,0,0,1-1.054-3.327,5.291,5.291,0,0,1,.9-3.108A3.907,3.907,0,0,1,73.584-17.684Zm.122,8.372a2.524,2.524,0,0,0,2.318-1.149A4.889,4.889,0,0,0,76.74-13.1a3.768,3.768,0,0,0-.826-2.541,2.818,2.818,0,0,0-2.258-.963,2.94,2.94,0,0,0-2.267.954,4.019,4.019,0,0,0-.877,2.812,4.108,4.108,0,0,0,.753,2.507A2.83,2.83,0,0,0,73.705-9.312ZM85.317-17.44h1.225v8.951H85.317Zm8.808,0h1.432l4.521,7.251V-17.44h1.152v8.951H99.871l-4.588-7.245v7.245H94.125Zm21.141,0v1.066H112.25v7.885h-1.231v-7.885H108V-17.44Zm13.238,0v1.066h-3.016v7.885h-1.231v-7.885h-3.016V-17.44Zm6.84,0h6.526v1.1h-5.344v2.718h4.942v1.036h-4.942v3.034h5.435v1.066h-6.617Zm17.595-.244a3.668,3.668,0,0,1,2.638.9,3.163,3.163,0,0,1,1.042,2.035h-1.182a2.46,2.46,0,0,0-.8-1.371,2.54,2.54,0,0,0-1.685-.506,2.7,2.7,0,0,0-2.136.929A4.236,4.236,0,0,0,150-12.852a4.138,4.138,0,0,0,.734,2.55,2.565,2.565,0,0,0,2.191.978,2.314,2.314,0,0,0,2.041-1.03,3.916,3.916,0,0,0,.554-1.426H156.7a4.039,4.039,0,0,1-1.048,2.37,3.729,3.729,0,0,1-2.876,1.152,3.8,3.8,0,0,1-2.62-.944,4.921,4.921,0,0,1-1.4-3.857,4.927,4.927,0,0,1,1.048-3.248A3.828,3.828,0,0,1,152.939-17.684Zm10.886.244h1.225v3.7h4.655v-3.7h1.225v8.951h-1.225v-4.186H165.05v4.186h-1.225Z" transform="translate(-1.448 61.625)"/>
    </g>
  </g>
</svg>
