<svg xmlns="http://www.w3.org/2000/svg" width="25.775" height="25.774" viewBox="0 0 25.775 25.774">
  <defs>
    <style>
      .cls-1 {
        fill: #333f51;
      }
    </style>
  </defs>
  <g id="地球_1_" data-name="地球 (1)" transform="translate(-45.901 -45.747)">
    <path id="路径_215" data-name="路径 215" class="cls-1" d="M511.492,153.48" transform="translate(-452.682 -104.747)"/>
    <path id="路径_216" data-name="路径 216" class="cls-1" d="M164.761,411.643" transform="translate(-115.564 -355.752)"/>
    <path id="路径_217" data-name="路径 217" class="cls-1" d="M58.358,45.747h.856a13.208,13.208,0,0,1,4.348.917A12.9,12.9,0,0,1,71.676,58.4v.462A12.9,12.9,0,0,1,61.555,71.22a14.541,14.541,0,0,1-2.336.3h-.857a13.738,13.738,0,0,1-3.044-.475A12.917,12.917,0,0,1,46.526,62.6a13.134,13.134,0,0,1-.625-3.739V58.4a12.9,12.9,0,0,1,7.622-11.532,13.119,13.119,0,0,1,4.836-1.125ZM55.9,48.5a11.776,11.776,0,0,0-1.783,3.472c.608.153,1.231.219,1.85.312.767.079,1.535.149,2.307.155q0-2.8,0-5.608A4.277,4.277,0,0,0,55.9,48.5ZM59.3,52.434a21.932,21.932,0,0,0,3.116-.272,9.129,9.129,0,0,0,1.041-.2,10.774,10.774,0,0,0-2.229-3.983,3.817,3.817,0,0,0-1.926-1.157c0,1.869,0,3.738,0,5.608ZM54.88,47.44a11.861,11.861,0,0,0-4.793,3.144,13.832,13.832,0,0,0,3.03,1.147,11.428,11.428,0,0,1,2.55-4.525,6.309,6.309,0,0,0-.786.234Zm7.026-.241a8.335,8.335,0,0,1,.689.787,12.974,12.974,0,0,1,1.869,3.749,14.531,14.531,0,0,0,3.03-1.147A11.787,11.787,0,0,0,61.905,47.2ZM49.4,51.39a11.866,11.866,0,0,0-2.454,6.73q2.577,0,5.153,0a23.152,23.152,0,0,1,.724-5.4A15.22,15.22,0,0,1,49.4,51.39Zm15.355,1.333a23.122,23.122,0,0,1,.723,5.4h5.156a11.886,11.886,0,0,0-2.459-6.729,15.148,15.148,0,0,1-3.421,1.334ZM53.128,58.114c1.715.009,3.429,0,5.144,0V53.465a22.755,22.755,0,0,1-4.446-.5,22.093,22.093,0,0,0-.7,5.151ZM59.3,53.464q0,2.327,0,4.653c1.715,0,3.429.006,5.144,0a22.122,22.122,0,0,0-.7-5.152,22.615,22.615,0,0,1-4.446.5Zm-12.36,5.685a11.878,11.878,0,0,0,2.456,6.73,15.244,15.244,0,0,1,3.422-1.334,23.264,23.264,0,0,1-.725-5.4Zm6.185,0a21.878,21.878,0,0,0,.7,5.154,22.392,22.392,0,0,1,4.443-.5q0-2.326,0-4.653c-1.715,0-3.429,0-5.143,0Zm6.175,0V63.8a22.882,22.882,0,0,1,4.447.5,21.676,21.676,0,0,0,.691-5.157c-1.713.006-3.425,0-5.138,0Zm6.173,0a23.066,23.066,0,0,1-.722,5.4,15.111,15.111,0,0,1,3.421,1.334,11.884,11.884,0,0,0,2.458-6.728ZM54.117,65.3a10.708,10.708,0,0,0,2.23,3.988,3.81,3.81,0,0,0,1.925,1.154q0-2.8,0-5.607a21.749,21.749,0,0,0-4.156.464Zm5.188-.465q0,2.8,0,5.608a4.272,4.272,0,0,0,2.37-1.666A11.7,11.7,0,0,0,63.461,65.3c-.626-.151-1.266-.224-1.9-.316-.75-.073-1.5-.144-2.255-.149Zm-9.22,1.848a11.767,11.767,0,0,0,5.585,3.386,11.446,11.446,0,0,1-2.554-4.532,14.208,14.208,0,0,0-3.032,1.145Zm14.377-1.146A11.486,11.486,0,0,1,61.9,70.071a11.815,11.815,0,0,0,5.586-3.387,13.957,13.957,0,0,0-3.028-1.149Zm0,0" transform="translate(0 0)"/>
  </g>
</svg>
