<svg xmlns="http://www.w3.org/2000/svg" width="224" height="58" viewBox="0 0 224 58">
  <defs>
    <style>
      .cls-1 {
        fill: #fffdf8;
        stroke: #d6b274;
        stroke-width: 2px;
      }

      .cls-2, .cls-4, .cls-5 {
        fill: #d6b274;
      }

      .cls-3 {
        fill: #fff;
      }

      .cls-4 {
        font-size: 22px;
        font-family: PingFangSC-Medium, PingFang SC;
        font-weight: 500;
        letter-spacing: 0.03em;
      }

      .cls-5 {
        font-size: 18px;
        font-family: DINPro-Regular, DINPro;
      }

      .cls-6 {
        stroke: none;
      }

      .cls-7 {
        fill: none;
      }
    </style>
  </defs>
  <g id="组_285" data-name="组 285" transform="translate(-511 -39)">
    <g id="矩形_102" data-name="矩形 102" class="cls-1" transform="translate(511 39)">
      <rect class="cls-6" width="224" height="58" rx="4"/>
      <rect class="cls-7" x="1" y="1" width="222" height="56" rx="3"/>
    </g>
    <path id="矩形_103" data-name="矩形 103" class="cls-2" d="M4,0H53a0,0,0,0,1,0,0V58a0,0,0,0,1,0,0H4a4,4,0,0,1-4-4V4A4,4,0,0,1,4,0Z" transform="translate(511 39)"/>
    <path id="联合_4" data-name="联合 4" class="cls-3" d="M8.969,37.369l-.291-.005H8.388l-.291,0H7.807l-.291-.007-.291-.006-.291-.014-.29,0-.218-.014H6.355L6.07,37.3l-.3-.019.278-1.015.272-1.016.1-.393.169-.625.267-1.014L7.134,32.2,7.4,31.19l.267-1.017.266-1.008L8.2,28.154l.266-1.019.273-1.014L9,25.1l.267-1.011.272-1.016.273-1.022.272-1.011-.164.084-.157.08-.152.073-.145.064-.139.062-.146.042-.133.056-.133.053-.133.049-.132.049L8.52,21.7l-.132.056-.14.054-.145.062-.144.067-.146.07-.019-.374-.018-.369-.017-.364-.024-.363-.019-.356L7.7,19.834l-.024-.355-.024-.35-.024-.358L7.6,18.413l-.018-.363-.024-.363-.018-.369-.018-.374L7.5,16.563l-.019-.393.7-.284.684-.3.671-.321.653-.338.634-.351.628-.369.6-.382.594-.4.58-.418.563-.429.551-.442.539-.466.527-.472.509-.484.495-.5.484-.514.468-.526.362-.424.1-.114.447-.551.43-.563.424-.574.4-.581.4-.594.388-.6L20.7,4.55l.363-.623.355-.636.335-.641L22.088,2l.326-.653.308-.666.3-.678.205.6.184.606.157.6.127.6.1.6.068.606.04.6.006.6-.018.606-.049.606-.084.6-.115.6-.145.6-.183.6-.217.6-.251.6-.275.593-.321.593-.35.594-.388.587-.422.587-.461.587-.5.58-.544.581-.576.575-.617.574-.653.563-.006.006-.7.563-.739.563-.774.563L14.7,18.3l-.863.551-.213,1.144L13.4,21.149l-.211,1.15-.212,1.155-.212,1.163L12.55,25.78l-.211,1.166-.212,1.163-.218,1.167-.211,1.16L11.487,31.6l-.219,1.155-.212,1.162-.211,1.157-.212,1.15-.219,1.143Zm2.579-.239.2-1.114.2-1.1.2-1.1.2-1.1.194-1.1.2-1.089.2-1.085.2-1.1.2-1.088.2-1.089.193-1.089.2-1.094.2-1.1.2-1.1.2-1.094.2-1.112.346-.188.338-.193.339-.2.34-.2.346-.206.339-.212.332-.212.333-.23.3-.2.042-.031.333-.242.335-.248.327-.261.33-.272.329-.284.321-.3.333-.314.319-.328.323-.338.319-.356.321-.375L21.677,14l.315-.406.315-.43.312-.448.314-.478.308-.49.3-.514.308-.538.3-.564.3-.591.3-.612.3-.641.212.962.187.944.17.937.145.926.121.913.1.9.073.883.041.878.014.849-.014.848-.036.828L26,18.966l-.1.806-.128.78-.157.77-.2.75-.228.738-.262.728-.3.7-.333.689-.369.679-.405.653-.443.64-.478.625-.526.6-.563.588-.6.563-.646.551-.691.533-.732.514-.78.5-.339.2-.484.278-.048.205-.043.218-.043.231-.042.24-.042.248-.036.26-.031.26-.03.267-.023.265-.018.265-.014.135v.134l0,.132-.007.134v.129l.007.126v.126l0,.129.009.122.012.121.012.121.013.114.122.15.114.153.1.157.108.153.107.148.109.15.114.149.031.042.084.117h-.79l-.393.005-.388.006-.387.008-.392.006-.387.005-.4.007-.386.006L13.9,37.1l-.388.006-.387.012h-.393l-.393.007-.393.006ZM21.77,19.967l-.121.12-.128.122-.12.127-.128.113-.128.114-.132.116-.134.106-.127.108-.133.1-.139.1-.135.11-.133.1-.134.1-.14.091-.139.1-.271.185-.28.184-.276.175-.279.175-.278.178-.278.168-.278.17-.114.067-.157.1-.008.189-.005.182-.006.187-.014.187-.012.186-.013.2-.013.184-.02.194-.013.187-.019.194-.013.187-.014.185-.013.186-.006.187-.005.182v.186l.224-.1.1-.044.129-.059.218-.121.212-.122.212-.133.2-.139.2-.153.191-.157.188-.162.183-.17.183-.177.169-.186.165-.185.163-.2.149-.2.152-.206.139-.207.14-.21.128-.221.127-.224.108-.222.107-.23.1-.229.1-.23.085-.234.078-.224.071-.245.067-.235.056-.233.056-.237.041-.235.046-.235ZM5.489,32.805,5.2,32.7l-.279-.114-.278-.116-.277-.121L4.09,32.2l-.259-.134-.261-.149-.254-.152-.248-.163-.247-.176-.23-.184-.23-.193-.217-.2-.211-.218-.2-.224-.193-.237-.187-.248-.176-.258L1.011,29.4l-.15-.29-.146-.3-.127-.315-.122-.332-.108-.345-.091-.364-.078-.376-.067-.393-.055-.411-.035-.429L.007,25.4,0,24.936l.007-.351.024-.349L.072,23.9l.055-.338L.2,23.23.284,22.9l.1-.319.115-.31.133-.309.145-.3.158-.285.169-.29.182-.279.194-.278.211-.264L1.913,20l.23-.26.241-.247.255-.251L2.9,19l.272-.23.285-.229.291-.224.3-.219.308-.205.319-.206.328-.2.339-.193.338-.187.351-.188.357-.175.036-.012.327-.157.019.338.018.338.017.338.019.345.018.346.025.351.016.35.019.357.018.356.019.371.018.363.012.375.013.382,0,.375L7,21.949,7,22.343l-.314.1-.26.109-.036.014-.279.14-.253.142-.243.165-.224.17-.2.182L5,23.553l-.164.2-.145.206-.122.212-.108.218-.079.219-.067.224-.042.23-.018.224v.229l.023.229.049.231.067.218.091.224.114.218.14.211.157.207.188.2.205.189.236.18.261.17.284.163.309.145.042.02.29.114.364.12-.092.313-.084.3-.085.3-.085.279-.078.278-.074.272-.078.265-.078.273-.079.265-.072.266-.079.273-.078.279-.078.276-.086.3-.084.3-.1.31Z" transform="translate(524 49)"/>
    <g id="组_284" data-name="组 284" transform="translate(29 337)">
      <text id="高新技术企业" class="cls-4" transform="translate(617 -270)"><tspan x="-67.65" y="0">高新技术企业</tspan></text>
      <text id="GR201944003138" class="cls-5" transform="translate(617 -248)"><tspan x="-68.13" y="0">GR201944003138</tspan></text>
    </g>
  </g>
</svg>
