<svg id="开发_1_" data-name="开发 (1)" xmlns="http://www.w3.org/2000/svg" width="36" height="28.588" viewBox="0 0 36 28.588">
  <defs>
    <style>
      .cls-1 {
        fill: #2c67ff;
      }
    </style>
  </defs>
  <path id="路径_235" data-name="路径 235" class="cls-1" d="M34.941,28.588H1.059A1,1,0,0,1,0,27.529V1.059A1,1,0,0,1,1.059,0H34.941A1,1,0,0,1,36,1.059V27.529A1,1,0,0,1,34.941,28.588ZM2.118,26.471H33.882V2.118H2.118V26.471Z"/>
  <path id="路径_236" data-name="路径 236" class="cls-1" d="M147.911,152.973a1.27,1.27,0,1,0,1.27-1.27A1.27,1.27,0,0,0,147.911,152.973Z" transform="translate(-143.784 -147.471)"/>
  <path id="路径_237" data-name="路径 237" class="cls-1" d="M284.444,152.973a1.27,1.27,0,1,0,1.27-1.27A1.27,1.27,0,0,0,284.444,152.973Z" transform="translate(-276.503 -147.471)"/>
  <path id="路径_238" data-name="路径 238" class="cls-1" d="M420.978,152.973a1.27,1.27,0,1,0,1.27-1.27A1.27,1.27,0,0,0,420.978,152.973Z" transform="translate(-409.224 -147.471)"/>
  <path id="路径_239" data-name="路径 239" class="cls-1" d="M11.965,313.265a.962.962,0,0,1-.741-.317l-2.118-2.116a1.022,1.022,0,0,1,0-1.481l2.329-2.328a1.048,1.048,0,0,1,1.482,1.481l-1.482,1.481,1.376,1.376a1.022,1.022,0,0,1,0,1.481,1.266,1.266,0,0,1-.847.423Zm11.753,0a.962.962,0,0,1-.741-.317,1.022,1.022,0,0,1,0-1.481l1.376-1.376-1.482-1.481a1.048,1.048,0,0,1,1.482-1.481l2.329,2.328a1.022,1.022,0,0,1,0,1.481l-2.118,2.116a2.494,2.494,0,0,1-.847.212Zm-7.412.212a.955.955,0,0,1-.529-.106,1.07,1.07,0,0,1-.424-1.481l2.753-5.185a1.09,1.09,0,0,1,1.906,1.058l-2.753,5.185A1.112,1.112,0,0,1,16.306,313.476Zm18-11.745H1.059a1.058,1.058,0,1,1,0-2.116H34.306a1.058,1.058,0,1,1,0,2.116Z" transform="translate(0 -291.245)"/>
</svg>
