<svg xmlns="http://www.w3.org/2000/svg" width="248" height="50" viewBox="0 0 248 50">
  <defs>
    <style>
      .cls-1 {
        fill: #2c67ff;
      }

      .cls-2 {
        fill: #333;
      }
    </style>
  </defs>
  <g id="组_54" data-name="组 54" transform="translate(-240 -43)">
    <path id="路径_211" data-name="路径 211" class="cls-1" d="M194.65,102.549l-.4.337h0l-.8.733h0l-5.864,5.3-10.3,9.383h0l-.61.554h0a5,5,0,0,0-.119,6.332,4.437,4.437,0,0,0,5.955.989l.826-.752h0l2.257-2.048,7.91-7.186,5.91-5.364h0c.211-.207.427-.4.647-.588l.032-.029a15.931,15.931,0,0,1,9.264-3.451,14.689,14.689,0,0,1,13.554,9.451c.087.222.174.448.252.675a16.03,16.03,0,0,1,.918,5.161,14.209,14.209,0,0,0-3.721-3.234,12.723,12.723,0,0,0-6.024-1.88,13.479,13.479,0,0,0-10.613,4.087l-7.915,7.186-5.786,5.248h0l-.858.781-.028.024-.408.328a14.145,14.145,0,0,1-16.366.8,15.345,15.345,0,0,1-5.965-7.229,16.145,16.145,0,0,1,.851-13.76,14.7,14.7,0,0,1,10.973-7.57,14.073,14.073,0,0,1,3.955.072h.069a4.58,4.58,0,0,0,5.212-3.957,4.753,4.753,0,0,0-3.767-5.475h-.133a23.55,23.55,0,0,0-8.686.26,24.05,24.05,0,0,0-18.137,18.829,25.726,25.726,0,0,0,8.511,25.282,22.913,22.913,0,0,0,29.406,0l.275-.236h.028a10.845,10.845,0,0,0,1.115-1.017l4.354-3.957,1.326-1.2,8.672-7.879h0a4.551,4.551,0,0,1,.459-.41h0a4.775,4.775,0,0,1,5.036-.65,5.211,5.211,0,0,1,2.954,4.334,5.314,5.314,0,0,1-2.209,4.8h0a4.5,4.5,0,0,1-.918.482h0a14.058,14.058,0,0,1-6.391,1.533,14.466,14.466,0,0,1-2.2-.169h-.1a4.748,4.748,0,0,0-.642-.048,4.552,4.552,0,0,0-4.208,2.964,4.936,4.936,0,0,0-.339,1.812,4.726,4.726,0,0,0,3.629,4.68h.078l.284.048h.087a22.513,22.513,0,0,0,3.437.26,23.037,23.037,0,0,0,18.532-9.325h0a25.931,25.931,0,0,0-1.618-33.233,22.962,22.962,0,0,0-31.619-2.087" transform="translate(83.867 -54.19)"/>
    <g id="组_17" data-name="组 17" transform="translate(337.01 44.384)">
      <path id="路径_213" data-name="路径 213" class="cls-2" d="M-128.874-41.588l.018-3.719,4.621.04v-2.625l3.42.617v2.008h4.455v3.679Zm.055,27.326V-18l12.256-2.469v3.739Zm1.109-7.718V-39.2h3.2V-21.98Zm6.544,0V-39.2h3.2V-21.98ZM-114.9-47.4h3.42v6.921h.906l3.937.02v-7.557h3.4v7.557l3.549-.02h1.349v-1.85l-.019-5.071h3.42l-.019,6.921a4.1,4.1,0,0,1-.739,2.546,2.936,2.936,0,0,1-2.5,1.153H-111.2a3.528,3.528,0,0,1-3.254-1.511,4.41,4.41,0,0,1-.444-2.227Zm.074,16.089v-3.659h20.168v3.659h-8.411v2.068h5.176a3.017,3.017,0,0,1,2.218.955,3.065,3.065,0,0,1,.961,2.208v11.754h-3.42V-25.558h-2.255v11.316h-3.143V-25.558h-2.44v11.316h-3.2V-25.558h-1.4c-.181,0-.776,0-.776,0v11.237h-3.42l-.037-11.575a3.325,3.325,0,0,1,.869-2.247,2.849,2.849,0,0,1,2.218-1.094h5.231v-2.068ZM-89.98-14.362v-3.7a.732.732,0,0,0,.61-.2,2.238,2.238,0,0,0,.24-1.273l.019-2.7h3.42v2.844a4.927,4.927,0,0,1-1.719,4.1A4.687,4.687,0,0,1-89.98-14.362Zm9.169-24.84v-9.009h3.42v2.068h20.834v3.679H-77.392V-39.2h16.231A4.827,4.827,0,0,1-57.5-37.75a4.36,4.36,0,0,1,1.294,3.1v5.111a5.146,5.146,0,0,1-1.331,3.679,4.678,4.678,0,0,1-3.6,1.372H-84.25q-5.453,0-5.453-5.071v-4.753a4.766,4.766,0,0,1,1.923-4,5.969,5.969,0,0,1,3.66-.915Zm-2.995,11.1H-61.9a2.363,2.363,0,0,0,1.7-.617,3.213,3.213,0,0,0,.629-2.347v-2.048q0-2.406-2.662-2.406H-84.139a3.68,3.68,0,0,0-1.571.636,4.594,4.594,0,0,0-.61,1.77v2.088a3.171,3.171,0,0,0,.721,2.446A2.683,2.683,0,0,0-83.806-28.1Zm4.6,13.6v-7.736h3.42V-14.5Zm9.871,0v-7.736h3.42V-14.5Zm10.038,0-.574-7.736h3.42l.574,7.736Zm8.244.08v-3.421h.092q.684,0,.721-1.929l.2-15.851h3.106l-.092,14.4a18.669,18.669,0,0,1-.3,3.9Q-47.963-14.759-51.05-14.421ZM-50.7-37.81v-3.62h5.1v-2.824h-5.047v-3.361h13.051v3.361h-4.584v2.824h4.621v3.62h-4.621v23.528H-45.6V-37.81Zm10.038,23.528V-35.7h2.9v21.419Zm5.213-6.5v-3.8h12.774V-48.111h3.42v23.528h2.366v3.8h-2.366v6.563h-3.42v-6.563Zm1.2-12.333v-3.858l9.057,3.086v3.858Zm0-7.953v-3.858l9.057,3.086v3.858Zm22.311,15v-3.878a10.394,10.394,0,0,0,2.773-.676q.592-.259,1.923-.975v-9.208h-4.584v-3.878h4.584v-3.361h3.42v3.361H.248v3.878H-3.819v6.981A14.884,14.884,0,0,1-.048-35.383v3.6a22.307,22.307,0,0,0-3.771,2.108v9.944a5.438,5.438,0,0,1-1.923,4.554,5.716,5.716,0,0,1-3.549.955q-.555,0-1.608-.06v-3.659q.592-.04.887-.04a3.072,3.072,0,0,0,2.218-.636,2.884,2.884,0,0,0,.555-1.989v-6.762a20.99,20.99,0,0,1-2.884,1.014A17.708,17.708,0,0,1-11.935-26.076ZM1.985-14.282V-18.1a36.339,36.339,0,0,0,6.932-3.56,42.923,42.923,0,0,1-4.936-5.549q-.647-.915-1.627-2.625H6.292a32.938,32.938,0,0,0,2.921,3.5q.85.855,2.606,2.446A38.181,38.181,0,0,0,17.088-29.1a5.5,5.5,0,0,0,1.4-2.327.591.591,0,0,0-.333-.557,4.814,4.814,0,0,0-1.5-.119H1.985v-3.739h8.356V-41.33H1.985v-3.679h8.356v-3.122l3.42,1.234v1.888h8.356v3.679H13.761v5.489q3.66,0,4.529.119a3.875,3.875,0,0,1,2.9,1.77,4.188,4.188,0,0,1,.721,2.387,7.362,7.362,0,0,1-1.941,4.415,51.257,51.257,0,0,1-5.324,5.489,34.126,34.126,0,0,0,3.586,2.227,21.117,21.117,0,0,0,3.882,1.452l-.092,3.7a31.031,31.031,0,0,1-5.694-2.247,45.318,45.318,0,0,1-4.511-2.884,42.764,42.764,0,0,1-4.843,3.122A30.746,30.746,0,0,1,1.985-14.282Z" transform="translate(128.874 48.211)"/>
      <path id="路径_214" data-name="路径 214" class="cls-2" d="M4.934-10.445a2.973,2.973,0,0,0,.9-.114,1.974,1.974,0,0,0,1.027-.811,3.323,3.323,0,0,0,.46-1.233,4.7,4.7,0,0,0,.081-.833,3.877,3.877,0,0,0-.587-2.292,2.167,2.167,0,0,0-1.889-.816H3.015v6.1Zm-3-7.023H5.15a3.032,3.032,0,0,1,2.541,1.162A4.285,4.285,0,0,1,8.5-13.618a5.353,5.353,0,0,1-.476,2.287A2.935,2.935,0,0,1,5.139-9.526H1.934ZM18.939-12.78l-1.206-3.509L16.452-12.78Zm-1.768-4.687h1.216l2.881,7.942H20.091L19.285-11.9H16.144l-.86,2.379h-1.1Zm15.022,0v.946H29.517v7H28.425v-7H25.749v-.946Zm9.226,4.687-1.206-3.509L38.932-12.78Zm-1.768-4.687h1.216l2.881,7.942H42.571L41.765-11.9H38.624l-.86,2.379h-1.1Zm10.161,0h3.573a2.423,2.423,0,0,1,1.708.6,2.168,2.168,0,0,1,.649,1.679,2.44,2.44,0,0,1-.578,1.619,2.192,2.192,0,0,1-1.779.689h-2.5v3.357H49.813Zm4.844,2.281a1.2,1.2,0,0,0-.649-1.189,2.342,2.342,0,0,0-.979-.168H50.889v2.752H53.03a2.046,2.046,0,0,0,1.176-.308A1.221,1.221,0,0,0,54.657-15.186Zm10.848-2.5a3.636,3.636,0,0,1,3.114,1.352,4.38,4.38,0,0,1,.789,2.7,4.721,4.721,0,0,1-.9,2.957,3.58,3.58,0,0,1-3.022,1.384A3.612,3.612,0,0,1,62.6-10.5a4.573,4.573,0,0,1-.935-2.952,4.7,4.7,0,0,1,.8-2.757A3.466,3.466,0,0,1,65.5-17.684Zm.108,7.428a2.24,2.24,0,0,0,2.057-1.019,4.338,4.338,0,0,0,.635-2.344,3.343,3.343,0,0,0-.733-2.254,2.5,2.5,0,0,0-2-.854,2.608,2.608,0,0,0-2.011.846,3.566,3.566,0,0,0-.778,2.495,3.645,3.645,0,0,0,.668,2.225A2.511,2.511,0,0,0,65.613-10.255Zm10.3-7.212H77v7.942H75.915Zm7.815,0H85l4.011,6.433v-6.433h1.022v7.942H88.828l-4.071-6.428v6.428H83.73Zm18.757,0v.946H99.811v7H98.719v-7H96.043v-.946Zm11.745,0v.946h-2.676v7h-1.092v-7h-2.676v-.946Zm6.069,0h5.79v.973h-4.741v2.411h4.384v.919h-4.384v2.692h4.822v.946H120.3Zm15.611-.216a3.254,3.254,0,0,1,2.341.795,2.807,2.807,0,0,1,.924,1.806h-1.049a2.183,2.183,0,0,0-.711-1.216,2.253,2.253,0,0,0-1.495-.449,2.4,2.4,0,0,0-1.895.824,3.758,3.758,0,0,0-.722,2.527,3.671,3.671,0,0,0,.651,2.262,2.276,2.276,0,0,0,1.944.868,2.053,2.053,0,0,0,1.811-.914,3.475,3.475,0,0,0,.492-1.265h1.049a3.584,3.584,0,0,1-.93,2.1,3.309,3.309,0,0,1-2.552,1.022,3.368,3.368,0,0,1-2.325-.838,4.366,4.366,0,0,1-1.238-3.422,4.371,4.371,0,0,1,.93-2.881A3.4,3.4,0,0,1,135.913-17.684Zm9.659.216h1.087v3.282h4.13v-3.282h1.087v7.942h-1.087V-13.24h-4.13v3.714h-1.087Z" transform="translate(-1.503 56.671)"/>
    </g>
  </g>
</svg>
