<svg xmlns="http://www.w3.org/2000/svg" width="36" height="33.652" viewBox="0 0 36 33.652">
  <defs>
    <style>
      .cls-1 {
        fill: #2c67ff;
      }
    </style>
  </defs>
  <g id="终端销售" transform="translate(-40.96 -61.44)">
    <path id="路径_240" data-name="路径 240" class="cls-1" d="M48.786,91.962h8.609a1.565,1.565,0,1,1,0,3.13H48.786a1.565,1.565,0,1,1,0-3.13ZM76.96,75.918V69.266H73.83V66.918a2.348,2.348,0,0,0-2.348-2.348H46.438a2.348,2.348,0,0,0-2.348,2.348v14.87a2.348,2.348,0,0,0,2.348,2.348H57.395v3.13H45.656a4.7,4.7,0,0,1-4.7-4.7V66.136a4.7,4.7,0,0,1,4.7-4.7H72.264a4.7,4.7,0,0,1,4.7,4.7Z" transform="translate(0 0)"/>
    <path id="路径_241" data-name="路径 241" class="cls-1" d="M902.685,226.845m-1.565,0a1.565,1.565,0,1,0,1.565-1.565A1.565,1.565,0,0,0,901.12,226.845Z" transform="translate(-827.29 -157.579)"/>
    <path id="路径_242" data-name="路径 242" class="cls-1" d="M431.645,656.925m-1.565,0a1.565,1.565,0,1,0,1.565-1.565A1.565,1.565,0,0,0,430.08,656.925Z" transform="translate(-374.25 -571.224)"/>
    <path id="路径_243" data-name="路径 243" class="cls-1" d="M577.353,368.64h7.826a3.913,3.913,0,0,1,3.913,3.913V386.64a3.913,3.913,0,0,1-3.913,3.913h-7.826a3.913,3.913,0,0,1-3.913-3.913V372.553A3.913,3.913,0,0,1,577.353,368.64Zm.783,3.13a1.565,1.565,0,0,0-1.565,1.565v12.592a1.565,1.565,0,0,0,1.565,1.565H584.4a1.565,1.565,0,0,0,1.565-1.565V373.336a1.565,1.565,0,0,0-1.565-1.565Z" transform="translate(-512.132 -295.461)"/>
    <path id="路径_244" data-name="路径 244" class="cls-1" d="M738.845,411.165m-1.565,0a1.565,1.565,0,1,0,1.565-1.565A1.565,1.565,0,0,0,737.28,411.165Z" transform="translate(-669.711 -334.856)"/>
  </g>
</svg>
