<svg xmlns="http://www.w3.org/2000/svg" width="58" height="53" viewBox="0 0 58 53">
  <defs>
    <style>
      .cls-1 {
        fill: #d4e9ff;
      }

      .cls-2 {
        fill: #208cfc;
      }

      .cls-3 {
        fill: #fff;
      }
    </style>
  </defs>
  <g id="组_3318" data-name="组 3318" transform="translate(-2733 -4097)">
    <ellipse id="椭圆_133" data-name="椭圆 133" class="cls-1" cx="29" cy="14" rx="29" ry="14" transform="translate(2733 4122)"/>
    <g id="组_3317" data-name="组 3317" transform="translate(-27 -71)">
      <circle id="椭圆_132" data-name="椭圆 132" class="cls-2" cx="19.5" cy="19.5" r="19.5" transform="translate(2770 4168)"/>
      <path id="电话_填充" class="cls-3" d="M133.4,116.373c.882-1.535.394-2.715-1.169-3.895-1.837-1.387-3.632-2.32-4.922-.826,0,0-1.37,1.631-5.4-2.185-4.687-4.468-2.72-6.053-2.72-6.053,1.63-1.639.594-2.861-.773-4.713s-2.748-2.438-4.731-.845c-3.82,3.069,1.567,10.275,4.29,13.077h0s4.142,4.284,6.748,5.71l1.394.78c2,1.026,4.246,1.5,5.827.543A4.136,4.136,0,0,0,133.4,116.373Z" transform="translate(2666.64 4080.067)"/>
    </g>
  </g>
</svg>
