<svg xmlns="http://www.w3.org/2000/svg" width="58" height="52.82" viewBox="0 0 58 52.82">
  <defs>
    <style>
      .cls-1, .cls-2 {
        fill: #fff;
      }

      .cls-1 {
        opacity: 0.4;
      }
    </style>
  </defs>
  <g id="组_3340" data-name="组 3340" transform="translate(-2515 -1183)">
    <path id="路径_2601" data-name="路径 2601" class="cls-1" d="M29,0C45.016,0,58,6.268,58,14S45.016,28,29,28,0,21.732,0,14,12.984,0,29,0Z" transform="translate(2515 1207.82)"/>
    <path id="演示_2_" data-name="演示 (2)" class="cls-2" d="M154.045,104.955H137.718v-2.675a1.421,1.421,0,1,0-2.842,0v2.675H118.549a2.015,2.015,0,0,0-2.006,2.006v23.32a2.015,2.015,0,0,0,2.006,2.006h6.882l-7.69,8a1.413,1.413,0,0,0,.028,2.006,1.443,1.443,0,0,0,.975.39,1.674,1.674,0,0,0,1.031-.418l8.721-9.083a1.372,1.372,0,0,0,.39-.892H143.9a1.365,1.365,0,0,0,.39.864l8.721,9.083a1.381,1.381,0,0,0,2.006.028,1.413,1.413,0,0,0,.028-2.006l-7.662-7.968H154.1a1.835,1.835,0,0,0,1.978-1.95V106.989A2.045,2.045,0,0,0,154.045,104.955ZM140,120l-5.712,3.288a1.905,1.905,0,0,1-.919.251,1.154,1.154,0,0,1-.641-.167,1.594,1.594,0,0,1-.752-1.449v-6.575a1.6,1.6,0,0,1,.724-1.449,1.294,1.294,0,0,1,.641-.167,1.769,1.769,0,0,1,.947.279l5.684,3.288a1.636,1.636,0,0,1,.892,1.337A1.665,1.665,0,0,1,140,120Z" transform="translate(2407.457 1082.141)"/>
  </g>
</svg>
