<svg xmlns="http://www.w3.org/2000/svg" width="58" height="53" viewBox="0 0 58 53">
  <defs>
    <style>
      .cls-1, .cls-2 {
        fill: #fff;
      }

      .cls-1 {
        opacity: 0.4;
      }
    </style>
  </defs>
  <g id="组_3334" data-name="组 3334" transform="translate(-2218 -1022)">
    <ellipse id="椭圆_133" data-name="椭圆 133" class="cls-1" cx="29" cy="14" rx="29" ry="14" transform="translate(2218 1047)"/>
    <g id="组_3317" data-name="组 3317" transform="translate(-542 -3146)">
      <path id="减去_20" data-name="减去 20" class="cls-2" d="M561.5,3185a19.439,19.439,0,1,1,7.59-1.532A19.384,19.384,0,0,1,561.5,3185Zm-7.053-30a3.857,3.857,0,0,0-3.438,3.527,10.62,10.62,0,0,0,1.931,5.73,28.592,28.592,0,0,0,3.675,4.743c.17.176,4.2,4.316,6.748,5.71l1.394.779a8.567,8.567,0,0,0,3.8,1.061,3.879,3.879,0,0,0,2.032-.517,4.206,4.206,0,0,0,1.455-1.594c.835-1.452.475-2.653-1.168-3.894a6.467,6.467,0,0,0-3.351-1.588,2,2,0,0,0-1.572.762,1.321,1.321,0,0,1-1,.346c-.788,0-2.191-.439-4.4-2.532-2.653-2.529-3.166-4.131-3.128-5.03a1.421,1.421,0,0,1,.407-1.022,2.172,2.172,0,0,0,.765-2.179,7.609,7.609,0,0,0-1.36-2.293l-.178-.24c-.891-1.207-1.72-1.769-2.608-1.769Z" transform="translate(2228 1022)"/>
    </g>
  </g>
</svg>
