<svg xmlns="http://www.w3.org/2000/svg" xmlns:xlink="http://www.w3.org/1999/xlink" width="2290" height="787" viewBox="0 0 2290 787"><defs><linearGradient id="a" x1="0.5" x2="0.5" y2="1" gradientUnits="objectBoundingBox"><stop offset="0" stop-color="#316cfb"/><stop offset="1" stop-color="#1855f7"/></linearGradient><linearGradient id="i" x1="0.078" y1="0.893" x2="0.941" y2="0.079" gradientUnits="objectBoundingBox"><stop offset="0" stop-color="#ecf2ff"/><stop offset="0.532" stop-color="#f6eff6"/><stop offset="1" stop-color="#fbf8f6"/></linearGradient><linearGradient id="j" x1="0.14" y1="0.167" x2="0.9" y2="0.882" gradientUnits="objectBoundingBox"><stop offset="0" stop-color="#f7f8fe"/><stop offset="0.479" stop-color="#f5f5fd"/><stop offset="1" stop-color="#edf5fe"/></linearGradient><linearGradient id="k" x1="0.056" y1="0.058" x2="0.955" y2="0.94" gradientUnits="objectBoundingBox"><stop offset="0" stop-color="#fcfafb"/><stop offset="0.479" stop-color="#f5f8ff"/><stop offset="1" stop-color="#fff9fb"/></linearGradient><clipPath id="l"><rect width="66" height="66" transform="translate(0 12)" fill="url(#a)"/></clipPath><clipPath id="t"><rect width="66" height="66" transform="translate(0 12)" fill="#feb52b"/></clipPath><clipPath id="u"><rect width="66" height="66" transform="translate(0 12)" fill="#2fd2c7"/></clipPath><clipPath id="v"><rect width="66" height="66" transform="translate(0 12)" fill="#9a5ce5"/></clipPath><clipPath id="w"><rect width="66" height="66" transform="translate(0 12)" fill="#fb4d3a"/></clipPath><clipPath id="x"><path d="M58.044,31.447h-4.66V18.877a6.289,6.289,0,0,0-6.261-6.261H34.553V7.862a7.838,7.838,0,1,0-15.676,0v4.66H6.261A6.289,6.289,0,0,0,0,18.783v12H4.66a8.474,8.474,0,0,1,0,16.947H0v12a6.27,6.27,0,0,0,6.261,6.167h12V61.151a8.474,8.474,0,1,1,16.947,0v4.755h11.91a6.289,6.289,0,0,0,6.261-6.261V47.029h4.755a7.792,7.792,0,1,0-.094-15.582Z" transform="translate(0 12.047)" fill="#fb4d3a"/></clipPath></defs><g transform="translate(-295 -1916)"><path d="M215.606,8.3l-8.634-8a1.138,1.138,0,0,0-1.523,0,.948.948,0,0,0,0,1.412L213.321,9l-7.872,7.3a.948.948,0,0,0,0,1.412,1.138,1.138,0,0,0,1.524,0l8.634-8a.948.948,0,0,0,0-1.412Z" transform="translate(752.366 2126.495)" fill="#0e4efb" stroke="#1855f7" stroke-width="1"/><rect width="743" height="787" rx="16" transform="translate(295 1916)" fill="url(#i)"/><rect width="743" height="787" rx="16" transform="translate(1842 1916)" fill="url(#j)"/><text transform="translate(365 2019)" fill="#1a1a33" font-size="36" font-family="PingFangSC-Semibold, PingFang SC" font-weight="600" letter-spacing="0.02em"><tspan x="0" y="0">产品服务</tspan></text><rect width="743" height="787" rx="16" transform="translate(1069 1916)" fill="url(#k)"/><text transform="translate(1139 2019)" fill="#1a1a33" font-size="36" font-family="PingFangSC-Semibold, PingFang SC" font-weight="600" letter-spacing="0.02em"><tspan x="0" y="0">使用场景</tspan></text><text transform="translate(1912 2019)" fill="#1a1a33" font-size="36" font-family="PingFangSC-Semibold, PingFang SC" font-weight="600" letter-spacing="0.02em"><tspan x="0" y="0">增值服务</tspan></text><g transform="translate(365 2239)"><g transform="translate(-478 -3900)"><text transform="translate(584 3934)" fill="#333f51" font-size="32" font-family="PingFangSC-Medium, PingFang SC" font-weight="500" letter-spacing="0.04em"><tspan x="0" y="0">全触点营销</tspan></text><text transform="translate(584 3980)" fill="#495a7c" font-size="24" font-family="PingFangSC-Regular, PingFang SC"><tspan x="0" y="0">主动精准触达，RFM营销</tspan></text></g><g clip-path="url(#l)"><g transform="translate(-0.787 11.305)"><path d="M40.353,4.059,63.059,23.111a2.47,2.47,0,0,1,.306,3.483L36.371,58.758A17.291,17.291,0,1,1,9.881,36.527L36.872,4.365a2.47,2.47,0,0,1,3.48-.3ZM13.166,59.551a12.351,12.351,0,1,0-1.522-17.4,12.35,12.35,0,0,0,1.522,17.4Z" fill="#fb4d3a" opacity="0.4"/><path d="M22.207.845,50.063,10.982a2.47,2.47,0,0,1,1.475,3.167L37.176,53.61a17.292,17.292,0,1,1-32.5-11.83L19.04,2.322A2.47,2.47,0,0,1,22.207.845Zm-7.08,61.6A13.586,13.586,0,1,0,7.007,45.028a13.586,13.586,0,0,0,8.121,17.414Z" fill="#fb4d3a" opacity="0.6"/><path d="M6.175,4.94H35.818a2.47,2.47,0,0,1,2.47,2.47V49.4a17.291,17.291,0,1,1-34.583,0V7.411a2.47,2.47,0,0,1,2.47-2.47ZM21,61.755a7.411,7.411,0,1,0-7.411-7.411A7.411,7.411,0,0,0,21,61.755Z" fill="#fb4d3a"/></g></g></g><g transform="translate(365 2387)"><g transform="translate(-478 -3900)"><text transform="translate(584 3934)" fill="#333f51" font-size="32" font-family="PingFangSC-Medium, PingFang SC" font-weight="500" letter-spacing="0.04em"><tspan x="0" y="0">全渠道交易</tspan></text><text transform="translate(584 3980)" fill="#495a7c" font-size="24" font-family="PingFangSC-Regular, PingFang SC"><tspan x="0" y="0">全渠道融合全场景无缝交易</tspan></text></g><g clip-path="url(#l)"><g transform="translate(0 12)"><path d="M11,16.256V5.5H55v11" fill="#abcdfe"/><path d="M11,30.922V60.5H55V30.25" fill="none" stroke="#1855f7" stroke-linecap="round" stroke-linejoin="round" stroke-width="5.5"/><rect width="66" height="66" fill="rgba(255,255,255,0.01)"/><path d="M5.5,16.5h55v11l-1.923,1.154a9.625,9.625,0,0,1-9.9,0L46.75,27.5l-1.923,1.154a9.625,9.625,0,0,1-9.9,0L33,27.5l-1.923,1.154a9.625,9.625,0,0,1-9.9,0L19.25,27.5l-1.923,1.154a9.625,9.625,0,0,1-9.9,0L5.5,27.5Z" fill="#0e4efb" stroke="#1855f7" stroke-linecap="round" stroke-linejoin="round" stroke-width="5.5"/><rect width="15.75" height="18.5" rx="2" transform="translate(25.125 43)" fill="#0e4efb"/></g></g></g><g transform="translate(365 2535)"><g transform="translate(-478 -3900)"><text transform="translate(584 3934)" fill="#333f51" font-size="32" font-family="PingFangSC-Medium, PingFang SC" font-weight="500" letter-spacing="0.04em"><tspan x="0" y="0">供应链云</tspan></text><text transform="translate(584 3980)" fill="#495a7c" font-size="24" font-family="PingFangSC-Regular, PingFang SC"><tspan x="0" y="0">全链路、精细化的供应链营运平台</tspan></text></g><g clip-path="url(#l)"><g transform="translate(-1.435 10.565)"><path d="M5.076,16.747,34.435,1.435,63.794,16.747a1.435,1.435,0,0,1,.771,1.272V66a1.435,1.435,0,0,1-1.435,1.435H5.739A1.435,1.435,0,0,1,4.3,66V18.019a1.435,1.435,0,0,1,.771-1.272Z" fill="#2fd2c7"/><path d="M23.674,21.42m1.015,1.015L32.8,30.551a1.268,1.268,0,0,1,0,2.029L24.688,40.7a1.268,1.268,0,0,1-2.029,0L14.543,32.58a1.268,1.268,0,0,1,0-2.029l8.116-8.116A1.268,1.268,0,0,1,24.688,22.434Z" fill="#fff"/><path d="M16.5,45.913m1.435,0H29.413a1.268,1.268,0,0,1,1.435,1.435V58.826a1.268,1.268,0,0,1-1.435,1.435H17.935A1.268,1.268,0,0,1,16.5,58.826V47.348a1.268,1.268,0,0,1,1.435-1.435Z" fill="#fff" opacity="0.6"/><path d="M38.022,45.913m1.435,0H50.935a1.268,1.268,0,0,1,1.435,1.435V58.826a1.268,1.268,0,0,1-1.435,1.435H39.457a1.268,1.268,0,0,1-1.435-1.435V47.348A1.268,1.268,0,0,1,39.457,45.913Z" fill="#fff" opacity="0.6"/><path d="M38.022,24.391m1.435,0H50.935a1.268,1.268,0,0,1,1.435,1.435V37.3a1.268,1.268,0,0,1-1.435,1.435H39.457A1.268,1.268,0,0,1,38.022,37.3V25.826A1.268,1.268,0,0,1,39.457,24.391Z" fill="#fff" opacity="0.6"/></g></g></g><g transform="translate(365 2091)"><g transform="translate(-478 -3900)"><text transform="translate(584 3934)" fill="#333f51" font-size="32" font-family="PingFangSC-Medium, PingFang SC" font-weight="500" letter-spacing="0.04em"><tspan x="0" y="0">全域会员</tspan></text><text transform="translate(584 3980)" fill="#495a7c" font-size="24" font-family="PingFangSC-Regular, PingFang SC"><tspan x="0" y="0">实现公域到私域转化</tspan></text></g><g clip-path="url(#l)"><g transform="translate(-5.482 7.822)"><path d="M60.1,68.681H16.86A11.376,11.376,0,0,1,5.482,57.3V30.61A11.376,11.376,0,0,1,16.86,19.232H60.1A11.376,11.376,0,0,1,71.482,30.61V57.3A11.382,11.382,0,0,1,60.1,68.681Z" fill="#a5adf6"/><path d="M47.809,60.263,13.75,43.932A9.61,9.61,0,0,1,9.24,31.115l9.583-19.985A9.61,9.61,0,0,1,31.64,6.62L65.7,22.952a9.61,9.61,0,0,1,4.51,12.817L60.626,55.753a9.61,9.61,0,0,1-12.817,4.51Z" fill="#a5adf6"/><path d="M65.7,22.952l-7.755-3.719H16.86a11.479,11.479,0,0,0-2.006.181L9.24,31.115a9.607,9.607,0,0,0,4.51,12.817L47.809,60.263a9.607,9.607,0,0,0,12.817-4.51l9.583-19.985A9.609,9.609,0,0,0,65.7,22.952Z" fill="#635df7"/><path d="M38.577,56.135a3.373,3.373,0,0,1-3.029-1.9L27.523,37.616a3.086,3.086,0,1,1,5.559-2.681l5.463,11.312,5.316-11.285a3.088,3.088,0,0,1,5.586,2.631L41.621,54.21A3.373,3.373,0,0,1,38.6,56.139a.035.035,0,0,0-.019,0ZM36.034,51.575Zm5.073-.027Z" fill="#f7f8f8"/></g></g></g><g transform="translate(774 -16)"><g transform="translate(365 2255)"><g transform="translate(-478 -3900)"><text transform="translate(584 3934)" fill="#333f51" font-size="32" font-family="PingFangSC-Medium, PingFang SC" font-weight="500" letter-spacing="0.04em"><tspan x="0" y="0">商城/点单/配送</tspan></text><text transform="translate(584 3980)" fill="#495a7c" font-size="24" font-family="PingFangSC-Regular, PingFang SC"><tspan x="0" y="0">云端开店，线上点单，自建外卖</tspan></text></g><g clip-path="url(#l)"><g transform="translate(0 12)"><rect width="66" height="66" fill="rgba(255,255,255,0.01)"/><path d="M53.625,44H17.875L11,16.5H60.5Z" fill="#0e4efb"/><path d="M4.125,8.25H8.938L11,16.5m0,0L17.875,44h35.75L60.5,16.5Z" fill="none" stroke="#0e4efb" stroke-linecap="round" stroke-linejoin="round" stroke-width="5.5"/><circle cx="4.125" cy="4.125" r="4.125" transform="translate(13.75 49.5)" fill="none" stroke="#0e4efb" stroke-linecap="round" stroke-linejoin="round" stroke-width="5"/><circle cx="4.125" cy="4.125" r="4.125" transform="translate(49.5 49.5)" fill="none" stroke="#0e4efb" stroke-linecap="round" stroke-linejoin="round" stroke-width="5"/><path d="M30.25,30.25h11" fill="none" stroke="#abcdfe" stroke-linecap="round" stroke-linejoin="round" stroke-width="5.5"/><path d="M35.75,35.75v-11" fill="none" stroke="#abcdfe" stroke-linecap="round" stroke-linejoin="round" stroke-width="5.5"/></g></g></g><g transform="translate(365 2403)"><g transform="translate(-478 -3900)"><text transform="translate(584 3934)" fill="#333f51" font-size="32" font-family="PingFangSC-Medium, PingFang SC" font-weight="500" letter-spacing="0.04em"><tspan x="0" y="0">预约</tspan></text><text transform="translate(584 3980)" fill="#495a7c" font-size="24" font-family="PingFangSC-Regular, PingFang SC"><tspan x="0" y="0">场馆、选座、服务等多种预约模式</tspan></text></g><g clip-path="url(#l)"><g transform="translate(-9.293 3.079)"><path d="M9.334,16.108m5.287,0H69.965q5.287,0,5.287,5.287v48.24q0,5.287-5.287,5.287H14.621q-5.287,0-5.287-5.287V21.394Q9.334,16.108,14.621,16.108Z" fill="#feac29"/><path d="M52.37,8.921m2.974,0h.661a2.628,2.628,0,0,1,2.974,2.974v9.83A2.628,2.628,0,0,1,56.005,24.7h-.661a2.628,2.628,0,0,1-2.974-2.974v-9.83A2.628,2.628,0,0,1,55.344,8.921Z" fill="#fbd183"/><path d="M25.277,8.921m2.974,0h.661a2.628,2.628,0,0,1,2.974,2.974v9.83A2.628,2.628,0,0,1,28.911,24.7H28.25a2.628,2.628,0,0,1-2.974-2.974v-9.83A2.628,2.628,0,0,1,28.25,8.921Z" fill="#fbd183"/><path d="M55.22,63.109A13.753,13.753,0,1,1,68.974,49.355,13.794,13.794,0,0,1,55.22,63.109Zm.041-24.946A11.234,11.234,0,1,0,66.5,49.4,11.267,11.267,0,0,0,55.262,38.163ZM54.316,55.1l-5.828-5.807,1.755-1.748,4.073,4,6.956-6.931,1.754,1.748Z" fill="#fff"/><path d="M30.646,53.527a2.643,2.643,0,1,1,0,5.287h-7.93a2.643,2.643,0,1,1,0-5.287Zm0-13.712a2.643,2.643,0,1,1,0,5.287h-7.93a2.643,2.643,0,1,1,0-5.287Z" fill="#fff"/></g></g></g><g transform="translate(365 2551)"><g transform="translate(-478 -3900)"><text transform="translate(584 3934)" fill="#333f51" font-size="32" font-family="PingFangSC-Medium, PingFang SC" font-weight="500" letter-spacing="0.04em"><tspan x="0" y="0">财务</tspan></text><text transform="translate(584 3980)" fill="#495a7c" font-size="24" font-family="PingFangSC-Regular, PingFang SC"><tspan x="0" y="0">实收对账轻松掌握</tspan></text></g><g clip-path="url(#l)"><g transform="translate(-3 9)"><path d="M6,21a3,3,0,0,1,3-3H63a3,3,0,0,1,3,3V60a3,3,0,0,1-3,3H9a3,3,0,0,1-3-3Z" fill="#fb4d3a" stroke="#fb4d3a" stroke-linejoin="round" stroke-width="6"/><path d="M28.5,28.5,36,36l7.5-7.5" fill="none" stroke="#fff" stroke-linecap="round" stroke-linejoin="round" stroke-width="6"/><path d="M27,37.5H45" fill="none" stroke="#fff" stroke-linecap="round" stroke-linejoin="round" stroke-width="6"/><path d="M27,46.5H45" fill="none" stroke="#fff" stroke-linecap="round" stroke-linejoin="round" stroke-width="6"/><path d="M36,37.5v15" fill="none" stroke="#fff" stroke-linecap="round" stroke-linejoin="round" stroke-width="6"/><path d="M12,9H60" fill="none" stroke="#fb4d3a" stroke-linecap="round" stroke-linejoin="round" stroke-width="6" opacity="0.4"/></g></g></g><g transform="translate(365 2107)"><g transform="translate(-478 -3900)"><text transform="translate(584 3934)" fill="#333f51" font-size="32" font-family="PingFangSC-Medium, PingFang SC" font-weight="500" letter-spacing="0.04em"><tspan x="0" y="0">获客</tspan></text><text transform="translate(584 3980)" fill="#495a7c" font-size="24" font-family="PingFangSC-Regular, PingFang SC"><tspan x="0" y="0">全域流量入口，构建私域流量</tspan></text></g><g clip-path="url(#l)"><g transform="translate(-9.242 4.392)"><path d="M50.72,46.966A16.507,16.507,0,0,0,39.5,62.606v8.248H9.242V62.606A19.251,19.251,0,0,1,28.493,43.355h11a19.166,19.166,0,0,1,11.23,3.611Zm-16.729-9.11A13.747,13.747,0,1,1,47.738,24.11,13.747,13.747,0,0,1,33.991,37.856Z" fill="#fd7422"/><path d="M58.746,46.11a9.623,9.623,0,1,1,9.623-9.623,9.623,9.623,0,0,1-9.623,9.623ZM56,48.859h5.5A13.747,13.747,0,0,1,75.242,62.606v8.248h-33V62.606A13.747,13.747,0,0,1,55.991,48.859Z" fill="#feb786"/></g></g></g></g><g transform="translate(1547 -16)"><g transform="translate(365 2255)"><g transform="translate(-478 -3900)"><text transform="translate(584 3934)" fill="#333f51" font-size="32" font-family="PingFangSC-Medium, PingFang SC" font-weight="500" letter-spacing="0.04em"><tspan x="0" y="0">收银台</tspan></text><text transform="translate(584 3980)" fill="#495a7c" font-size="24" font-family="PingFangSC-Regular, PingFang SC"><tspan x="0" y="0">移动收费工具</tspan></text></g><g clip-path="url(#t)"><path d="M62.524,31.261H58.53V3.473A3.473,3.473,0,0,0,55.056,0H10.822A3.473,3.473,0,0,0,7.349,3.473V31.261H3.476A3.473,3.473,0,0,0,.94,37.027L30.464,64.918a3.352,3.352,0,0,0,4.932,0L64.921,37.027a3.473,3.473,0,0,0-2.4-5.766Zm-18.235,0a2.605,2.605,0,0,1,0,5.21H36.473v7.815a2.605,2.605,0,1,1-5.21,0V36.471H21.711a2.605,2.605,0,1,1,0-5.21h9.552V27.787H21.711a2.605,2.605,0,1,1,0-5.21h4.342V16.5a2.605,2.605,0,1,1,5.21,0v6.078h5.21V16.5a2.605,2.605,0,0,1,5.21,0v6.078h2.605a2.605,2.605,0,1,1,0,5.21H36.473v3.473Z" transform="translate(0.067 12)" fill="#feb52b"/></g></g><g transform="translate(365 2403)"><g transform="translate(-478 -3900)"><text transform="translate(584 3934)" fill="#333f51" font-size="32" font-family="PingFangSC-Medium, PingFang SC" font-weight="500" letter-spacing="0.04em"><tspan x="0" y="0">商家助手</tspan></text><text transform="translate(584 3980)" fill="#495a7c" font-size="24" font-family="PingFangSC-Regular, PingFang SC"><tspan x="0" y="0">移动收款对账，移动管理</tspan></text></g><g clip-path="url(#u)"><path d="M48.071.028H18.27A8.8,8.8,0,0,0,9.485,8.813V57.244a8.8,8.8,0,0,0,8.784,8.784h29.8a8.8,8.8,0,0,0,8.784-8.784V8.813A8.8,8.8,0,0,0,48.071.028ZM42.9,11.783a2.413,2.413,0,0,1-2.312,2.431H26a2.416,2.416,0,0,1-2.307-2.431A2.307,2.307,0,0,1,26,9.476H40.59A2.308,2.308,0,0,1,42.9,11.783Zm-5,40.334a4.738,4.738,0,1,1-4.738-4.738A4.738,4.738,0,0,1,37.9,52.118Z" transform="translate(-0.17 11.972)" fill="#2fd2c7"/></g></g><g transform="translate(365 2551)"><g transform="translate(-478 -3900)"><text transform="translate(584 3934)" fill="#333f51" font-size="32" font-family="PingFangSC-Medium, PingFang SC" font-weight="500" letter-spacing="0.04em"><tspan x="0" y="0">自提柜</tspan></text><text transform="translate(584 3980)" fill="#495a7c" font-size="24" font-family="PingFangSC-Regular, PingFang SC"><tspan x="0" y="0">无缝对接订单及货物管理系统</tspan></text></g><g clip-path="url(#v)"><path d="M25.044,47.19a1.077,1.077,0,0,1,1.076-1.076H39.986a1.077,1.077,0,0,1,1.076,1.076V48.8a1.075,1.075,0,0,1-1.076,1.074H26.121A1.074,1.074,0,0,1,25.044,48.8V47.19Zm0-32.035a1.076,1.076,0,0,1,1.076-1.074H39.986a1.077,1.077,0,0,1,1.076,1.076V41.169a1.077,1.077,0,0,1-1.076,1.076H26.121a1.074,1.074,0,0,1-1.076-1.076V15.157ZM20.8,66h24.25V0H20.8ZM63.251,0H47.792V19.249H66V2.749A2.756,2.756,0,0,0,63.251,0ZM47.792,66H63.251A2.756,2.756,0,0,0,66,63.251V44.068H47.794V66Zm0-24.681H66V22H47.794V41.319ZM0,63.251A2.758,2.758,0,0,0,2.749,66h15.3V44H0V63.251Zm0-22H18.046V22H0Zm0-38.5v16.5H18.046V0H2.749A2.758,2.758,0,0,0,0,2.749Z" transform="translate(0 12)" fill="#9a5ce5"/></g></g><g transform="translate(365 2107)"><g transform="translate(-478 -3900)"><text transform="translate(584 3934)" fill="#333f51" font-size="32" font-family="PingFangSC-Medium, PingFang SC" font-weight="500" letter-spacing="0.04em"><tspan x="0" y="0">收款插件</tspan></text><text transform="translate(584 3980)" fill="#495a7c" font-size="24" font-family="PingFangSC-Regular, PingFang SC"><tspan x="0" y="0">零成本的门店传感器</tspan></text></g><g clip-path="url(#w)"><g clip-path="url(#x)"><g transform="translate(-45.89 87.8)"><path d="M53.384,31.446V18.877a6.289,6.289,0,0,0-6.261-6.261H34.554V7.862a7.838,7.838,0,1,0-15.676,0v4.66H6.261A6.289,6.289,0,0,0,0,18.783v12H4.66a8.474,8.474,0,1,1,0,16.947H0v12a6.27,6.27,0,0,0,6.261,6.167h12V61.151a8.474,8.474,0,0,1,16.947,0v4.755h11.91a6.289,6.289,0,0,0,6.261-6.261v-28.2Z" transform="translate(45.89 -75.753)" fill="#32bcfa"/><path d="M58.044,31.446h-4.66V47.028h4.755a7.792,7.792,0,1,0-.094-15.582Z" transform="translate(45.89 -76.38)" fill="#32bcfa" opacity="0.6"/></g></g></g></g></g></g></svg>