<svg xmlns="http://www.w3.org/2000/svg" width="58" height="51.525" viewBox="0 0 58 51.525">
  <defs>
    <style>
      .cls-1 {
        fill: #d2fae2;
      }

      .cls-2 {
        fill: #21d46a;
      }
    </style>
  </defs>
  <g id="组_3319" data-name="组 3319" transform="translate(-2735 -3957.475)">
    <ellipse id="椭圆_131" data-name="椭圆 131" class="cls-1" cx="29" cy="14" rx="29" ry="14" transform="translate(2735 3981)"/>
    <path id="微信" class="cls-2" d="M31.448,11.351a14.609,14.609,0,0,1,1.588.1C31.613,4.88,24.531,0,16.444,0,7.4,0,0,6.106,0,13.864c0,4.477,2.462,8.153,6.58,11.009l-1.644,4.9,5.749-2.856a28.555,28.555,0,0,0,5.758.815c.517,0,1.028-.023,1.533-.06a12.124,12.124,0,0,1-.508-3.42c0-7.122,6.17-12.9,13.979-12.9ZM22.609,6.932a1.927,1.927,0,0,1,2.059,2.035,1.933,1.933,0,0,1-2.059,2.038,2.3,2.3,0,0,1-2.465-2.038,2.29,2.29,0,0,1,2.465-2.035ZM11.1,11.006A2.308,2.308,0,0,1,8.624,8.968,2.3,2.3,0,0,1,11.1,6.932a1.926,1.926,0,0,1,2.053,2.035A1.933,1.933,0,0,1,11.1,11.006ZM46.46,24.058c0-6.518-6.58-11.829-13.97-11.829-7.826,0-13.984,5.314-13.984,11.829,0,6.535,6.162,11.829,13.984,11.829a20.785,20.785,0,0,0,4.933-.815l4.51,2.453L40.7,33.449c3.3-2.459,5.764-5.714,5.764-9.391ZM27.954,22.017a1.758,1.758,0,0,1-1.644-1.629,1.767,1.767,0,0,1,1.644-1.629,1.871,1.871,0,0,1,2.059,1.629,1.863,1.863,0,0,1-2.059,1.629Zm9.045,0a1.754,1.754,0,0,1-1.635-1.629A1.761,1.761,0,0,1,37,18.758a1.879,1.879,0,0,1,2.059,1.629A1.871,1.871,0,0,1,37,22.017Z" transform="translate(2739.77 3957.475)"/>
  </g>
</svg>
