<svg xmlns="http://www.w3.org/2000/svg" width="22.265" height="22.343" viewBox="0 0 22.265 22.343">
  <defs>
    <style>
      .cls-1 {
        fill: #0e4efb;
      }
    </style>
  </defs>
  <path id="电话_填充" class="cls-1" d="M134.173,117.086c.915-1.592.408-2.814-1.212-4.038-1.9-1.438-3.765-2.405-5.1-.856,0,0-1.42,1.69-5.6-2.265-4.859-4.632-2.82-6.275-2.82-6.275,1.69-1.7.616-2.967-.8-4.886s-2.849-2.527-4.9-.876c-3.961,3.182,1.624,10.652,4.448,13.557h0s4.294,4.441,7,5.92l1.445.808c2.073,1.064,4.4,1.551,6.041.563A4.288,4.288,0,0,0,134.173,117.086Z" transform="translate(-112.36 -96.933)"/>
</svg>
