<svg xmlns="http://www.w3.org/2000/svg" xmlns:xlink="http://www.w3.org/1999/xlink" width="188" height="188" viewBox="0 0 188 188">
  <defs>
    <style>
      .cls-1 {
        fill: #fff;
      }

      .cls-2 {
        fill: url(#linear-gradient);
      }

      .cls-3 {
        fill: url(#linear-gradient-3);
      }

      .cls-4 {
        filter: url(#路径_384);
      }
    </style>
    <linearGradient id="linear-gradient" x1="0.5" x2="0.5" y2="1" gradientUnits="objectBoundingBox">
      <stop offset="0" stop-color="#659cfc"/>
      <stop offset="1" stop-color="#3079fc"/>
    </linearGradient>
    <filter id="路径_384" x="30.339" y="17" width="151.278" height="156.56" filterUnits="userSpaceOnUse">
      <feOffset dy="10" input="SourceAlpha"/>
      <feGaussianBlur stdDeviation="10" result="blur"/>
      <feFlood flood-color="#5a94fc" flood-opacity="0.192"/>
      <feComposite operator="in" in2="blur"/>
      <feComposite in="SourceGraphic"/>
    </filter>
    <linearGradient id="linear-gradient-3" x1="0.5" x2="0.5" y2="1" gradientUnits="objectBoundingBox">
      <stop offset="0" stop-color="#f4f8ff"/>
      <stop offset="1" stop-color="#e2edff"/>
    </linearGradient>
  </defs>
  <g id="组_3550" data-name="组 3550" transform="translate(-244 -3952)">
    <circle id="椭圆_141" data-name="椭圆 141" class="cls-1" cx="94" cy="94" r="94" transform="translate(244 3952)"/>
    <g id="组_3549" data-name="组 3549" transform="translate(-47 33)">
      <g class="cls-4" transform="matrix(1, 0, 0, 1, 291, 3919)">
        <path id="路径_384-2" data-name="路径 384" class="cls-2" d="M102.133,5.843A17.218,17.218,0,0,1,111.672.128a9.154,9.154,0,0,1,7.54,2.343,22.483,22.483,0,0,1,5.541,8.4,77.033,77.033,0,0,1,3.77,12.346,134.821,134.821,0,0,1,2.171,14.289c.457,4.973.685,9.717.685,14.289a96.713,96.713,0,0,1-.914,13.489,87.2,87.2,0,0,1-2.685,12.632,62.526,62.526,0,0,1-4.113,10.4,19,19,0,0,1-5.255,6.573,7.479,7.479,0,0,1-6.226,1.543,12.614,12.614,0,0,1-6.969-4.744,27.405,27.405,0,0,0-9.539-7.145A81.866,81.866,0,0,0,82.54,79.8,135.347,135.347,0,0,0,68.26,76.66L54.951,74.488c-4.056-.629-7.426-1.257-10.11-1.829s-4.227-1.315-4.741-2.172V30.078c.343-1.2,1.6-2.115,3.827-2.915a63.836,63.836,0,0,1,8.511-2.115c3.541-.686,7.654-1.2,11.767-2.229A118.182,118.182,0,0,0,77.457,19.5,78.292,78.292,0,0,0,90.594,14.36a49,49,0,0,0,11.538-8.516Z" transform="translate(20.24 36.97)"/>
      </g>
      <path id="路径_383" data-name="路径 383" class="cls-2" d="M0,61.771a7.591,7.591,0,0,1,2.27-5.645A7.388,7.388,0,0,1,7.8,53.8h7.74V90.112H7.8a7.388,7.388,0,0,1-5.529-2.328A7.681,7.681,0,0,1,0,82.139V61.771Z" transform="translate(328.005 3932.607)"/>
      <path id="路径_385" data-name="路径 385" class="cls-3" d="M58.927,142.93c.407.989.931,2.153,1.513,3.317a35.044,35.044,0,0,0,1.979,3.9c.815,1.513,1.8,3.084,2.968,4.83s2.793,4.248,4.248,6.518a35.2,35.2,0,0,1,3.259,6.227,7.791,7.791,0,0,1,.7,4.6c-.291,1.222-1.455,1.8-3.492,1.8H63a10.981,10.981,0,0,1-4.539-.989,12.654,12.654,0,0,1-4.015-2.968,41.492,41.492,0,0,1-3.957-5.121c-1.338-2.037-2.793-4.481-4.365-7.391a43.759,43.759,0,0,1-3.957-8.555,45.205,45.205,0,0,1-1.455-6.169,11.267,11.267,0,0,1,0-4.83,14.984,14.984,0,0,1,2.328.466l2.735.7,3.725.757c1.4.349,2.677.64,3.783.989a30.556,30.556,0,0,1,3.026.989Z" transform="translate(310.607 3896.495)"/>
    </g>
  </g>
</svg>
