<svg xmlns="http://www.w3.org/2000/svg" width="61.483" height="61.391" viewBox="0 0 61.483 61.391">
  <defs>
    <style>
      .cls-1 {
        fill: #0e4efb;
        stroke: #0e4efb;
      }
    </style>
  </defs>
  <path id="联合_12" data-name="联合 12" class="cls-1" d="M-2924.938,55.272a5.307,5.307,0,0,1,3.41-6.2.43.43,0,0,0,.29-.41v-23.3a1.484,1.484,0,0,1,1.483-1.4,1.483,1.483,0,0,1,1.483,1.4v23.3a.432.432,0,0,0,.29.41,5.341,5.341,0,0,1,3.542,5.008,5.313,5.313,0,0,1-4.718,5.275,5.352,5.352,0,0,1-.6.034A5.317,5.317,0,0,1-2924.938,55.272Zm2.378-1.19a2.815,2.815,0,0,0,2.8,2.8,2.819,2.819,0,0,0,2.807-2.8,2.816,2.816,0,0,0-2.807-2.8A2.818,2.818,0,0,0-2922.56,54.082Zm22.716-5.892a.449.449,0,0,0-.416-.288h-9.916a1.484,1.484,0,0,1-1.481-1.48V25.364a1.486,1.486,0,0,1,1.483-1.4,1.486,1.486,0,0,1,1.484,1.4V44.506a.423.423,0,0,0,.129.311.425.425,0,0,0,.311.125h8a.44.44,0,0,0,.414-.289,5.328,5.328,0,0,1,5.01-3.536,5.31,5.31,0,0,1,5.273,4.709,5.306,5.306,0,0,1-4.088,5.766,5.325,5.325,0,0,1-1.194.136A5.313,5.313,0,0,1-2899.844,48.19Zm2.2-1.764a2.815,2.815,0,0,0,2.813,2.8,2.809,2.809,0,0,0,2.656-2.8,2.81,2.81,0,0,0-2.656-2.8A2.818,2.818,0,0,0-2897.643,46.426Zm-52.322.593a5.311,5.311,0,0,1,4.09-5.776,5.317,5.317,0,0,1,6.207,3.41.44.44,0,0,0,.415.289h7.99a.43.43,0,0,0,.312-.124.43.43,0,0,0,.129-.311V25.364a1.486,1.486,0,0,1,1.486-1.476,1.481,1.481,0,0,1,1.481,1.476V46.422a1.485,1.485,0,0,1-1.481,1.48h-9.917a.449.449,0,0,0-.415.288,5.325,5.325,0,0,1-5.01,3.538A5.314,5.314,0,0,1-2949.965,47.019Zm2.631-.593a2.809,2.809,0,0,0,2.656,2.8,2.806,2.806,0,0,0,2.808-2.8,2.806,2.806,0,0,0-2.808-2.8A2.81,2.81,0,0,0-2947.334,46.426Zm10.214-7.824a14.216,14.216,0,0,1-9.1-4.309,13.309,13.309,0,0,1-3.771-9.261,12.966,12.966,0,0,1,2.622-7.781,14.73,14.73,0,0,1,5.459-4.434,18.148,18.148,0,0,1,5.641-9.632A17.286,17.286,0,0,1-2924.923-1a17.344,17.344,0,0,1,12.175,4.978.434.434,0,0,0,.493.082,10.313,10.313,0,0,1,4.474-1.07,10.971,10.971,0,0,1,7.818,3.244,10.883,10.883,0,0,1,3.2,6.773,17.3,17.3,0,0,1,4.98,4.675,13.106,13.106,0,0,1,2.255,7.355,13.335,13.335,0,0,1-3.767,9.261,14.2,14.2,0,0,1-9.1,4.3h-.009a1.514,1.514,0,0,1-1.589-1.35,1.48,1.48,0,0,1,1.352-1.592,11.237,11.237,0,0,0,7.218-3.407,10.379,10.379,0,0,0,2.941-7.221A10.483,10.483,0,0,0-2898.8,15.5a1.478,1.478,0,0,1-.868-1.342,8.108,8.108,0,0,0-2.381-5.84,8.087,8.087,0,0,0-5.727-2.377,7.915,7.915,0,0,0-4.251,1.364,1.467,1.467,0,0,1-1.913-.284,14.9,14.9,0,0,0-4.825-3.688,14.266,14.266,0,0,0-6.159-1.376,14.371,14.371,0,0,0-9.407,3.455,13.6,13.6,0,0,0-4.579,8.54,1.463,1.463,0,0,1-.929,1.191,11.889,11.889,0,0,0-5.153,3.886,9.918,9.918,0,0,0-2.034,6,10.444,10.444,0,0,0,2.928,7.221,11.265,11.265,0,0,0,7.222,3.407,1.48,1.48,0,0,1,1.352,1.591A1.49,1.49,0,0,1-2937,38.606Zm17.364-17.518a1.475,1.475,0,0,1-1.477-1.475,1.476,1.476,0,0,1,1.477-1.475,1.476,1.476,0,0,1,1.477,1.475,1.476,1.476,0,0,1-1.475,1.475Zm-9.58,0a1.476,1.476,0,0,1-1.478-1.475,1.477,1.477,0,0,1,1.478-1.475,1.476,1.476,0,0,1,1.477,1.475,1.476,1.476,0,0,1-1.475,1.475Zm17.682-1.475a1.481,1.481,0,0,1,.741-1.282,1.486,1.486,0,0,1,1.481,0,1.48,1.48,0,0,1,.741,1.282,1.482,1.482,0,0,1-1.481,1.445A1.482,1.482,0,0,1-2911.654,19.609Z" transform="translate(2950.503 1.5)"/>
</svg>
