<svg xmlns="http://www.w3.org/2000/svg" width="65.592" height="48.106" viewBox="0 0 65.592 48.106">
  <defs>
    <style>
      .cls-1 {
        fill: #0e4efb;
      }
    </style>
  </defs>
  <path id="smart-view" class="cls-1" d="M57.559,41.09A3.511,3.511,0,1,1,53.89,44.6,3.593,3.593,0,0,1,57.559,41.09ZM36.034,4.4C26.916,4.4,19.5,11.527,19.5,20.274c0,.157,0,.315.013.455a2.166,2.166,0,0,1-2.033,2.55H15.411A10.662,10.662,0,0,0,4.531,33.686a10.662,10.662,0,0,0,10.88,10.408h3.7a2.316,2.316,0,0,1,1.649.687,1.513,1.513,0,0,1,.446,1.2A2.2,2.2,0,0,1,18.94,48.1H15.319A15.612,15.612,0,0,1,4.487,43.81,14.18,14.18,0,0,1,4.43,23.164a15.586,15.586,0,0,1,10.552-4.351C15.712,8.261,24.927,0,36.021,0A21.341,21.341,0,0,1,50.452,5.51l.162.118a3.835,3.835,0,0,1,.481.415,2.534,2.534,0,0,1,.9,1.832,2.23,2.23,0,0,1-2.261,2.16A2.344,2.344,0,0,1,47.8,9.1a2.388,2.388,0,0,1-.4-.372c-.061-.057-.118-.131-.223-.227A16.793,16.793,0,0,0,36.039,4.395Zm9,10.95.8.761,5.829,5.7a1.137,1.137,0,0,0,.818.324H54.7a3.4,3.4,0,0,1,2.93-1.561A3.586,3.586,0,0,1,60.4,21.813a3.79,3.79,0,0,1,.787,3.052,3.59,3.59,0,0,1-3.529,2.961h-.031a3.586,3.586,0,0,1-2.812-1.461H50.662a1.229,1.229,0,0,1-.861-.38L42.813,19a1.224,1.224,0,0,0-.831-.35H35a3.442,3.442,0,0,1-2.93,1.6A3.564,3.564,0,0,1,29.3,19.04a3.673,3.673,0,0,1-.787-3,3.566,3.566,0,0,1,6.372-1.474h8.2a2.732,2.732,0,0,1,1.955.787ZM62.05,31.386A3.5,3.5,0,0,1,65.592,34.9a3.529,3.529,0,0,1-6.083,2.449l-.131-.044H49.363a1.391,1.391,0,0,0-.936.455L40.512,45.83a2.768,2.768,0,0,1-1.968.813H32.667A3.354,3.354,0,0,1,29.781,48.1a3.892,3.892,0,0,1-1.281-.219,3.579,3.579,0,0,1,1.369-6.914,3.306,3.306,0,0,1,1.255.262A2.928,2.928,0,0,1,32.8,42.576H37.39a1.164,1.164,0,0,0,.831-.35l8.1-8.068a2.755,2.755,0,0,1,1.95-.774H58.844a3.368,3.368,0,0,1,3.21-2Zm-24.3-4.128a3.594,3.594,0,1,1,2.873,5.7H40.6a3.428,3.428,0,0,1-2.9-1.6H32.859a3.385,3.385,0,0,1-2.9,1.561,3.52,3.52,0,0,1-3.617-3.586,3.478,3.478,0,0,1,3.573-3.564,3.274,3.274,0,0,1,2.873,1.487h4.972Z"/>
</svg>
