<svg xmlns="http://www.w3.org/2000/svg" width="60.587" height="60.554" viewBox="0 0 60.587 60.554">
  <defs>
    <style>
      .cls-1 {
        fill: #0e4efb;
      }
    </style>
  </defs>
  <path id="SaaS服务" class="cls-1" d="M45.711,34.061l4.243,3.559a7.576,7.576,0,1,1-2.873,2.534l-3.838-3.221a8.779,8.779,0,0,1-5.3,1.772h-5.4v7.818a7.576,7.576,0,1,1-3.788-.005V38.7H22.445q-.2,0-.41,0a7.718,7.718,0,0,1-2.219-.39l-5.843,7.213a7.562,7.562,0,1,1-2.955-2.37l5.593-6.909a7.718,7.718,0,0,1,1.135-11.527L12.837,20.6a7.555,7.555,0,1,1,2.176-3.119L20.99,22.5a9.394,9.394,0,0,1,17.293-1.424,8.839,8.839,0,0,1,3.2.737l6.521-8.056a7.55,7.55,0,1,1,3.3,1.939l-6.762,8.349A8.818,8.818,0,0,1,45.711,34.06Zm-7.81-9.2a4.849,4.849,0,0,0-.622.037l-1.547.193-.485-1.481a5.585,5.585,0,0,0-7.05-3.562,5.683,5.683,0,0,0-3.882,5.192l-.072,1.874-1.875-.053a3.93,3.93,0,0,0-.224,7.856q.112,0,.223,0H37.944a5.03,5.03,0,1,0-.03-10.055H37.9Zm15.463-12.67A3.788,3.788,0,1,0,49.576,8.4a3.788,3.788,0,0,0,3.788,3.788ZM7.909,18.641a3.788,3.788,0,1,0-3.788-3.788,3.788,3.788,0,0,0,3.788,3.788Zm0,35.216a3.788,3.788,0,1,0-3.788-3.788,3.788,3.788,0,0,0,3.788,3.788Zm45.455-5.682a3.788,3.788,0,1,0-3.788-3.788A3.788,3.788,0,0,0,53.364,48.175Zm-22.728,9.47a3.788,3.788,0,1,0-3.788-3.788A3.788,3.788,0,0,0,30.636,57.645Z" transform="translate(-0.354 -0.877)"/>
</svg>
