<svg xmlns="http://www.w3.org/2000/svg" xmlns:xlink="http://www.w3.org/1999/xlink" width="100" height="100" viewBox="0 0 100 100">
  <defs>
    <style>
      .cls-1 {
        fill: #2c67ff;
      }

      .cls-2 {
        clip-path: url(#clip-path);
      }

      .cls-3 {
        fill: #d7e2fe;
      }

      .cls-4 {
        fill: url(#linear-gradient);
      }

      .cls-5 {
        fill: #0e4efb;
      }
    </style>
    <clipPath id="clip-path">
      <rect id="矩形_146" data-name="矩形 146" class="cls-1" width="100" height="100"/>
    </clipPath>
    <linearGradient id="linear-gradient" x1="0.5" x2="0.5" y2="1" gradientUnits="objectBoundingBox">
      <stop offset="0" stop-color="#316cfb"/>
      <stop offset="1" stop-color="#1855f7"/>
    </linearGradient>
  </defs>
  <g id="蒙版组_16" data-name="蒙版组 16" class="cls-2">
    <g id="利润" transform="translate(0)">
      <path id="路径_319" data-name="路径 319" class="cls-3" d="M9.654,50.717A1.86,1.86,0,0,1,8.22,50.1a2,2,0,0,1,0-2.875L36.961,18.5a2,2,0,0,1,2.875,0L56.879,35.544,84.186,8.237a2.035,2.035,0,0,1,2.875,2.875L58.314,39.853a2,2,0,0,1-2.875,0L38.4,22.79,11.094,50.1a1.87,1.87,0,0,1-1.44.615Z"/>
      <path id="路径_320" data-name="路径 320" class="cls-4" d="M77.412,40.448H95.89V97.937H77.412Z"/>
      <path id="路径_321" data-name="路径 321" class="cls-4" d="M95.89,99.992h-18.5a1.94,1.94,0,0,1-2.055-2.055V40.448a1.94,1.94,0,0,1,2.055-2.05h18.5a1.935,1.935,0,0,1,2.05,2.05V97.942A1.94,1.94,0,0,1,95.89,100Zm-16.428-4.1H93.835V42.5H79.462ZM46.61,58.926h18.5v39H46.61Zm0,0"/>
      <path id="路径_322" data-name="路径 322" class="cls-4" d="M65.088,99.992H46.59a1.94,1.94,0,0,1-2.05-2.055v-39a1.935,1.935,0,0,1,2.05-2.05h18.5a1.94,1.94,0,0,1,2.055,2.05v39a1.94,1.94,0,0,1-2.055,2.055Z"/>
      <path id="路径_323" data-name="路径 323" class="cls-4" d="M48.665,60.981H63.039v34.9H48.665Z"/>
      <path id="路径_324" data-name="路径 324" class="cls-5" d="M9.654,43.118a5.5,5.5,0,1,1-3.934,1.611,5.544,5.544,0,0,1,3.934-1.611Z"/>
      <path id="路径_325" data-name="路径 325" class="cls-5" d="M9.654,56.261a7.579,7.579,0,1,1,5.379-2.22A7.6,7.6,0,0,1,9.654,56.261Zm0-11.089a3.46,3.46,0,0,0-3.5,3.5,3.34,3.34,0,0,0,3.5,3.5,3.34,3.34,0,0,0,3.5-3.5,3.455,3.455,0,0,0-3.5-3.5ZM38.4,14.376a5.5,5.5,0,1,1-3.934,1.611A5.544,5.544,0,0,1,38.4,14.376Zm0,0"/>
      <path id="路径_326" data-name="路径 326" class="cls-5" d="M38.4,27.5a7.579,7.579,0,1,1,5.369-2.215A7.579,7.579,0,0,1,38.4,27.5Zm0-11.089a3.46,3.46,0,0,0-3.5,3.5,3.5,3.5,0,0,0,7,0,3.465,3.465,0,0,0-3.5-3.5ZM56.9,32.839a8.479,8.479,0,1,0-.02.015Zm0,0"/>
      <path id="路径_327" data-name="路径 327" class="cls-5" d="M56.879,46a7.579,7.579,0,0,1-7.6-7.6,7.454,7.454,0,0,1,7.6-7.6,7.6,7.6,0,0,1,0,15.193Zm0-11.089a3.46,3.46,0,0,0-3.5,3.5,3.5,3.5,0,0,0,7,0,3.465,3.465,0,0,0-3.5-3.5Zm30.8-32.846a5.491,5.491,0,1,1-3.934,1.606,5.544,5.544,0,0,1,3.934-1.606Zm0,0"/>
      <path id="路径_328" data-name="路径 328" class="cls-5" d="M87.676,15.2A7.6,7.6,0,1,1,87.676,0a7.714,7.714,0,0,1,7.6,7.594A7.719,7.719,0,0,1,87.676,15.2Zm0-11.089a3.46,3.46,0,0,0-3.5,3.5,3.5,3.5,0,0,0,7,0,3.46,3.46,0,0,0-3.5-3.5Zm0,0"/>
      <path id="路径_329" data-name="路径 329" class="cls-4" d="M34.292,67.14H17.868A1.94,1.94,0,0,0,15.814,69.2V97.937a1.94,1.94,0,0,0,2.055,2.055H34.292a1.94,1.94,0,0,0,2.055-2.055V69.2a1.94,1.94,0,0,0-2.055-2.055Zm-2.05,28.747H19.923V71.245H32.242Z"/>
    </g>
  </g>
</svg>
