<svg xmlns="http://www.w3.org/2000/svg" xmlns:xlink="http://www.w3.org/1999/xlink" width="100" height="100" viewBox="0 0 100 100">
  <defs>
    <style>
      .cls-1 {
        fill: #2c67ff;
      }

      .cls-2 {
        clip-path: url(#clip-path);
      }

      .cls-3 {
        fill: #d7e2fe;
        fill-rule: evenodd;
      }

      .cls-4 {
        fill: none;
        stroke: #d7e2ff;
        stroke-width: 2.149px;
      }

      .cls-5 {
        fill: #0e4efb;
      }

      .cls-6 {
        fill: url(#linear-gradient);
      }
    </style>
    <clipPath id="clip-path">
      <rect id="矩形_146" data-name="矩形 146" class="cls-1" width="100" height="100"/>
    </clipPath>
    <linearGradient id="linear-gradient" x1="0.5" x2="0.5" y2="1" gradientUnits="objectBoundingBox">
      <stop offset="0" stop-color="#f4f8ff"/>
      <stop offset="1" stop-color="#e2edff"/>
    </linearGradient>
  </defs>
  <g id="蒙版组_10" data-name="蒙版组 10" class="cls-2">
    <g id="下载_2_" data-name="下载 (2)" transform="translate(-1.58 -1.916)">
      <path id="路径_301" data-name="路径 301" class="cls-3" d="M9.915,24.138A8.333,8.333,0,1,0,1.581,15.8,8.333,8.333,0,0,0,9.915,24.138Z"/>
      <path id="路径_302" data-name="路径 302" class="cls-4" d="M9.914,15.8V29.693H29.59"/>
      <path id="路径_303" data-name="路径 303" class="cls-3" d="M93.247,24.138A8.333,8.333,0,1,1,101.58,15.8,8.333,8.333,0,0,1,93.247,24.138Z"/>
      <path id="路径_304" data-name="路径 304" class="cls-4" d="M93.247,15.8V29.693H73.571"/>
      <path id="路径_305" data-name="路径 305" class="cls-3" d="M9.914,79.693A8.333,8.333,0,1,1,1.58,88.027,8.333,8.333,0,0,1,9.914,79.693Z"/>
      <path id="路径_306" data-name="路径 306" class="cls-4" d="M9.914,88.026V74.137H29.59"/>
      <path id="路径_307" data-name="路径 307" class="cls-3" d="M93.247,79.693a8.333,8.333,0,1,0,8.333,8.333A8.333,8.333,0,0,0,93.247,79.693Z"/>
      <path id="路径_308" data-name="路径 308" class="cls-4" d="M93.247,88.026V74.137H73.571"/>
      <rect id="矩形_147" data-name="矩形 147" class="cls-5" width="66.667" height="16.667" rx="3.224" transform="translate(18.249 21.36)"/>
      <path id="路径_310" data-name="路径 310" class="cls-5" d="M3.224,0H63.443a3.224,3.224,0,0,1,3.224,3.224V13.443a3.224,3.224,0,0,1-3.224,3.224H3.224A3.224,3.224,0,0,1,0,13.443V3.224A3.224,3.224,0,0,1,3.224,0Z" transform="translate(18.248 43.582)"/>
      <rect id="矩形_149" data-name="矩形 149" class="cls-6" width="22.222" height="5.556" rx="1.075" transform="translate(40.47 26.915)"/>
      <rect id="矩形_150" data-name="矩形 150" class="cls-6" width="22.222" height="5.556" rx="1.075" transform="translate(40.47 49.137)"/>
      <rect id="矩形_151" data-name="矩形 151" class="cls-5" width="66.667" height="16.667" rx="3.224" transform="translate(18.248 65.804)"/>
      <rect id="矩形_152" data-name="矩形 152" class="cls-6" width="22.222" height="5.556" rx="1.075" transform="translate(40.47 71.36)"/>
    </g>
  </g>
</svg>
