<svg xmlns="http://www.w3.org/2000/svg" xmlns:xlink="http://www.w3.org/1999/xlink" width="100" height="100" viewBox="0 0 100 100">
  <defs>
    <style>
      .cls-1 {
        fill: #2c67ff;
      }

      .cls-2 {
        clip-path: url(#clip-path);
      }

      .cls-3 {
        fill: #d7e2fe;
      }

      .cls-4 {
        fill: url(#linear-gradient);
      }

      .cls-5 {
        fill: url(#linear-gradient-2);
      }
    </style>
    <clipPath id="clip-path">
      <rect id="矩形_146" data-name="矩形 146" class="cls-1" width="100" height="100"/>
    </clipPath>
    <linearGradient id="linear-gradient" x1="0.5" x2="0.5" y2="1" gradientUnits="objectBoundingBox">
      <stop offset="0" stop-color="#f4f8ff"/>
      <stop offset="1" stop-color="#e2edff"/>
    </linearGradient>
    <linearGradient id="linear-gradient-2" x1="0.5" x2="0.5" y2="1" gradientUnits="objectBoundingBox">
      <stop offset="0" stop-color="#316cfb"/>
      <stop offset="1" stop-color="#1855f7"/>
    </linearGradient>
  </defs>
  <g id="蒙版组_13" data-name="蒙版组 13" class="cls-2">
    <g id="icon_nav_设备升级" transform="translate(-11.121 -7.394)">
      <path id="路径_311" data-name="路径 311" class="cls-3" d="M99.821,7.454a7.52,7.52,0,0,1,7.513,7.513V84.5a7.482,7.482,0,0,1-7.513,7.513h-2.5V24.925a7.5,7.5,0,0,0-6.679-7.454l-.835-.06H30.292v-2.5a7.52,7.52,0,0,1,7.513-7.513l62.015.06Z"/>
      <path id="路径_381" data-name="路径 381" class="cls-4" d="M49.261,22.838H18.62a3.739,3.739,0,0,0-3.712,3.8V61.755a3.739,3.739,0,0,0,3.712,3.8H49.261a3.739,3.739,0,0,0,3.712-3.8V26.634A3.758,3.758,0,0,0,49.261,22.838Z" transform="translate(22.221 32.999)"/>
      <path id="路径_312" data-name="路径 312" class="cls-5" d="M84.436,22.838H22.421a7.482,7.482,0,0,0-7.513,7.513V99.881a7.482,7.482,0,0,0,7.513,7.513H84.436a7.482,7.482,0,0,0,7.513-7.513V30.352A7.52,7.52,0,0,0,84.436,22.838ZM25.522,33.572H49.374c1.252,0,2.326,1.371,2.326,3.1s-1.073,3.1-2.326,3.1H25.522l-.477-.06A3.015,3.015,0,0,1,23.2,36.673C23.2,35,24.27,33.572,25.522,33.572ZM25.7,51.64a3.217,3.217,0,0,1-2.5-2.982,3.08,3.08,0,0,1,3.1-3.1H40.727a3.1,3.1,0,0,1,0,6.2H26.3ZM74.359,76.625H62.314V98.33H50.924V76.625H38.939l-.3-.06a.685.685,0,0,1-.239-1.073l17.293-19.2.358-.3h0a1.4,1.4,0,0,1,1.67.3l17.293,19.2.06.3A.721.721,0,0,1,74.359,76.625Z"/>
    </g>
  </g>
</svg>
