<svg xmlns="http://www.w3.org/2000/svg" xmlns:xlink="http://www.w3.org/1999/xlink" width="100" height="100" viewBox="0 0 100 100">
  <defs>
    <style>
      .cls-1 {
        fill: #2c67ff;
      }

      .cls-2 {
        clip-path: url(#clip-path);
      }

      .cls-3 {
        fill: url(#linear-gradient);
      }

      .cls-4 {
        fill: url(#linear-gradient-2);
      }

      .cls-5 {
        fill: #d7e2fe;
      }
    </style>
    <clipPath id="clip-path">
      <rect id="矩形_146" data-name="矩形 146" class="cls-1" width="100" height="100"/>
    </clipPath>
    <linearGradient id="linear-gradient" x1="0.5" x2="0.5" y2="1" gradientUnits="objectBoundingBox">
      <stop offset="0" stop-color="#316cfb"/>
      <stop offset="1" stop-color="#1855f7"/>
    </linearGradient>
    <linearGradient id="linear-gradient-2" x1="0.5" x2="0.5" y2="1" gradientUnits="objectBoundingBox">
      <stop offset="0" stop-color="#f4f8ff"/>
      <stop offset="1" stop-color="#e2edff"/>
    </linearGradient>
  </defs>
  <g id="蒙版组_14" data-name="蒙版组 14" class="cls-2">
    <g id="快速开始" transform="translate(-0.062 0.018)">
      <path id="路径_313" data-name="路径 313" class="cls-3" d="M99.231,2.652V0h-2.6A86.105,86.105,0,0,0,61.05,6.906,61.886,61.886,0,0,0,39.683,22.619q-1.576,1.8-3,3.753a26.257,26.257,0,0,0-13.561,5.4A58.933,58.933,0,0,0,11.61,43.135,98.926,98.926,0,0,0,1.151,59.4a2.642,2.642,0,0,0,.8,3.3,2.362,2.362,0,0,0,1.5.5A2.57,2.57,0,0,0,5.3,62.451,38.057,38.057,0,0,1,12.01,57.5a36.132,36.132,0,0,1,15.313-4.8,41.782,41.782,0,0,0,8.557,11.66A41.381,41.381,0,0,0,47.339,73.06a37.286,37.286,0,0,1-4.7,15.613,34.351,34.351,0,0,1-4.854,6.806,2.656,2.656,0,0,0-.25,3.4,2.543,2.543,0,0,0,2.1,1.1,2.325,2.325,0,0,0,1.151-.3A96.835,96.835,0,0,0,56.8,89.023a57.59,57.59,0,0,0,11.159-11.71A27.762,27.762,0,0,0,73.26,63.5c1.251-.951,2.5-2,3.7-3.053A62.988,62.988,0,0,0,92.426,38.732h0A90.562,90.562,0,0,0,99.231,2.652ZM78.514,34.478a10.953,10.953,0,1,1,.05-.25h0A.544.544,0,0,0,78.514,34.478Z"/>
      <path id="路径_314" data-name="路径 314" class="cls-4" d="M65.554,42.135a7.807,7.807,0,1,1,7.756-7.856,8.008,8.008,0,0,1-2.252,5.555A7.762,7.762,0,0,1,65.554,42.135Z"/>
      <path id="路径_315" data-name="路径 315" class="cls-5" d="M24.77,69.457a5.807,5.807,0,0,1,4.153,2.1,5.634,5.634,0,0,1,1.952,5.3c-.4,1.8-2.052,4.8-7.556,8.657A86.544,86.544,0,0,1,6.756,94.077a85.558,85.558,0,0,1,9.258-18.065c3.153-4.3,6.155-6.555,8.757-6.555Z"/>
    </g>
  </g>
</svg>
